<?xml version="1.0" encoding="utf-8"?>
<!-- Generator: Adobe Illustrator 15.1.0, SVG Export Plug-In  -->
<!DOCTYPE svg PUBLIC "-//W3C//DTD SVG 1.1//EN" "http://www.w3.org/Graphics/SVG/1.1/DTD/svg11.dtd" [
	<!ENTITY ns_flows "http://ns.adobe.com/Flows/1.0/">
]>
<svg version="1.1"
	 xmlns="http://www.w3.org/2000/svg" xmlns:xlink="http://www.w3.org/1999/xlink" xmlns:a="http://ns.adobe.com/AdobeSVGViewerExtensions/3.0/"
	 x="0px" y="0px" width="1000px" height="500px" viewBox="33.452 70.122 1000 500" enable-background="new 33.452 70.122 1000 500"
	 xml:space="preserve">
<defs>
</defs>
<text transform="matrix(1 0 0 1 145.5508 332.6128)" display="none"><tspan x="0" y="0" display="inline" font-family="'TimesNewRomanPS-BoldItalicMT'" font-size="150" letter-spacing="-7">inno</tspan><tspan x="253.521" y="0" display="inline" font-family="'Arial-Black'" font-size="150" letter-spacing="-7">SERVO</tspan></text>
<text transform="matrix(1 0 0 1 90.666 556.104)" display="none" font-family="'TimesNewRomanPSMT'" font-size="60">innovation revolutionizing tomorrow</text>
<text transform="matrix(1 0 0 1 0 391.0415)" display="none" font-family="'TimesNewRomanPS-BoldMT'" font-size="470.5356">{</text>
<text transform="matrix(1 0 0 1 881.1509 391.0415)" display="none" font-family="'TimesNewRomanPS-BoldMT'" font-size="470.5356">}</text>
<path display="none" fill="#FFFFFF" d="M183.783,264.717l-15.015,52.075c-0.831,2.979-1.245,4.933-1.245,5.859
	c0,0.538,0.22,1.038,0.659,1.502s0.903,0.695,1.392,0.695c0.83,0,1.659-0.366,2.49-1.099c2.197-1.806,4.834-5.078,7.91-9.814
	l2.49,1.465c-7.374,12.843-15.21,19.263-23.511,19.263c-3.175,0-5.702-0.892-7.581-2.674c-1.88-1.781-2.82-4.039-2.82-6.774
	c0-1.806,0.414-4.102,1.245-6.885l10.181-35.01c0.976-3.369,1.465-5.907,1.465-7.617c0-1.073-0.465-2.025-1.392-2.856
	c-0.928-0.83-2.197-1.245-3.809-1.245c-0.732,0-1.611,0.025-2.637,0.073l0.952-2.93l24.829-4.028H183.783z M179.242,231.026
	c3.027,0,5.578,1.051,7.654,3.149c2.075,2.1,3.113,4.64,3.113,7.617c0,2.979-1.051,5.519-3.149,7.617
	c-2.1,2.1-4.64,3.149-7.617,3.149c-2.93,0-5.445-1.05-7.544-3.149c-2.1-2.099-3.149-4.639-3.149-7.617
	c0-2.978,1.037-5.517,3.113-7.617C173.736,232.077,176.263,231.026,179.242,231.026z"/>
<path display="none" fill="#FFFFFF" d="M219.789,264.717l-9.082,31.421c6.103-9.18,10.668-15.454,13.696-18.823
	c4.442-4.882,8.276-8.203,11.499-9.961s6.25-2.637,9.082-2.637c2.538,0,4.711,0.94,6.519,2.819c1.806,1.881,2.71,4.334,2.71,7.361
	c0,2.735-0.586,6.055-1.758,9.961l-9.375,31.274c-0.782,2.735-1.172,4.517-1.172,5.347c0,0.488,0.183,0.928,0.549,1.318
	c0.366,0.392,0.744,0.586,1.135,0.586c0.487,0,1-0.194,1.538-0.586c1.708-1.416,3.442-3.417,5.2-6.006
	c0.439-0.684,1.146-1.709,2.124-3.076l2.783,1.685c-7.178,12.061-14.722,18.091-22.632,18.091c-3.028,0-5.396-0.781-7.104-2.344
	c-1.71-1.563-2.563-3.516-2.563-5.859c0-2.051,0.586-5.102,1.758-9.155l9.155-31.274c0.634-2.051,0.952-3.563,0.952-4.541
	c0-0.537-0.22-1.013-0.659-1.428s-0.952-0.623-1.538-0.623c-1.856,0-4.102,1.271-6.738,3.809
	c-6.738,6.445-13.257,16.04-19.556,28.784l-6.006,21.753H181.63l13.696-47.021c1.318-4.639,1.978-7.935,1.978-9.888
	c0-0.83-0.196-1.525-0.586-2.087c-0.392-0.562-1.025-1.001-1.904-1.318s-2.54-0.477-4.98-0.477l0.806-2.783l24.683-4.321H219.789z"
	/>
<path display="none" fill="#FFFFFF" d="M295.712,264.717l-9.082,31.421c6.103-9.18,10.668-15.454,13.696-18.823
	c4.442-4.882,8.276-8.203,11.499-9.961s6.25-2.637,9.082-2.637c2.538,0,4.711,0.94,6.519,2.819c1.806,1.881,2.71,4.334,2.71,7.361
	c0,2.735-0.586,6.055-1.758,9.961l-9.375,31.274c-0.782,2.735-1.172,4.517-1.172,5.347c0,0.488,0.183,0.928,0.549,1.318
	c0.366,0.392,0.744,0.586,1.135,0.586c0.487,0,1-0.194,1.538-0.586c1.708-1.416,3.442-3.417,5.2-6.006
	c0.439-0.684,1.146-1.709,2.124-3.076l2.783,1.685c-7.178,12.061-14.722,18.091-22.632,18.091c-3.028,0-5.396-0.781-7.104-2.344
	c-1.71-1.563-2.563-3.516-2.563-5.859c0-2.051,0.586-5.102,1.758-9.155l9.155-31.274c0.634-2.051,0.952-3.563,0.952-4.541
	c0-0.537-0.22-1.013-0.659-1.428s-0.952-0.623-1.538-0.623c-1.856,0-4.102,1.271-6.738,3.809
	c-6.738,6.445-13.257,16.04-19.556,28.784l-6.006,21.753h-18.677l13.696-47.021c1.318-4.639,1.978-7.935,1.978-9.888
	c0-0.83-0.196-1.525-0.586-2.087c-0.392-0.562-1.025-1.001-1.904-1.318s-2.54-0.477-4.98-0.477l0.806-2.783l24.683-4.321H295.712z"
	/>
<path display="none" fill="#FFFFFF" d="M380.863,264.717c3.856,0,7.482,0.892,10.876,2.673c3.393,1.783,5.957,4.261,7.69,7.435
	c1.732,3.175,2.6,6.69,2.6,10.547c0,7.91-2.21,15.82-6.628,23.73c-4.42,7.91-10.243,14.148-17.468,18.714
	c-7.227,4.565-14.502,6.848-21.826,6.848c-6.641,0-11.781-1.978-15.417-5.933c-3.638-3.955-5.457-8.789-5.457-14.502
	c0-6.786,1.355-13.147,4.065-19.079c2.71-5.934,6.152-11.108,10.327-15.527s8.972-8.008,14.392-10.768
	C369.438,266.097,375.052,264.717,380.863,264.717z M377.86,268.599c-2.589,0-4.737,0.758-6.445,2.271
	c-3.418,3.076-7.276,10.267-11.572,21.569c-4.297,11.305-6.445,21.497-6.445,30.579c0,2.246,0.683,4.102,2.051,5.566
	c1.366,1.465,2.978,2.197,4.834,2.197c1.904,0,3.589-0.586,5.054-1.758c2.148-1.758,4.785-5.7,7.91-11.829
	c3.124-6.127,5.688-12.891,7.69-20.287c2.001-7.398,3.003-14.173,3.003-20.325c0-2.538-0.611-4.505-1.831-5.896
	C380.887,269.294,379.472,268.599,377.86,268.599z"/>
<path display="none" fill="#FFFFFF" d="M404.271,297.09l31.567-1.978c0.683,5.127,2.075,9.034,4.175,11.719
	c3.417,4.347,8.3,6.519,14.648,6.519c4.735,0,8.386-1.11,10.95-3.333c2.563-2.221,3.845-4.797,3.845-7.727
	c0-2.783-1.221-5.273-3.662-7.471c-2.442-2.197-8.106-4.272-16.992-6.226c-14.551-3.271-24.928-7.617-31.128-13.037
	c-6.251-5.42-9.375-12.329-9.375-20.728c0-5.518,1.599-10.73,4.797-15.637c3.197-4.907,8.007-8.764,14.429-11.572
	c6.42-2.807,15.222-4.211,26.404-4.211c13.72,0,24.181,2.552,31.384,7.654c7.202,5.103,11.486,13.22,12.854,24.353l-31.274,1.831
	c-0.831-4.834-2.576-8.35-5.237-10.547c-2.662-2.197-6.335-3.296-11.023-3.296c-3.858,0-6.764,0.818-8.716,2.453
	c-1.954,1.637-2.93,3.626-2.93,5.97c0,1.71,0.806,3.248,2.417,4.614c1.562,1.417,5.273,2.735,11.133,3.955
	c14.502,3.125,24.89,6.287,31.165,9.484c6.273,3.199,10.84,7.167,13.696,11.902c2.856,4.736,4.285,10.034,4.285,15.894
	c0,6.885-1.904,13.232-5.713,19.043c-3.809,5.812-9.131,10.218-15.967,13.22c-6.837,3.004-15.454,4.505-25.854,4.505
	c-18.263,0-30.908-3.516-37.939-10.547S405.198,307.93,404.271,297.09z"/>
<path display="none" fill="#FFFFFF" d="M510.81,225.24h88.917v22.925h-55.664v17.065h51.636v21.899h-51.636v21.167h57.275v24.316
	H510.81V225.24z"/>
<path display="none" fill="#FFFFFF" d="M612.148,332.613V225.24h55.298c10.254,0,18.091,0.879,23.511,2.637s9.789,5.017,13.11,9.778
	c3.32,4.761,4.98,10.559,4.98,17.395c0,5.958-1.271,11.097-3.811,15.417c-2.541,4.322-6.035,7.826-10.479,10.511
	c-2.834,1.71-6.718,3.125-11.652,4.248c3.951,1.32,6.831,2.641,8.637,3.959c1.22,0.88,2.988,2.761,5.307,5.645
	c2.317,2.884,3.867,5.107,4.647,6.671l16.067,31.113h-37.489L662.539,299.8c-2.246-4.248-4.248-7.006-6.006-8.276
	c-2.393-1.659-5.103-2.49-8.13-2.49h-2.93v43.579H612.148z M645.473,268.746h13.989c1.513,0,4.442-0.487,8.789-1.465
	c2.197-0.439,3.991-1.563,5.384-3.369c1.391-1.806,2.087-3.882,2.087-6.226c0-3.467-1.099-6.127-3.296-7.983
	c-2.197-1.855-6.324-2.783-12.378-2.783h-14.575V268.746z"/>
<path display="none" fill="#FFFFFF" d="M707.773,225.24h34.684l24.167,77.271l23.857-77.271h33.674l-39.869,107.373h-35.962
	L707.773,225.24z"/>
<path display="none" fill="#FFFFFF" d="M818.193,279c0-17.529,4.882-31.176,14.648-40.942c9.766-9.765,23.364-14.648,40.796-14.648
	c17.871,0,31.641,4.797,41.309,14.392c9.668,9.595,14.502,23.035,14.502,40.32c0,12.55-2.112,22.84-6.336,30.871
	c-4.224,8.033-10.326,14.283-18.311,18.75c-7.982,4.469-17.933,6.702-29.846,6.702c-12.11,0-22.132-1.929-30.066-5.786
	c-7.935-3.856-14.367-9.961-19.299-18.311C820.658,301.998,818.193,291.549,818.193,279z M851.372,279.146
	c0,10.84,2.014,18.629,6.043,23.364c4.027,4.736,9.509,7.104,16.442,7.104c7.129,0,12.646-2.318,16.553-6.958
	c3.906-4.639,5.859-12.964,5.859-24.976c0-10.107-2.039-17.492-6.116-22.156c-4.077-4.662-9.606-6.994-16.589-6.994
	c-6.69,0-12.061,2.369-16.113,7.104C853.397,260.372,851.372,268.208,851.372,279.146z"/>
<path display="none" fill="#FFFFFF" d="M165.423,72.373v10.339c-15.318,2.912-26.616,8.311-33.889,16.198
	c-7.277,7.891-10.914,16.887-10.914,26.996c0,10.264,1.838,23.015,5.514,38.254c3.676,15.243,5.514,28.529,5.514,39.862
	c0,10.418-3.102,21.022-9.305,31.821c-6.203,10.798-15.128,20.028-26.766,27.686c-8.121,5.363-21.062,10.418-38.829,15.164
	c18.991,5.973,32.776,11.872,41.356,17.691c11.333,7.812,19.834,17.002,25.502,27.57c5.665,10.568,8.501,20.603,8.501,30.098
	c0,9.19-1.877,21.446-5.629,36.761c-3.755,15.314-5.629,28.64-5.629,39.977c0,10.874,3.482,20.255,10.454,28.146
	c6.968,7.887,18.341,13.361,34.119,16.427v10.799h-8.042c-15.624,0.15-30.442-3.446-44.458-10.799
	c-14.015-7.352-24.583-16.812-31.706-28.374c-7.122-11.567-10.684-22.785-10.684-33.659c0-10.568,2.373-25.043,7.123-43.424
	c3.521-13.631,5.284-25.808,5.284-36.53c0-12.098-3.83-22.401-11.487-30.901c-7.661-8.501-18.84-13.976-33.544-16.428v-14.015
	c14.705-2.449,25.883-8.117,33.544-17.002c7.657-8.881,11.487-19.68,11.487-32.396c0-10.414-1.687-22.131-5.054-35.152
	c-4.75-18.226-7.123-32.086-7.123-41.585c0-9.955,2.987-20.063,8.96-30.327c5.974-10.26,13.477-18.61,22.516-25.043
	c9.036-6.433,18.916-11.104,29.638-14.015C140.15,74.21,151.329,72.832,165.423,72.373z"/>
<path display="none" fill="#FFFFFF" d="M902.059,486.159V475.59c15.164-2.912,26.422-8.312,33.773-16.198
	c7.353-7.891,11.028-16.887,11.028-26.996s-1.838-22.785-5.515-38.024c-3.676-15.238-5.514-28.525-5.514-39.862
	c0-10.568,3.063-21.252,9.19-32.05c6.124-10.799,15.085-20.024,26.882-27.686c8.116-5.205,21.058-10.26,38.828-15.164
	c-18.994-5.974-32.779-11.868-41.355-17.691c-11.488-7.812-20.068-17.002-25.732-27.57c-5.669-10.569-8.502-20.599-8.502-30.098
	c0-9.19,1.875-21.443,5.629-36.761c3.752-15.314,5.629-28.565,5.629-39.748c0-11.028-3.445-20.448-10.338-28.26
	s-18.23-13.326-34.004-16.542V72.373l8.041-0.229c15.469-0.151,30.248,3.446,44.343,10.798
	c14.091,7.352,24.698,16.812,31.821,28.375c7.122,11.566,10.684,22.86,10.684,33.889c0,10.418-2.377,24.813-7.123,43.194
	c-3.525,13.634-5.284,25.811-5.284,36.531c0,12.102,3.791,22.44,11.373,31.017c7.581,8.58,18.8,14.015,33.659,16.313v14.015
	c-14.859,2.452-26.078,8.12-33.659,17.002c-7.582,8.885-11.373,19.684-11.373,32.395c0,10.418,1.684,22.136,5.055,35.152
	c4.595,18.229,6.893,32.087,6.893,41.586c0,10.109-2.951,20.254-8.846,30.442c-5.897,10.185-13.365,18.495-22.401,24.928
	c-9.039,6.434-18.918,11.104-29.638,14.016C927.333,484.09,916.149,485.544,902.059,486.159z"/>
<path display="none" fill="#FFFFFF" d="M101.799,528.477v21.563c0,1.68,0.122,2.799,0.366,3.355
	c0.244,0.557,0.605,0.971,1.084,1.244c0.479,0.273,1.352,0.41,2.622,0.41v1.055H92.834v-1.055c1.308,0,2.187-0.127,2.637-0.381
	c0.449-0.254,0.806-0.674,1.069-1.26s0.396-1.709,0.396-3.369v-10.342c0-2.91-0.088-4.795-0.264-5.654
	c-0.137-0.625-0.352-1.059-0.645-1.303s-0.693-0.367-1.201-0.367c-0.547,0-1.211,0.146-1.992,0.439l-0.41-1.055l8.086-3.281H101.799
	z M99.367,514.444c0.82,0,1.519,0.289,2.095,0.865c0.576,0.576,0.864,1.273,0.864,2.094s-0.289,1.523-0.864,2.109
	c-0.576,0.586-1.274,0.879-2.095,0.879s-1.523-0.293-2.109-0.879s-0.879-1.289-0.879-2.109s0.288-1.518,0.864-2.094
	C97.819,514.733,98.527,514.444,99.367,514.444z"/>
<path display="none" fill="#FFFFFF" d="M117.033,534.161c3.145-3.789,6.142-5.684,8.994-5.684c1.465,0,2.725,0.367,3.779,1.1
	s1.894,1.938,2.52,3.617c0.429,1.172,0.645,2.969,0.645,5.391v11.455c0,1.699,0.136,2.852,0.41,3.457
	c0.215,0.488,0.561,0.869,1.04,1.143c0.479,0.273,1.362,0.41,2.651,0.41v1.055h-13.271v-1.055h0.557c1.25,0,2.124-0.189,2.622-0.57
	s0.845-0.943,1.04-1.686c0.078-0.293,0.117-1.211,0.117-2.754v-10.986c0-2.441-0.318-4.213-0.952-5.316
	c-0.635-1.104-1.704-1.656-3.208-1.656c-2.325,0-4.639,1.27-6.943,3.809v14.15c0,1.816,0.107,2.939,0.322,3.369
	c0.273,0.566,0.649,0.982,1.128,1.246c0.479,0.264,1.45,0.395,2.915,0.395v1.055h-13.271v-1.055h0.586
	c1.367,0,2.29-0.346,2.769-1.039c0.479-0.693,0.718-2.018,0.718-3.971v-9.961c0-3.223-0.073-5.186-0.22-5.889
	s-0.371-1.182-0.674-1.436c-0.303-0.254-0.708-0.381-1.216-0.381c-0.547,0-1.201,0.146-1.963,0.439l-0.439-1.055l8.086-3.281h1.26
	V534.161z"/>
<path display="none" fill="#FFFFFF" d="M147.033,534.161c3.145-3.789,6.142-5.684,8.994-5.684c1.465,0,2.725,0.367,3.779,1.1
	s1.894,1.938,2.52,3.617c0.429,1.172,0.645,2.969,0.645,5.391v11.455c0,1.699,0.136,2.852,0.41,3.457
	c0.215,0.488,0.561,0.869,1.04,1.143c0.479,0.273,1.362,0.41,2.651,0.41v1.055h-13.271v-1.055h0.557c1.25,0,2.124-0.189,2.622-0.57
	s0.845-0.943,1.04-1.686c0.078-0.293,0.117-1.211,0.117-2.754v-10.986c0-2.441-0.318-4.213-0.952-5.316
	c-0.635-1.104-1.704-1.656-3.208-1.656c-2.325,0-4.639,1.27-6.943,3.809v14.15c0,1.816,0.107,2.939,0.322,3.369
	c0.273,0.566,0.649,0.982,1.128,1.246c0.479,0.264,1.45,0.395,2.915,0.395v1.055h-13.271v-1.055h0.586
	c1.367,0,2.29-0.346,2.769-1.039c0.479-0.693,0.718-2.018,0.718-3.971v-9.961c0-3.223-0.073-5.186-0.22-5.889
	s-0.371-1.182-0.674-1.436c-0.303-0.254-0.708-0.381-1.216-0.381c-0.547,0-1.201,0.146-1.963,0.439l-0.439-1.055l8.086-3.281h1.26
	V534.161z"/>
<path display="none" fill="#FFFFFF" d="M182.336,528.477c4.062,0,7.324,1.543,9.785,4.629c2.09,2.637,3.135,5.664,3.135,9.082
	c0,2.402-0.576,4.834-1.729,7.295c-1.153,2.461-2.739,4.316-4.761,5.566s-4.273,1.875-6.753,1.875c-4.043,0-7.256-1.611-9.639-4.834
	c-2.012-2.715-3.018-5.762-3.018-9.141c0-2.461,0.61-4.906,1.831-7.338c1.22-2.432,2.827-4.229,4.819-5.391
	S180.109,528.477,182.336,528.477z M181.428,530.381c-1.036,0-2.076,0.309-3.12,0.924c-1.045,0.615-1.89,1.693-2.534,3.236
	s-0.967,3.525-0.967,5.947c0,3.906,0.776,7.275,2.329,10.107s3.599,4.248,6.138,4.248c1.894,0,3.457-0.781,4.688-2.344
	s1.846-4.248,1.846-8.057c0-4.766-1.025-8.516-3.076-11.25C185.343,531.319,183.576,530.381,181.428,530.381z"/>
<path display="none" fill="#FFFFFF" d="M197.834,529.268h12.627v1.084h-0.82c-0.762,0-1.343,0.186-1.743,0.557
	c-0.4,0.371-0.601,0.869-0.601,1.494c0,0.684,0.205,1.494,0.615,2.432l6.24,14.824l6.27-15.381c0.449-1.094,0.674-1.924,0.674-2.49
	c0-0.273-0.078-0.498-0.234-0.674c-0.215-0.293-0.488-0.492-0.82-0.6c-0.333-0.107-1.006-0.162-2.021-0.162v-1.084h8.76v1.084
	c-1.016,0.078-1.719,0.283-2.109,0.615c-0.684,0.586-1.299,1.563-1.846,2.93l-9.521,23.027h-1.201l-9.58-22.646
	c-0.43-1.055-0.84-1.811-1.23-2.27c-0.391-0.459-0.889-0.846-1.494-1.158c-0.333-0.176-0.986-0.342-1.963-0.498V529.268z"/>
<path display="none" fill="#FFFFFF" d="M244.416,552.237c-2.754,2.129-4.482,3.359-5.186,3.691
	c-1.055,0.488-2.178,0.732-3.369,0.732c-1.856,0-3.384-0.635-4.585-1.904s-1.802-2.939-1.802-5.01c0-1.309,0.293-2.441,0.879-3.398
	c0.801-1.328,2.192-2.578,4.175-3.75c1.982-1.172,5.278-2.598,9.888-4.277v-1.055c0-2.676-0.425-4.512-1.274-5.508
	s-2.085-1.494-3.706-1.494c-1.23,0-2.208,0.332-2.93,0.996c-0.743,0.664-1.113,1.426-1.113,2.285l0.059,1.699
	c0,0.898-0.23,1.592-0.688,2.08c-0.459,0.488-1.06,0.732-1.802,0.732c-0.723,0-1.314-0.254-1.772-0.762
	c-0.459-0.508-0.688-1.201-0.688-2.08c0-1.68,0.859-3.223,2.578-4.629c1.718-1.406,4.131-2.109,7.236-2.109
	c2.383,0,4.336,0.4,5.859,1.201c1.152,0.605,2.002,1.553,2.549,2.842c0.352,0.84,0.527,2.559,0.527,5.156v9.111
	c0,2.559,0.048,4.127,0.146,4.703c0.098,0.576,0.259,0.961,0.483,1.156c0.224,0.195,0.483,0.293,0.776,0.293
	c0.312,0,0.586-0.068,0.82-0.205c0.41-0.254,1.201-0.967,2.373-2.139v1.641c-2.188,2.93-4.277,4.395-6.27,4.395
	c-0.957,0-1.719-0.332-2.285-0.996C244.728,554.971,244.435,553.838,244.416,552.237z M244.416,550.333v-10.225
	c-2.949,1.172-4.854,2.002-5.713,2.49c-1.543,0.859-2.647,1.758-3.311,2.695c-0.664,0.938-0.996,1.963-0.996,3.076
	c0,1.406,0.42,2.574,1.26,3.502c0.839,0.928,1.806,1.391,2.9,1.391C240.041,553.262,241.994,552.286,244.416,550.333z"/>
<path display="none" fill="#FFFFFF" d="M263.635,520.45v8.818h6.27v2.051h-6.27v17.402c0,1.738,0.249,2.91,0.747,3.516
	s1.138,0.908,1.919,0.908c0.645,0,1.27-0.199,1.875-0.6c0.605-0.4,1.074-0.992,1.406-1.773h1.143
	c-0.684,1.914-1.651,3.355-2.9,4.322c-1.25,0.967-2.539,1.449-3.867,1.449c-0.898,0-1.777-0.248-2.637-0.746
	c-0.86-0.498-1.494-1.211-1.904-2.139s-0.615-2.359-0.615-4.293v-18.047h-4.248v-0.967c1.074-0.43,2.172-1.156,3.296-2.182
	c1.123-1.025,2.124-2.242,3.003-3.648c0.449-0.742,1.074-2.1,1.875-4.072H263.635z"/>
<path display="none" fill="#FFFFFF" d="M281.77,528.477v21.563c0,1.68,0.122,2.799,0.366,3.355c0.244,0.557,0.605,0.971,1.084,1.244
	c0.479,0.273,1.352,0.41,2.622,0.41v1.055h-13.037v-1.055c1.308,0,2.187-0.127,2.637-0.381c0.449-0.254,0.806-0.674,1.069-1.26
	s0.396-1.709,0.396-3.369v-10.342c0-2.91-0.088-4.795-0.264-5.654c-0.137-0.625-0.352-1.059-0.645-1.303s-0.693-0.367-1.201-0.367
	c-0.547,0-1.211,0.146-1.992,0.439l-0.41-1.055l8.086-3.281H281.77z M279.338,514.444c0.82,0,1.519,0.289,2.095,0.865
	c0.576,0.576,0.864,1.273,0.864,2.094s-0.289,1.523-0.864,2.109c-0.576,0.586-1.274,0.879-2.095,0.879s-1.523-0.293-2.109-0.879
	s-0.879-1.289-0.879-2.109s0.288-1.518,0.864-2.094C277.79,514.733,278.498,514.444,279.338,514.444z"/>
<path display="none" fill="#FFFFFF" d="M302.307,528.477c4.062,0,7.324,1.543,9.785,4.629c2.09,2.637,3.135,5.664,3.135,9.082
	c0,2.402-0.576,4.834-1.729,7.295c-1.153,2.461-2.739,4.316-4.761,5.566s-4.273,1.875-6.753,1.875c-4.043,0-7.256-1.611-9.639-4.834
	c-2.012-2.715-3.018-5.762-3.018-9.141c0-2.461,0.61-4.906,1.831-7.338c1.22-2.432,2.827-4.229,4.819-5.391
	S300.08,528.477,302.307,528.477z M301.398,530.381c-1.036,0-2.076,0.309-3.12,0.924c-1.045,0.615-1.89,1.693-2.534,3.236
	s-0.967,3.525-0.967,5.947c0,3.906,0.776,7.275,2.329,10.107s3.599,4.248,6.138,4.248c1.894,0,3.457-0.781,4.688-2.344
	s1.846-4.248,1.846-8.057c0-4.766-1.025-8.516-3.076-11.25C305.314,531.319,303.547,530.381,301.398,530.381z"/>
<path display="none" fill="#FFFFFF" d="M327.004,534.161c3.145-3.789,6.142-5.684,8.994-5.684c1.465,0,2.725,0.367,3.779,1.1
	s1.894,1.938,2.52,3.617c0.429,1.172,0.645,2.969,0.645,5.391v11.455c0,1.699,0.136,2.852,0.41,3.457
	c0.215,0.488,0.561,0.869,1.04,1.143c0.479,0.273,1.362,0.41,2.651,0.41v1.055h-13.271v-1.055h0.557c1.25,0,2.124-0.189,2.622-0.57
	s0.845-0.943,1.04-1.686c0.078-0.293,0.117-1.211,0.117-2.754v-10.986c0-2.441-0.318-4.213-0.952-5.316
	c-0.635-1.104-1.704-1.656-3.208-1.656c-2.325,0-4.639,1.27-6.943,3.809v14.15c0,1.816,0.107,2.939,0.322,3.369
	c0.273,0.566,0.649,0.982,1.128,1.246c0.479,0.264,1.45,0.395,2.915,0.395v1.055h-13.271v-1.055h0.586
	c1.367,0,2.29-0.346,2.769-1.039c0.479-0.693,0.718-2.018,0.718-3.971v-9.961c0-3.223-0.073-5.186-0.22-5.889
	s-0.371-1.182-0.674-1.436c-0.303-0.254-0.708-0.381-1.216-0.381c-0.547,0-1.201,0.146-1.963,0.439l-0.439-1.055l8.086-3.281h1.26
	V534.161z"/>
<path display="none" fill="#FFFFFF" d="M372.033,528.477v6.035c2.246-4.023,4.551-6.035,6.914-6.035
	c1.074,0,1.963,0.328,2.666,0.982s1.055,1.41,1.055,2.27c0,0.762-0.254,1.406-0.762,1.934c-0.508,0.527-1.113,0.791-1.816,0.791
	c-0.684,0-1.45-0.336-2.3-1.01s-1.479-1.012-1.89-1.012c-0.352,0-0.732,0.195-1.143,0.586c-0.879,0.801-1.787,2.119-2.725,3.955
	v12.861c0,1.484,0.186,2.607,0.557,3.369c0.253,0.527,0.703,0.967,1.348,1.318s1.572,0.527,2.783,0.527v1.055h-13.74v-1.055
	c1.367,0,2.383-0.215,3.047-0.645c0.488-0.313,0.83-0.811,1.025-1.494c0.098-0.332,0.146-1.279,0.146-2.842v-10.4
	c0-3.125-0.063-4.984-0.19-5.58c-0.127-0.596-0.362-1.031-0.703-1.305c-0.342-0.273-0.767-0.41-1.274-0.41
	c-0.605,0-1.289,0.146-2.051,0.439l-0.293-1.055l8.115-3.281H372.033z"/>
<path display="none" fill="#FFFFFF" d="M388.674,539.375c-0.02,3.984,0.947,7.109,2.9,9.375c1.953,2.266,4.248,3.398,6.885,3.398
	c1.758,0,3.286-0.482,4.585-1.449c1.299-0.967,2.388-2.623,3.267-4.967l0.908,0.586c-0.41,2.676-1.602,5.113-3.574,7.311
	c-1.973,2.197-4.443,3.295-7.412,3.295c-3.223,0-5.981-1.254-8.276-3.764c-2.295-2.51-3.442-5.885-3.442-10.123
	c0-4.59,1.176-8.168,3.53-10.736c2.354-2.568,5.307-3.854,8.862-3.854c3.007,0,5.479,0.992,7.412,2.975s2.9,4.633,2.9,7.953H388.674
	z M388.674,537.676h12.422c-0.098-1.719-0.303-2.93-0.615-3.633c-0.488-1.094-1.216-1.953-2.183-2.578s-1.978-0.938-3.032-0.938
	c-1.622,0-3.072,0.631-4.351,1.891C389.636,533.678,388.889,535.43,388.674,537.676z"/>
<path display="none" fill="#FFFFFF" d="M409.416,529.268h12.627v1.084h-0.82c-0.762,0-1.343,0.186-1.743,0.557
	c-0.4,0.371-0.601,0.869-0.601,1.494c0,0.684,0.205,1.494,0.615,2.432l6.24,14.824l6.27-15.381c0.449-1.094,0.674-1.924,0.674-2.49
	c0-0.273-0.078-0.498-0.234-0.674c-0.215-0.293-0.488-0.492-0.82-0.6c-0.333-0.107-1.006-0.162-2.021-0.162v-1.084h8.76v1.084
	c-1.016,0.078-1.719,0.283-2.109,0.615c-0.684,0.586-1.299,1.563-1.846,2.93l-9.521,23.027h-1.201l-9.58-22.646
	c-0.43-1.055-0.84-1.811-1.23-2.27c-0.391-0.459-0.889-0.846-1.494-1.158c-0.333-0.176-0.986-0.342-1.963-0.498V529.268z"/>
<path display="none" fill="#FFFFFF" d="M453.918,528.477c4.062,0,7.324,1.543,9.785,4.629c2.09,2.637,3.135,5.664,3.135,9.082
	c0,2.402-0.576,4.834-1.729,7.295c-1.153,2.461-2.739,4.316-4.761,5.566s-4.273,1.875-6.753,1.875c-4.043,0-7.256-1.611-9.639-4.834
	c-2.012-2.715-3.018-5.762-3.018-9.141c0-2.461,0.61-4.906,1.831-7.338c1.22-2.432,2.827-4.229,4.819-5.391
	S451.691,528.477,453.918,528.477z M453.01,530.381c-1.036,0-2.076,0.309-3.12,0.924c-1.045,0.615-1.89,1.693-2.534,3.236
	s-0.967,3.525-0.967,5.947c0,3.906,0.776,7.275,2.329,10.107s3.599,4.248,6.138,4.248c1.894,0,3.457-0.781,4.688-2.344
	s1.846-4.248,1.846-8.057c0-4.766-1.025-8.516-3.076-11.25C456.925,531.319,455.158,530.381,453.01,530.381z"/>
<path display="none" fill="#FFFFFF" d="M480.021,514.444v35.596c0,1.68,0.122,2.793,0.366,3.34c0.244,0.547,0.62,0.963,1.128,1.246
	c0.508,0.283,1.455,0.424,2.842,0.424v1.055h-13.154v-1.055c1.23,0,2.07-0.127,2.52-0.381c0.449-0.254,0.801-0.674,1.055-1.26
	c0.253-0.586,0.381-1.709,0.381-3.369v-24.375c0-3.027-0.069-4.887-0.205-5.58c-0.137-0.693-0.356-1.168-0.659-1.422
	c-0.303-0.254-0.688-0.381-1.157-0.381c-0.508,0-1.153,0.156-1.934,0.469l-0.498-1.025l7.998-3.281H480.021z"/>
<path display="none" fill="#FFFFFF" d="M510.988,529.268v16.26c0,3.105,0.073,5.006,0.22,5.699s0.381,1.176,0.703,1.449
	s0.698,0.41,1.128,0.41c0.605,0,1.289-0.166,2.051-0.498l0.41,1.025l-8.027,3.311h-1.318v-5.684c-2.305,2.5-4.063,4.072-5.273,4.717
	c-1.211,0.645-2.49,0.967-3.838,0.967c-1.504,0-2.808-0.434-3.911-1.303c-1.104-0.869-1.871-1.988-2.3-3.355
	c-0.43-1.367-0.645-3.301-0.645-5.801v-11.982c0-1.27-0.137-2.148-0.41-2.637c-0.274-0.488-0.679-0.863-1.216-1.127
	c-0.538-0.264-1.509-0.387-2.915-0.367v-1.084h9.404v17.959c0,2.5,0.435,4.141,1.304,4.922c0.869,0.781,1.919,1.172,3.149,1.172
	c0.839,0,1.792-0.264,2.856-0.791c1.064-0.527,2.329-1.533,3.794-3.018v-15.205c0-1.523-0.278-2.553-0.835-3.09
	s-1.714-0.826-3.472-0.865v-1.084H510.988z"/>
<path display="none" fill="#FFFFFF" d="M525.256,520.45v8.818h6.27v2.051h-6.27v17.402c0,1.738,0.249,2.91,0.747,3.516
	s1.138,0.908,1.919,0.908c0.645,0,1.27-0.199,1.875-0.6s1.074-0.992,1.406-1.773h1.143c-0.684,1.914-1.65,3.355-2.9,4.322
	s-2.539,1.449-3.867,1.449c-0.898,0-1.777-0.248-2.637-0.746s-1.494-1.211-1.904-2.139s-0.615-2.359-0.615-4.293v-18.047h-4.248
	v-0.967c1.074-0.43,2.173-1.156,3.296-2.182s2.124-2.242,3.003-3.648c0.449-0.742,1.074-2.1,1.875-4.072H525.256z"/>
<path display="none" fill="#FFFFFF" d="M543.391,528.477v21.563c0,1.68,0.121,2.799,0.365,3.355s0.605,0.971,1.084,1.244
	s1.354,0.41,2.623,0.41v1.055h-13.038v-1.055c1.309,0,2.188-0.127,2.637-0.381s0.805-0.674,1.068-1.26s0.396-1.709,0.396-3.369
	v-10.342c0-2.91-0.088-4.795-0.264-5.654c-0.137-0.625-0.352-1.059-0.645-1.303s-0.693-0.367-1.201-0.367
	c-0.547,0-1.211,0.146-1.993,0.439l-0.41-1.055l8.086-3.281H543.391z M540.959,514.444c0.82,0,1.518,0.289,2.094,0.865
	s0.865,1.273,0.865,2.094s-0.289,1.523-0.865,2.109s-1.273,0.879-2.094,0.879s-1.523-0.293-2.109-0.879s-0.879-1.289-0.879-2.109
	s0.287-1.518,0.863-2.094S540.12,514.444,540.959,514.444z"/>
<path display="none" fill="#FFFFFF" d="M563.928,528.477c4.063,0,7.324,1.543,9.785,4.629c2.09,2.637,3.135,5.664,3.135,9.082
	c0,2.402-0.576,4.834-1.729,7.295s-2.74,4.316-4.762,5.566s-4.271,1.875-6.752,1.875c-4.043,0-7.256-1.611-9.639-4.834
	c-2.012-2.715-3.018-5.762-3.018-9.141c0-2.461,0.609-4.906,1.83-7.338s2.828-4.229,4.82-5.391S561.702,528.477,563.928,528.477z
	 M563.02,530.381c-1.035,0-2.076,0.309-3.121,0.924s-1.889,1.693-2.533,3.236s-0.967,3.525-0.967,5.947
	c0,3.906,0.775,7.275,2.328,10.107s3.6,4.248,6.139,4.248c1.895,0,3.457-0.781,4.688-2.344s1.846-4.248,1.846-8.057
	c0-4.766-1.025-8.516-3.076-11.25C566.936,531.319,565.168,530.381,563.02,530.381z"/>
<path display="none" fill="#FFFFFF" d="M588.625,534.161c3.145-3.789,6.143-5.684,8.994-5.684c1.465,0,2.725,0.367,3.779,1.1
	s1.895,1.938,2.52,3.617c0.43,1.172,0.645,2.969,0.645,5.391v11.455c0,1.699,0.137,2.852,0.41,3.457
	c0.215,0.488,0.561,0.869,1.039,1.143s1.363,0.41,2.652,0.41v1.055h-13.271v-1.055h0.557c1.25,0,2.123-0.189,2.621-0.57
	s0.846-0.943,1.041-1.686c0.078-0.293,0.117-1.211,0.117-2.754v-10.986c0-2.441-0.318-4.213-0.953-5.316s-1.703-1.656-3.207-1.656
	c-2.324,0-4.639,1.27-6.943,3.809v14.15c0,1.816,0.107,2.939,0.322,3.369c0.273,0.566,0.648,0.982,1.127,1.246
	s1.451,0.395,2.916,0.395v1.055h-13.271v-1.055h0.586c1.367,0,2.289-0.346,2.768-1.039s0.719-2.018,0.719-3.971v-9.961
	c0-3.223-0.074-5.186-0.221-5.889s-0.371-1.182-0.674-1.436s-0.707-0.381-1.215-0.381c-0.547,0-1.201,0.146-1.963,0.439
	l-0.439-1.055l8.086-3.281h1.26V534.161z"/>
<path display="none" fill="#FFFFFF" d="M620.061,528.477v21.563c0,1.68,0.121,2.799,0.365,3.355s0.605,0.971,1.084,1.244
	s1.354,0.41,2.623,0.41v1.055h-13.037v-1.055c1.309,0,2.188-0.127,2.637-0.381s0.805-0.674,1.068-1.26s0.396-1.709,0.396-3.369
	v-10.342c0-2.91-0.088-4.795-0.264-5.654c-0.137-0.625-0.352-1.059-0.645-1.303s-0.693-0.367-1.201-0.367
	c-0.547,0-1.211,0.146-1.992,0.439l-0.41-1.055l8.086-3.281H620.061z M617.629,514.444c0.82,0,1.518,0.289,2.094,0.865
	s0.865,1.273,0.865,2.094s-0.289,1.523-0.865,2.109s-1.273,0.879-2.094,0.879s-1.523-0.293-2.109-0.879s-0.879-1.289-0.879-2.109
	s0.287-1.518,0.863-2.094S616.79,514.444,617.629,514.444z"/>
<path display="none" fill="#FFFFFF" d="M650.793,547.872l-0.322,8.232h-23.672v-1.055l17.813-23.73h-8.789
	c-1.895,0-3.135,0.123-3.721,0.367s-1.064,0.707-1.436,1.391c-0.527,0.977-0.83,2.188-0.908,3.633h-1.172l0.176-7.441h22.5v1.084
	l-17.988,23.789h9.785c2.051,0,3.441-0.17,4.174-0.512s1.324-0.943,1.773-1.803c0.313-0.625,0.576-1.943,0.791-3.955H650.793z"/>
<path display="none" fill="#FFFFFF" d="M663.362,528.477v21.563c0,1.68,0.121,2.799,0.365,3.355s0.605,0.971,1.084,1.244
	s1.354,0.41,2.623,0.41v1.055h-13.037v-1.055c1.309,0,2.188-0.127,2.637-0.381s0.805-0.674,1.068-1.26s0.396-1.709,0.396-3.369
	v-10.342c0-2.91-0.088-4.795-0.264-5.654c-0.137-0.625-0.352-1.059-0.645-1.303s-0.693-0.367-1.201-0.367
	c-0.547,0-1.211,0.146-1.992,0.439l-0.41-1.055l8.086-3.281H663.362z M660.93,514.444c0.82,0,1.518,0.289,2.094,0.865
	s0.865,1.273,0.865,2.094s-0.289,1.523-0.865,2.109s-1.273,0.879-2.094,0.879s-1.523-0.293-2.109-0.879s-0.879-1.289-0.879-2.109
	s0.287-1.518,0.863-2.094S660.09,514.444,660.93,514.444z"/>
<path display="none" fill="#FFFFFF" d="M678.596,534.161c3.145-3.789,6.143-5.684,8.994-5.684c1.465,0,2.725,0.367,3.779,1.1
	s1.895,1.938,2.52,3.617c0.43,1.172,0.645,2.969,0.645,5.391v11.455c0,1.699,0.137,2.852,0.41,3.457
	c0.215,0.488,0.561,0.869,1.039,1.143s1.363,0.41,2.652,0.41v1.055h-13.271v-1.055h0.557c1.25,0,2.123-0.189,2.621-0.57
	s0.846-0.943,1.041-1.686c0.078-0.293,0.117-1.211,0.117-2.754v-10.986c0-2.441-0.318-4.213-0.953-5.316s-1.703-1.656-3.207-1.656
	c-2.324,0-4.639,1.27-6.943,3.809v14.15c0,1.816,0.107,2.939,0.322,3.369c0.273,0.566,0.648,0.982,1.127,1.246
	s1.451,0.395,2.916,0.395v1.055H669.69v-1.055h0.586c1.367,0,2.289-0.346,2.768-1.039s0.719-2.018,0.719-3.971v-9.961
	c0-3.223-0.074-5.186-0.221-5.889s-0.371-1.182-0.674-1.436s-0.707-0.381-1.215-0.381c-0.547,0-1.201,0.146-1.963,0.439
	l-0.439-1.055l8.086-3.281h1.26V534.161z"/>
<path display="none" fill="#FFFFFF" d="M707.952,546.319c-1.641-0.801-2.9-1.918-3.779-3.354s-1.318-3.023-1.318-4.762
	c0-2.656,1-4.941,3.002-6.855s4.566-2.871,7.691-2.871c2.559,0,4.775,0.625,6.65,1.875h5.684c0.84,0,1.328,0.025,1.465,0.074
	s0.234,0.131,0.293,0.248c0.117,0.176,0.176,0.488,0.176,0.938c0,0.508-0.049,0.859-0.146,1.055
	c-0.059,0.098-0.162,0.176-0.309,0.234s-0.639,0.088-1.479,0.088h-3.486c1.094,1.406,1.641,3.203,1.641,5.391
	c0,2.5-0.957,4.639-2.871,6.416s-4.482,2.666-7.705,2.666c-1.328,0-2.686-0.195-4.072-0.586c-0.859,0.742-1.441,1.393-1.744,1.949
	s-0.453,1.029-0.453,1.42c0,0.332,0.16,0.654,0.482,0.967s0.953,0.537,1.891,0.674c0.547,0.078,1.914,0.146,4.102,0.205
	c4.023,0.098,6.631,0.234,7.822,0.41c1.816,0.254,3.266,0.928,4.35,2.021s1.627,2.441,1.627,4.043c0,2.207-1.035,4.277-3.105,6.211
	c-3.047,2.852-7.021,4.277-11.924,4.277c-3.77,0-6.953-0.85-9.551-2.549c-1.465-0.977-2.197-1.992-2.197-3.047
	c0-0.469,0.107-0.938,0.322-1.406c0.332-0.723,1.016-1.729,2.051-3.018c0.137-0.176,1.133-1.23,2.988-3.164
	c-1.016-0.605-1.734-1.146-2.154-1.625s-0.629-1.021-0.629-1.627c0-0.684,0.277-1.484,0.834-2.402S705.94,547.999,707.952,546.319z
	 M707.659,556.104c-0.918,0.996-1.611,1.924-2.08,2.783s-0.703,1.65-0.703,2.373c0,0.938,0.566,1.758,1.699,2.461
	c1.953,1.211,4.775,1.816,8.467,1.816c3.516,0,6.107-0.619,7.777-1.859s2.506-2.564,2.506-3.971c0-1.016-0.498-1.738-1.494-2.168
	c-1.016-0.43-3.027-0.684-6.035-0.762C713.401,556.661,710.022,556.436,707.659,556.104z M713.049,529.883
	c-1.445,0-2.656,0.576-3.633,1.729s-1.465,2.92-1.465,5.303c0,3.086,0.664,5.479,1.992,7.178c1.016,1.289,2.305,1.934,3.867,1.934
	c1.484,0,2.705-0.557,3.662-1.67s1.436-2.861,1.436-5.244c0-3.105-0.674-5.537-2.021-7.295
	C715.891,530.528,714.612,529.883,713.049,529.883z"/>
<path display="none" fill="#FFFFFF" d="M753.567,520.45v8.818h6.27v2.051h-6.27v17.402c0,1.738,0.248,2.91,0.746,3.516
	s1.139,0.908,1.92,0.908c0.645,0,1.27-0.199,1.875-0.6s1.074-0.992,1.406-1.773h1.143c-0.684,1.914-1.65,3.355-2.9,4.322
	s-2.539,1.449-3.867,1.449c-0.898,0-1.777-0.248-2.637-0.746s-1.494-1.211-1.904-2.139s-0.615-2.359-0.615-4.293v-18.047h-4.248
	v-0.967c1.074-0.43,2.172-1.156,3.295-2.182s2.125-2.242,3.004-3.648c0.449-0.742,1.074-2.1,1.875-4.072H753.567z"/>
<path display="none" fill="#FFFFFF" d="M775.569,528.477c4.063,0,7.324,1.543,9.785,4.629c2.09,2.637,3.135,5.664,3.135,9.082
	c0,2.402-0.576,4.834-1.729,7.295s-2.74,4.316-4.762,5.566s-4.271,1.875-6.752,1.875c-4.043,0-7.256-1.611-9.639-4.834
	c-2.012-2.715-3.018-5.762-3.018-9.141c0-2.461,0.609-4.906,1.83-7.338s2.828-4.229,4.82-5.391S773.342,528.477,775.569,528.477z
	 M774.661,530.381c-1.035,0-2.076,0.309-3.121,0.924s-1.889,1.693-2.533,3.236s-0.967,3.525-0.967,5.947
	c0,3.906,0.775,7.275,2.328,10.107s3.6,4.248,6.139,4.248c1.895,0,3.457-0.781,4.688-2.344s1.846-4.248,1.846-8.057
	c0-4.766-1.025-8.516-3.076-11.25C778.577,531.319,776.809,530.381,774.661,530.381z"/>
<path display="none" fill="#FFFFFF" d="M800.413,534.19c1.953-1.953,3.105-3.076,3.457-3.369c0.879-0.742,1.826-1.318,2.842-1.729
	s2.021-0.615,3.018-0.615c1.68,0,3.125,0.488,4.336,1.465s2.021,2.393,2.432,4.248c2.012-2.344,3.711-3.881,5.098-4.613
	s2.813-1.1,4.277-1.1c1.426,0,2.689,0.367,3.793,1.1s1.979,1.928,2.623,3.588c0.43,1.133,0.645,2.91,0.645,5.332v11.543
	c0,1.68,0.127,2.832,0.381,3.457c0.195,0.43,0.557,0.797,1.084,1.1s1.387,0.453,2.578,0.453v1.055h-13.242v-1.055h0.557
	c1.152,0,2.051-0.225,2.695-0.674c0.449-0.313,0.771-0.811,0.967-1.494c0.078-0.332,0.117-1.279,0.117-2.842v-11.543
	c0-2.188-0.264-3.73-0.791-4.629c-0.762-1.25-1.982-1.875-3.662-1.875c-1.035,0-2.076,0.26-3.121,0.777s-2.309,1.479-3.793,2.885
	l-0.059,0.322l0.059,1.26v12.803c0,1.836,0.102,2.979,0.307,3.428s0.592,0.826,1.158,1.129s1.533,0.453,2.9,0.453v1.055h-13.564
	v-1.055c1.484,0,2.504-0.176,3.061-0.527s0.943-0.879,1.158-1.582c0.098-0.332,0.146-1.299,0.146-2.9v-11.543
	c0-2.188-0.322-3.76-0.967-4.717c-0.859-1.25-2.061-1.875-3.604-1.875c-1.055,0-2.1,0.283-3.135,0.85
	c-1.621,0.859-2.871,1.826-3.75,2.9v14.385c0,1.758,0.121,2.9,0.365,3.428s0.605,0.924,1.084,1.188s1.451,0.395,2.916,0.395v1.055
	h-13.271v-1.055c1.23,0,2.09-0.131,2.578-0.395s0.859-0.684,1.113-1.26s0.381-1.695,0.381-3.355v-10.254
	c0-2.949-0.088-4.854-0.264-5.713c-0.137-0.645-0.352-1.088-0.645-1.332s-0.693-0.367-1.201-0.367c-0.547,0-1.201,0.146-1.963,0.439
	l-0.439-1.055l8.086-3.281h1.26V534.19z"/>
<path display="none" fill="#FFFFFF" d="M852.239,528.477c4.063,0,7.324,1.543,9.785,4.629c2.09,2.637,3.135,5.664,3.135,9.082
	c0,2.402-0.576,4.834-1.729,7.295s-2.74,4.316-4.762,5.566s-4.271,1.875-6.752,1.875c-4.043,0-7.256-1.611-9.639-4.834
	c-2.012-2.715-3.018-5.762-3.018-9.141c0-2.461,0.609-4.906,1.83-7.338s2.828-4.229,4.82-5.391S850.012,528.477,852.239,528.477z
	 M851.331,530.381c-1.035,0-2.076,0.309-3.121,0.924s-1.889,1.693-2.533,3.236s-0.967,3.525-0.967,5.947
	c0,3.906,0.775,7.275,2.328,10.107s3.6,4.248,6.139,4.248c1.895,0,3.457-0.781,4.688-2.344s1.846-4.248,1.846-8.057
	c0-4.766-1.025-8.516-3.076-11.25C855.247,531.319,853.479,530.381,851.331,530.381z"/>
<path display="none" fill="#FFFFFF" d="M876.965,528.477v6.035c2.246-4.023,4.551-6.035,6.914-6.035
	c1.074,0,1.963,0.328,2.666,0.982s1.055,1.41,1.055,2.27c0,0.762-0.254,1.406-0.762,1.934s-1.113,0.791-1.816,0.791
	c-0.684,0-1.451-0.336-2.301-1.01s-1.479-1.012-1.889-1.012c-0.352,0-0.732,0.195-1.143,0.586c-0.879,0.801-1.787,2.119-2.725,3.955
	v12.861c0,1.484,0.186,2.607,0.557,3.369c0.254,0.527,0.703,0.967,1.348,1.318s1.572,0.527,2.783,0.527v1.055h-13.74v-1.055
	c1.367,0,2.383-0.215,3.047-0.645c0.488-0.313,0.83-0.811,1.025-1.494c0.098-0.332,0.146-1.279,0.146-2.842v-10.4
	c0-3.125-0.064-4.984-0.191-5.58s-0.361-1.031-0.703-1.305s-0.766-0.41-1.273-0.41c-0.605,0-1.289,0.146-2.051,0.439l-0.293-1.055
	l8.115-3.281H876.965z"/>
<path display="none" fill="#FFFFFF" d="M896.946,528.477v6.035c2.246-4.023,4.551-6.035,6.914-6.035
	c1.074,0,1.963,0.328,2.666,0.982s1.055,1.41,1.055,2.27c0,0.762-0.254,1.406-0.762,1.934s-1.113,0.791-1.816,0.791
	c-0.684,0-1.451-0.336-2.301-1.01s-1.479-1.012-1.889-1.012c-0.352,0-0.732,0.195-1.143,0.586c-0.879,0.801-1.787,2.119-2.725,3.955
	v12.861c0,1.484,0.186,2.607,0.557,3.369c0.254,0.527,0.703,0.967,1.348,1.318s1.572,0.527,2.783,0.527v1.055h-13.74v-1.055
	c1.367,0,2.383-0.215,3.047-0.645c0.488-0.313,0.83-0.811,1.025-1.494c0.098-0.332,0.146-1.279,0.146-2.842v-10.4
	c0-3.125-0.064-4.984-0.191-5.58s-0.361-1.031-0.703-1.305s-0.766-0.41-1.273-0.41c-0.605,0-1.289,0.146-2.051,0.439l-0.293-1.055
	l8.115-3.281H896.946z"/>
<path display="none" fill="#FFFFFF" d="M922.2,528.477c4.063,0,7.324,1.543,9.785,4.629c2.09,2.637,3.135,5.664,3.135,9.082
	c0,2.402-0.576,4.834-1.729,7.295s-2.74,4.316-4.762,5.566s-4.271,1.875-6.752,1.875c-4.043,0-7.256-1.611-9.639-4.834
	c-2.012-2.715-3.018-5.762-3.018-9.141c0-2.461,0.609-4.906,1.83-7.338s2.828-4.229,4.82-5.391S919.973,528.477,922.2,528.477z
	 M921.292,530.381c-1.035,0-2.076,0.309-3.121,0.924s-1.889,1.693-2.533,3.236s-0.967,3.525-0.967,5.947
	c0,3.906,0.775,7.275,2.328,10.107s3.6,4.248,6.139,4.248c1.895,0,3.457-0.781,4.688-2.344s1.846-4.248,1.846-8.057
	c0-4.766-1.025-8.516-3.076-11.25C925.208,531.319,923.44,530.381,921.292,530.381z"/>
<path display="none" fill="#FFFFFF" d="M937.581,529.268h11.25v1.084c-1.035,0.078-1.715,0.264-2.037,0.557s-0.482,0.713-0.482,1.26
	c0,0.605,0.166,1.338,0.498,2.197l5.742,15.439l5.771-12.568l-1.523-3.955c-0.469-1.172-1.084-1.982-1.846-2.432
	c-0.43-0.273-1.23-0.439-2.402-0.498v-1.084h12.773v1.084c-1.406,0.059-2.402,0.313-2.988,0.762
	c-0.391,0.313-0.586,0.811-0.586,1.494c0,0.391,0.078,0.791,0.234,1.201l6.094,15.41l5.654-14.854
	c0.391-1.055,0.586-1.895,0.586-2.52c0-0.371-0.191-0.703-0.572-0.996s-1.127-0.459-2.24-0.498v-1.084h8.467v1.084
	c-1.699,0.254-2.949,1.406-3.75,3.457l-8.965,23.115h-1.201l-6.709-17.139l-7.822,17.139h-1.084l-8.613-22.559
	c-0.566-1.426-1.123-2.387-1.67-2.885s-1.406-0.875-2.578-1.129V529.268z"/>
<path d="M183.783,264.717l-15.015,52.075c-0.831,2.979-1.245,4.933-1.245,5.859c0,0.538,0.22,1.038,0.659,1.502
	s0.903,0.695,1.392,0.695c0.83,0,1.659-0.366,2.49-1.099c2.197-1.806,4.834-5.078,7.91-9.814l2.49,1.465
	c-7.374,12.843-15.21,19.263-23.511,19.263c-3.175,0-5.702-0.892-7.581-2.674c-1.88-1.781-2.82-4.039-2.82-6.774
	c0-1.806,0.414-4.102,1.245-6.885l10.181-35.01c0.976-3.369,1.465-5.907,1.465-7.617c0-1.073-0.465-2.025-1.392-2.856
	c-0.928-0.83-2.197-1.245-3.809-1.245c-0.732,0-1.611,0.025-2.637,0.073l0.952-2.93l24.829-4.028H183.783z M179.242,231.026
	c3.027,0,5.578,1.051,7.654,3.149c2.075,2.1,3.113,4.64,3.113,7.617c0,2.979-1.051,5.519-3.149,7.617
	c-2.1,2.1-4.64,3.149-7.617,3.149c-2.93,0-5.445-1.05-7.544-3.149c-2.1-2.099-3.149-4.639-3.149-7.617
	c0-2.978,1.037-5.517,3.113-7.617C173.736,232.077,176.263,231.026,179.242,231.026z"/>
<path d="M219.789,264.717l-9.082,31.421c6.103-9.18,10.668-15.454,13.696-18.823c4.442-4.882,8.276-8.203,11.499-9.961
	s6.25-2.637,9.082-2.637c2.538,0,4.711,0.94,6.519,2.819c1.806,1.881,2.71,4.334,2.71,7.361c0,2.735-0.586,6.055-1.758,9.961
	l-9.375,31.274c-0.782,2.735-1.172,4.517-1.172,5.347c0,0.488,0.183,0.928,0.549,1.318c0.366,0.392,0.744,0.586,1.135,0.586
	c0.487,0,1-0.194,1.538-0.586c1.708-1.416,3.442-3.417,5.2-6.006c0.439-0.684,1.146-1.709,2.124-3.076l2.783,1.685
	c-7.178,12.061-14.722,18.091-22.632,18.091c-3.028,0-5.396-0.781-7.104-2.344c-1.71-1.563-2.563-3.516-2.563-5.859
	c0-2.051,0.586-5.102,1.758-9.155l9.155-31.274c0.634-2.051,0.952-3.563,0.952-4.541c0-0.537-0.22-1.013-0.659-1.428
	s-0.952-0.623-1.538-0.623c-1.856,0-4.102,1.271-6.738,3.809c-6.738,6.445-13.257,16.04-19.556,28.784l-6.006,21.753H181.63
	l13.696-47.021c1.318-4.639,1.978-7.935,1.978-9.888c0-0.83-0.196-1.525-0.586-2.087c-0.392-0.562-1.025-1.001-1.904-1.318
	s-2.54-0.477-4.98-0.477l0.806-2.783l24.683-4.321H219.789z"/>
<path d="M295.712,264.717l-9.082,31.421c6.103-9.18,10.668-15.454,13.696-18.823c4.442-4.882,8.276-8.203,11.499-9.961
	s6.25-2.637,9.082-2.637c2.538,0,4.711,0.94,6.519,2.819c1.806,1.881,2.71,4.334,2.71,7.361c0,2.735-0.586,6.055-1.758,9.961
	l-9.375,31.274c-0.782,2.735-1.172,4.517-1.172,5.347c0,0.488,0.183,0.928,0.549,1.318c0.366,0.392,0.744,0.586,1.135,0.586
	c0.487,0,1-0.194,1.538-0.586c1.708-1.416,3.442-3.417,5.2-6.006c0.439-0.684,1.146-1.709,2.124-3.076l2.783,1.685
	c-7.178,12.061-14.722,18.091-22.632,18.091c-3.028,0-5.396-0.781-7.104-2.344c-1.71-1.563-2.563-3.516-2.563-5.859
	c0-2.051,0.586-5.102,1.758-9.155l9.155-31.274c0.634-2.051,0.952-3.563,0.952-4.541c0-0.537-0.22-1.013-0.659-1.428
	s-0.952-0.623-1.538-0.623c-1.856,0-4.102,1.271-6.738,3.809c-6.738,6.445-13.257,16.04-19.556,28.784l-6.006,21.753h-18.677
	l13.696-47.021c1.318-4.639,1.978-7.935,1.978-9.888c0-0.83-0.196-1.525-0.586-2.087c-0.392-0.562-1.025-1.001-1.904-1.318
	s-2.54-0.477-4.98-0.477l0.806-2.783l24.683-4.321H295.712z"/>
<path d="M380.863,264.717c3.856,0,7.482,0.892,10.876,2.673c3.393,1.783,5.957,4.261,7.69,7.435c1.732,3.175,2.6,6.69,2.6,10.547
	c0,7.91-2.21,15.82-6.628,23.73c-4.42,7.91-10.243,14.148-17.468,18.714c-7.227,4.565-14.502,6.848-21.826,6.848
	c-6.641,0-11.781-1.978-15.417-5.933c-3.638-3.955-5.457-8.789-5.457-14.502c0-6.786,1.355-13.147,4.065-19.079
	c2.71-5.934,6.152-11.108,10.327-15.527s8.972-8.008,14.392-10.768C369.438,266.097,375.052,264.717,380.863,264.717z
	 M377.86,268.599c-2.589,0-4.737,0.758-6.445,2.271c-3.418,3.076-7.276,10.267-11.572,21.569
	c-4.297,11.305-6.445,21.497-6.445,30.579c0,2.246,0.683,4.102,2.051,5.566c1.366,1.465,2.978,2.197,4.834,2.197
	c1.904,0,3.589-0.586,5.054-1.758c2.148-1.758,4.785-5.7,7.91-11.829c3.124-6.127,5.688-12.891,7.69-20.287
	c2.001-7.398,3.003-14.173,3.003-20.325c0-2.538-0.611-4.505-1.831-5.896C380.887,269.294,379.472,268.599,377.86,268.599z"/>
<path d="M404.271,297.09l31.567-1.978c0.683,5.127,2.075,9.034,4.175,11.719c3.417,4.347,8.3,6.519,14.648,6.519
	c4.735,0,8.386-1.11,10.95-3.333c2.563-2.221,3.845-4.797,3.845-7.727c0-2.783-1.221-5.273-3.662-7.471
	c-2.442-2.197-8.106-4.272-16.992-6.226c-14.551-3.271-24.928-7.617-31.128-13.037c-6.251-5.42-9.375-12.329-9.375-20.728
	c0-5.518,1.599-10.73,4.797-15.637c3.197-4.907,8.007-8.764,14.429-11.572c6.42-2.807,15.222-4.211,26.404-4.211
	c13.72,0,24.181,2.552,31.384,7.654c7.202,5.103,11.486,13.22,12.854,24.353l-31.274,1.831c-0.831-4.834-2.576-8.35-5.237-10.547
	c-2.662-2.197-6.335-3.296-11.023-3.296c-3.858,0-6.764,0.818-8.716,2.453c-1.954,1.637-2.93,3.626-2.93,5.97
	c0,1.71,0.806,3.248,2.417,4.614c1.562,1.417,5.273,2.735,11.133,3.955c14.502,3.125,24.89,6.287,31.165,9.484
	c6.273,3.199,10.84,7.167,13.696,11.902c2.856,4.736,4.285,10.034,4.285,15.894c0,6.885-1.904,13.232-5.713,19.043
	c-3.809,5.812-9.131,10.218-15.967,13.22c-6.837,3.004-15.454,4.505-25.854,4.505c-18.263,0-30.908-3.516-37.939-10.547
	S405.198,307.93,404.271,297.09z"/>
<path d="M510.81,225.24h88.917v22.925h-55.664v17.065h51.636v21.899h-51.636v21.167h57.275v24.316H510.81V225.24z"/>
<path d="M612.148,332.613V225.24h55.298c10.254,0,18.091,0.879,23.511,2.637s9.789,5.017,13.11,9.778
	c3.32,4.761,4.98,10.559,4.98,17.395c0,5.958-1.271,11.097-3.811,15.417c-2.541,4.322-6.035,7.826-10.479,10.511
	c-2.834,1.71-6.718,3.125-11.652,4.248c3.951,1.32,6.831,2.641,8.637,3.959c1.22,0.88,2.988,2.761,5.307,5.645
	c2.317,2.884,3.867,5.107,4.647,6.671l16.067,31.113h-37.489L662.539,299.8c-2.246-4.248-4.248-7.006-6.006-8.276
	c-2.393-1.659-5.103-2.49-8.13-2.49h-2.93v43.579H612.148z M645.473,268.746h13.989c1.513,0,4.442-0.487,8.789-1.465
	c2.197-0.439,3.991-1.563,5.384-3.369c1.391-1.806,2.087-3.882,2.087-6.226c0-3.467-1.099-6.127-3.296-7.983
	c-2.197-1.855-6.324-2.783-12.378-2.783h-14.575V268.746z"/>
<path d="M707.773,225.24h34.684l24.167,77.271l23.857-77.271h33.674l-39.869,107.373h-35.962L707.773,225.24z"/>
<path d="M818.193,279c0-17.529,4.882-31.176,14.648-40.942c9.766-9.765,23.364-14.648,40.796-14.648
	c17.871,0,31.641,4.797,41.309,14.392c9.668,9.595,14.502,23.035,14.502,40.32c0,12.55-2.112,22.84-6.336,30.871
	c-4.224,8.033-10.326,14.283-18.311,18.75c-7.982,4.469-17.933,6.702-29.846,6.702c-12.11,0-22.132-1.929-30.066-5.786
	c-7.935-3.856-14.367-9.961-19.299-18.311C820.658,301.998,818.193,291.549,818.193,279z M851.372,279.146
	c0,10.84,2.014,18.629,6.043,23.364c4.027,4.736,9.509,7.104,16.442,7.104c7.129,0,12.646-2.318,16.553-6.958
	c3.906-4.639,5.859-12.964,5.859-24.976c0-10.107-2.039-17.492-6.116-22.156c-4.077-4.662-9.606-6.994-16.589-6.994
	c-6.69,0-12.061,2.369-16.113,7.104C853.397,260.372,851.372,268.208,851.372,279.146z"/>
<path d="M165.423,72.373v10.339c-15.318,2.912-26.616,8.311-33.889,16.198c-7.277,7.891-10.914,16.887-10.914,26.996
	c0,10.264,1.838,23.015,5.514,38.254c3.676,15.243,5.514,28.529,5.514,39.862c0,10.418-3.102,21.022-9.305,31.821
	c-6.203,10.798-15.128,20.028-26.766,27.686c-8.121,5.363-21.062,10.418-38.829,15.164c18.991,5.973,32.776,11.872,41.356,17.691
	c11.333,7.812,19.834,17.002,25.502,27.57c5.665,10.568,8.501,20.603,8.501,30.098c0,9.19-1.877,21.446-5.629,36.761
	c-3.755,15.314-5.629,28.64-5.629,39.977c0,10.874,3.482,20.255,10.454,28.146c6.968,7.887,18.341,13.361,34.119,16.427v10.799
	h-8.042c-15.624,0.15-30.442-3.446-44.458-10.799c-14.015-7.352-24.583-16.812-31.706-28.374
	c-7.122-11.567-10.684-22.785-10.684-33.659c0-10.568,2.373-25.043,7.123-43.424c3.521-13.631,5.284-25.808,5.284-36.53
	c0-12.098-3.83-22.401-11.487-30.901c-7.661-8.501-18.84-13.976-33.544-16.428v-14.015c14.705-2.449,25.883-8.117,33.544-17.002
	c7.657-8.881,11.487-19.68,11.487-32.396c0-10.414-1.687-22.131-5.054-35.152c-4.75-18.226-7.123-32.086-7.123-41.585
	c0-9.955,2.987-20.063,8.96-30.327c5.974-10.26,13.477-18.61,22.516-25.043c9.036-6.433,18.916-11.104,29.638-14.015
	C140.15,74.21,151.329,72.832,165.423,72.373z"/>
<path d="M902.059,486.159V475.59c15.164-2.912,26.422-8.312,33.773-16.198c7.353-7.891,11.028-16.887,11.028-26.996
	s-1.838-22.785-5.515-38.024c-3.676-15.238-5.514-28.525-5.514-39.862c0-10.568,3.063-21.252,9.19-32.05
	c6.124-10.799,15.085-20.024,26.882-27.686c8.116-5.205,21.058-10.26,38.828-15.164c-18.994-5.974-32.779-11.868-41.355-17.691
	c-11.488-7.812-20.068-17.002-25.732-27.57c-5.669-10.569-8.502-20.599-8.502-30.098c0-9.19,1.875-21.443,5.629-36.761
	c3.752-15.314,5.629-28.565,5.629-39.748c0-11.028-3.445-20.448-10.338-28.26s-18.23-13.326-34.004-16.542V72.373l8.041-0.229
	c15.469-0.151,30.248,3.446,44.343,10.798c14.091,7.352,24.698,16.812,31.821,28.375c7.122,11.566,10.684,22.86,10.684,33.889
	c0,10.418-2.377,24.813-7.123,43.194c-3.525,13.634-5.284,25.811-5.284,36.531c0,12.102,3.791,22.44,11.373,31.017
	c7.581,8.58,18.8,14.015,33.659,16.313v14.015c-14.859,2.452-26.078,8.12-33.659,17.002c-7.582,8.885-11.373,19.684-11.373,32.395
	c0,10.418,1.684,22.136,5.055,35.152c4.595,18.229,6.893,32.087,6.893,41.586c0,10.109-2.951,20.254-8.846,30.442
	c-5.897,10.185-13.365,18.495-22.401,24.928c-9.039,6.434-18.918,11.104-29.638,14.016
	C927.333,484.09,916.149,485.544,902.059,486.159z"/>
<path d="M101.799,528.477v21.563c0,1.68,0.122,2.799,0.366,3.355c0.244,0.557,0.605,0.971,1.084,1.244
	c0.479,0.273,1.352,0.41,2.622,0.41v1.055H92.834v-1.055c1.308,0,2.187-0.127,2.637-0.381c0.449-0.254,0.806-0.674,1.069-1.26
	s0.396-1.709,0.396-3.369v-10.342c0-2.91-0.088-4.795-0.264-5.654c-0.137-0.625-0.352-1.059-0.645-1.303s-0.693-0.367-1.201-0.367
	c-0.547,0-1.211,0.146-1.992,0.439l-0.41-1.055l8.086-3.281H101.799z M99.367,514.444c0.82,0,1.519,0.289,2.095,0.865
	c0.576,0.576,0.864,1.273,0.864,2.094s-0.289,1.523-0.864,2.109c-0.576,0.586-1.274,0.879-2.095,0.879s-1.523-0.293-2.109-0.879
	s-0.879-1.289-0.879-2.109s0.288-1.518,0.864-2.094C97.819,514.733,98.527,514.444,99.367,514.444z"/>
<path d="M117.033,534.161c3.145-3.789,6.142-5.684,8.994-5.684c1.465,0,2.725,0.367,3.779,1.1s1.894,1.938,2.52,3.617
	c0.429,1.172,0.645,2.969,0.645,5.391v11.455c0,1.699,0.136,2.852,0.41,3.457c0.215,0.488,0.561,0.869,1.04,1.143
	c0.479,0.273,1.362,0.41,2.651,0.41v1.055h-13.271v-1.055h0.557c1.25,0,2.124-0.189,2.622-0.57s0.845-0.943,1.04-1.686
	c0.078-0.293,0.117-1.211,0.117-2.754v-10.986c0-2.441-0.318-4.213-0.952-5.316c-0.635-1.104-1.704-1.656-3.208-1.656
	c-2.325,0-4.639,1.27-6.943,3.809v14.15c0,1.816,0.107,2.939,0.322,3.369c0.273,0.566,0.649,0.982,1.128,1.246
	c0.479,0.264,1.45,0.395,2.915,0.395v1.055h-13.271v-1.055h0.586c1.367,0,2.29-0.346,2.769-1.039
	c0.479-0.693,0.718-2.018,0.718-3.971v-9.961c0-3.223-0.073-5.186-0.22-5.889s-0.371-1.182-0.674-1.436
	c-0.303-0.254-0.708-0.381-1.216-0.381c-0.547,0-1.201,0.146-1.963,0.439l-0.439-1.055l8.086-3.281h1.26V534.161z"/>
<path d="M147.033,534.161c3.145-3.789,6.142-5.684,8.994-5.684c1.465,0,2.725,0.367,3.779,1.1s1.894,1.938,2.52,3.617
	c0.429,1.172,0.645,2.969,0.645,5.391v11.455c0,1.699,0.136,2.852,0.41,3.457c0.215,0.488,0.561,0.869,1.04,1.143
	c0.479,0.273,1.362,0.41,2.651,0.41v1.055h-13.271v-1.055h0.557c1.25,0,2.124-0.189,2.622-0.57s0.845-0.943,1.04-1.686
	c0.078-0.293,0.117-1.211,0.117-2.754v-10.986c0-2.441-0.318-4.213-0.952-5.316c-0.635-1.104-1.704-1.656-3.208-1.656
	c-2.325,0-4.639,1.27-6.943,3.809v14.15c0,1.816,0.107,2.939,0.322,3.369c0.273,0.566,0.649,0.982,1.128,1.246
	c0.479,0.264,1.45,0.395,2.915,0.395v1.055h-13.271v-1.055h0.586c1.367,0,2.29-0.346,2.769-1.039
	c0.479-0.693,0.718-2.018,0.718-3.971v-9.961c0-3.223-0.073-5.186-0.22-5.889s-0.371-1.182-0.674-1.436
	c-0.303-0.254-0.708-0.381-1.216-0.381c-0.547,0-1.201,0.146-1.963,0.439l-0.439-1.055l8.086-3.281h1.26V534.161z"/>
<path d="M182.336,528.477c4.062,0,7.324,1.543,9.785,4.629c2.09,2.637,3.135,5.664,3.135,9.082c0,2.402-0.576,4.834-1.729,7.295
	c-1.153,2.461-2.739,4.316-4.761,5.566s-4.273,1.875-6.753,1.875c-4.043,0-7.256-1.611-9.639-4.834
	c-2.012-2.715-3.018-5.762-3.018-9.141c0-2.461,0.61-4.906,1.831-7.338c1.22-2.432,2.827-4.229,4.819-5.391
	S180.109,528.477,182.336,528.477z M181.428,530.381c-1.036,0-2.076,0.309-3.12,0.924c-1.045,0.615-1.89,1.693-2.534,3.236
	s-0.967,3.525-0.967,5.947c0,3.906,0.776,7.275,2.329,10.107s3.599,4.248,6.138,4.248c1.894,0,3.457-0.781,4.688-2.344
	s1.846-4.248,1.846-8.057c0-4.766-1.025-8.516-3.076-11.25C185.343,531.319,183.576,530.381,181.428,530.381z"/>
<path d="M197.834,529.268h12.627v1.084h-0.82c-0.762,0-1.343,0.186-1.743,0.557c-0.4,0.371-0.601,0.869-0.601,1.494
	c0,0.684,0.205,1.494,0.615,2.432l6.24,14.824l6.27-15.381c0.449-1.094,0.674-1.924,0.674-2.49c0-0.273-0.078-0.498-0.234-0.674
	c-0.215-0.293-0.488-0.492-0.82-0.6c-0.333-0.107-1.006-0.162-2.021-0.162v-1.084h8.76v1.084c-1.016,0.078-1.719,0.283-2.109,0.615
	c-0.684,0.586-1.299,1.563-1.846,2.93l-9.521,23.027h-1.201l-9.58-22.646c-0.43-1.055-0.84-1.811-1.23-2.27
	c-0.391-0.459-0.889-0.846-1.494-1.158c-0.333-0.176-0.986-0.342-1.963-0.498V529.268z"/>
<path d="M244.416,552.237c-2.754,2.129-4.482,3.359-5.186,3.691c-1.055,0.488-2.178,0.732-3.369,0.732
	c-1.856,0-3.384-0.635-4.585-1.904s-1.802-2.939-1.802-5.01c0-1.309,0.293-2.441,0.879-3.398c0.801-1.328,2.192-2.578,4.175-3.75
	c1.982-1.172,5.278-2.598,9.888-4.277v-1.055c0-2.676-0.425-4.512-1.274-5.508s-2.085-1.494-3.706-1.494
	c-1.23,0-2.208,0.332-2.93,0.996c-0.743,0.664-1.113,1.426-1.113,2.285l0.059,1.699c0,0.898-0.23,1.592-0.688,2.08
	c-0.459,0.488-1.06,0.732-1.802,0.732c-0.723,0-1.314-0.254-1.772-0.762c-0.459-0.508-0.688-1.201-0.688-2.08
	c0-1.68,0.859-3.223,2.578-4.629c1.718-1.406,4.131-2.109,7.236-2.109c2.383,0,4.336,0.4,5.859,1.201
	c1.152,0.605,2.002,1.553,2.549,2.842c0.352,0.84,0.527,2.559,0.527,5.156v9.111c0,2.559,0.048,4.127,0.146,4.703
	c0.098,0.576,0.259,0.961,0.483,1.156c0.224,0.195,0.483,0.293,0.776,0.293c0.312,0,0.586-0.068,0.82-0.205
	c0.41-0.254,1.201-0.967,2.373-2.139v1.641c-2.188,2.93-4.277,4.395-6.27,4.395c-0.957,0-1.719-0.332-2.285-0.996
	C244.728,554.971,244.435,553.838,244.416,552.237z M244.416,550.333v-10.225c-2.949,1.172-4.854,2.002-5.713,2.49
	c-1.543,0.859-2.647,1.758-3.311,2.695c-0.664,0.938-0.996,1.963-0.996,3.076c0,1.406,0.42,2.574,1.26,3.502
	c0.839,0.928,1.806,1.391,2.9,1.391C240.041,553.262,241.994,552.286,244.416,550.333z"/>
<path d="M263.635,520.45v8.818h6.27v2.051h-6.27v17.402c0,1.738,0.249,2.91,0.747,3.516s1.138,0.908,1.919,0.908
	c0.645,0,1.27-0.199,1.875-0.6c0.605-0.4,1.074-0.992,1.406-1.773h1.143c-0.684,1.914-1.651,3.355-2.9,4.322
	c-1.25,0.967-2.539,1.449-3.867,1.449c-0.898,0-1.777-0.248-2.637-0.746c-0.86-0.498-1.494-1.211-1.904-2.139
	s-0.615-2.359-0.615-4.293v-18.047h-4.248v-0.967c1.074-0.43,2.172-1.156,3.296-2.182c1.123-1.025,2.124-2.242,3.003-3.648
	c0.449-0.742,1.074-2.1,1.875-4.072H263.635z"/>
<path d="M281.77,528.477v21.563c0,1.68,0.122,2.799,0.366,3.355c0.244,0.557,0.605,0.971,1.084,1.244
	c0.479,0.273,1.352,0.41,2.622,0.41v1.055h-13.037v-1.055c1.308,0,2.187-0.127,2.637-0.381c0.449-0.254,0.806-0.674,1.069-1.26
	s0.396-1.709,0.396-3.369v-10.342c0-2.91-0.088-4.795-0.264-5.654c-0.137-0.625-0.352-1.059-0.645-1.303s-0.693-0.367-1.201-0.367
	c-0.547,0-1.211,0.146-1.992,0.439l-0.41-1.055l8.086-3.281H281.77z M279.338,514.444c0.82,0,1.519,0.289,2.095,0.865
	c0.576,0.576,0.864,1.273,0.864,2.094s-0.289,1.523-0.864,2.109c-0.576,0.586-1.274,0.879-2.095,0.879s-1.523-0.293-2.109-0.879
	s-0.879-1.289-0.879-2.109s0.288-1.518,0.864-2.094C277.79,514.733,278.498,514.444,279.338,514.444z"/>
<path d="M302.307,528.477c4.062,0,7.324,1.543,9.785,4.629c2.09,2.637,3.135,5.664,3.135,9.082c0,2.402-0.576,4.834-1.729,7.295
	c-1.153,2.461-2.739,4.316-4.761,5.566s-4.273,1.875-6.753,1.875c-4.043,0-7.256-1.611-9.639-4.834
	c-2.012-2.715-3.018-5.762-3.018-9.141c0-2.461,0.61-4.906,1.831-7.338c1.22-2.432,2.827-4.229,4.819-5.391
	S300.08,528.477,302.307,528.477z M301.398,530.381c-1.036,0-2.076,0.309-3.12,0.924c-1.045,0.615-1.89,1.693-2.534,3.236
	s-0.967,3.525-0.967,5.947c0,3.906,0.776,7.275,2.329,10.107s3.599,4.248,6.138,4.248c1.894,0,3.457-0.781,4.688-2.344
	s1.846-4.248,1.846-8.057c0-4.766-1.025-8.516-3.076-11.25C305.314,531.319,303.547,530.381,301.398,530.381z"/>
<path d="M327.004,534.161c3.145-3.789,6.142-5.684,8.994-5.684c1.465,0,2.725,0.367,3.779,1.1s1.894,1.938,2.52,3.617
	c0.429,1.172,0.645,2.969,0.645,5.391v11.455c0,1.699,0.136,2.852,0.41,3.457c0.215,0.488,0.561,0.869,1.04,1.143
	c0.479,0.273,1.362,0.41,2.651,0.41v1.055h-13.271v-1.055h0.557c1.25,0,2.124-0.189,2.622-0.57s0.845-0.943,1.04-1.686
	c0.078-0.293,0.117-1.211,0.117-2.754v-10.986c0-2.441-0.318-4.213-0.952-5.316c-0.635-1.104-1.704-1.656-3.208-1.656
	c-2.325,0-4.639,1.27-6.943,3.809v14.15c0,1.816,0.107,2.939,0.322,3.369c0.273,0.566,0.649,0.982,1.128,1.246
	c0.479,0.264,1.45,0.395,2.915,0.395v1.055h-13.271v-1.055h0.586c1.367,0,2.29-0.346,2.769-1.039
	c0.479-0.693,0.718-2.018,0.718-3.971v-9.961c0-3.223-0.073-5.186-0.22-5.889s-0.371-1.182-0.674-1.436
	c-0.303-0.254-0.708-0.381-1.216-0.381c-0.547,0-1.201,0.146-1.963,0.439l-0.439-1.055l8.086-3.281h1.26V534.161z"/>
<path d="M372.033,528.477v6.035c2.246-4.023,4.551-6.035,6.914-6.035c1.074,0,1.963,0.328,2.666,0.982s1.055,1.41,1.055,2.27
	c0,0.762-0.254,1.406-0.762,1.934c-0.508,0.527-1.113,0.791-1.816,0.791c-0.684,0-1.45-0.336-2.3-1.01s-1.479-1.012-1.89-1.012
	c-0.352,0-0.732,0.195-1.143,0.586c-0.879,0.801-1.787,2.119-2.725,3.955v12.861c0,1.484,0.186,2.607,0.557,3.369
	c0.253,0.527,0.703,0.967,1.348,1.318s1.572,0.527,2.783,0.527v1.055h-13.74v-1.055c1.367,0,2.383-0.215,3.047-0.645
	c0.488-0.313,0.83-0.811,1.025-1.494c0.098-0.332,0.146-1.279,0.146-2.842v-10.4c0-3.125-0.063-4.984-0.19-5.58
	c-0.127-0.596-0.362-1.031-0.703-1.305c-0.342-0.273-0.767-0.41-1.274-0.41c-0.605,0-1.289,0.146-2.051,0.439l-0.293-1.055
	l8.115-3.281H372.033z"/>
<path d="M388.674,539.375c-0.02,3.984,0.947,7.109,2.9,9.375c1.953,2.266,4.248,3.398,6.885,3.398c1.758,0,3.286-0.482,4.585-1.449
	c1.299-0.967,2.388-2.623,3.267-4.967l0.908,0.586c-0.41,2.676-1.602,5.113-3.574,7.311c-1.973,2.197-4.443,3.295-7.412,3.295
	c-3.223,0-5.981-1.254-8.276-3.764c-2.295-2.51-3.442-5.885-3.442-10.123c0-4.59,1.176-8.168,3.53-10.736
	c2.354-2.568,5.307-3.854,8.862-3.854c3.007,0,5.479,0.992,7.412,2.975s2.9,4.633,2.9,7.953H388.674z M388.674,537.676h12.422
	c-0.098-1.719-0.303-2.93-0.615-3.633c-0.488-1.094-1.216-1.953-2.183-2.578s-1.978-0.938-3.032-0.938
	c-1.622,0-3.072,0.631-4.351,1.891C389.636,533.678,388.889,535.43,388.674,537.676z"/>
<path d="M409.416,529.268h12.627v1.084h-0.82c-0.762,0-1.343,0.186-1.743,0.557c-0.4,0.371-0.601,0.869-0.601,1.494
	c0,0.684,0.205,1.494,0.615,2.432l6.24,14.824l6.27-15.381c0.449-1.094,0.674-1.924,0.674-2.49c0-0.273-0.078-0.498-0.234-0.674
	c-0.215-0.293-0.488-0.492-0.82-0.6c-0.333-0.107-1.006-0.162-2.021-0.162v-1.084h8.76v1.084c-1.016,0.078-1.719,0.283-2.109,0.615
	c-0.684,0.586-1.299,1.563-1.846,2.93l-9.521,23.027h-1.201l-9.58-22.646c-0.43-1.055-0.84-1.811-1.23-2.27
	c-0.391-0.459-0.889-0.846-1.494-1.158c-0.333-0.176-0.986-0.342-1.963-0.498V529.268z"/>
<path d="M453.918,528.477c4.062,0,7.324,1.543,9.785,4.629c2.09,2.637,3.135,5.664,3.135,9.082c0,2.402-0.576,4.834-1.729,7.295
	c-1.153,2.461-2.739,4.316-4.761,5.566s-4.273,1.875-6.753,1.875c-4.043,0-7.256-1.611-9.639-4.834
	c-2.012-2.715-3.018-5.762-3.018-9.141c0-2.461,0.61-4.906,1.831-7.338c1.22-2.432,2.827-4.229,4.819-5.391
	S451.691,528.477,453.918,528.477z M453.01,530.381c-1.036,0-2.076,0.309-3.12,0.924c-1.045,0.615-1.89,1.693-2.534,3.236
	s-0.967,3.525-0.967,5.947c0,3.906,0.776,7.275,2.329,10.107s3.599,4.248,6.138,4.248c1.894,0,3.457-0.781,4.688-2.344
	s1.846-4.248,1.846-8.057c0-4.766-1.025-8.516-3.076-11.25C456.925,531.319,455.158,530.381,453.01,530.381z"/>
<path d="M480.021,514.444v35.596c0,1.68,0.122,2.793,0.366,3.34c0.244,0.547,0.62,0.963,1.128,1.246
	c0.508,0.283,1.455,0.424,2.842,0.424v1.055h-13.154v-1.055c1.23,0,2.07-0.127,2.52-0.381c0.449-0.254,0.801-0.674,1.055-1.26
	c0.253-0.586,0.381-1.709,0.381-3.369v-24.375c0-3.027-0.069-4.887-0.205-5.58c-0.137-0.693-0.356-1.168-0.659-1.422
	c-0.303-0.254-0.688-0.381-1.157-0.381c-0.508,0-1.153,0.156-1.934,0.469l-0.498-1.025l7.998-3.281H480.021z"/>
<path d="M510.988,529.268v16.26c0,3.105,0.073,5.006,0.22,5.699s0.381,1.176,0.703,1.449s0.698,0.41,1.128,0.41
	c0.605,0,1.289-0.166,2.051-0.498l0.41,1.025l-8.027,3.311h-1.318v-5.684c-2.305,2.5-4.063,4.072-5.273,4.717
	c-1.211,0.645-2.49,0.967-3.838,0.967c-1.504,0-2.808-0.434-3.911-1.303c-1.104-0.869-1.871-1.988-2.3-3.355
	c-0.43-1.367-0.645-3.301-0.645-5.801v-11.982c0-1.27-0.137-2.148-0.41-2.637c-0.274-0.488-0.679-0.863-1.216-1.127
	c-0.538-0.264-1.509-0.387-2.915-0.367v-1.084h9.404v17.959c0,2.5,0.435,4.141,1.304,4.922c0.869,0.781,1.919,1.172,3.149,1.172
	c0.839,0,1.792-0.264,2.856-0.791c1.064-0.527,2.329-1.533,3.794-3.018v-15.205c0-1.523-0.278-2.553-0.835-3.09
	s-1.714-0.826-3.472-0.865v-1.084H510.988z"/>
<path d="M525.256,520.45v8.818h6.27v2.051h-6.27v17.402c0,1.738,0.249,2.91,0.747,3.516s1.138,0.908,1.919,0.908
	c0.645,0,1.27-0.199,1.875-0.6s1.074-0.992,1.406-1.773h1.143c-0.684,1.914-1.65,3.355-2.9,4.322s-2.539,1.449-3.867,1.449
	c-0.898,0-1.777-0.248-2.637-0.746s-1.494-1.211-1.904-2.139s-0.615-2.359-0.615-4.293v-18.047h-4.248v-0.967
	c1.074-0.43,2.173-1.156,3.296-2.182s2.124-2.242,3.003-3.648c0.449-0.742,1.074-2.1,1.875-4.072H525.256z"/>
<path d="M543.391,528.477v21.563c0,1.68,0.121,2.799,0.365,3.355s0.605,0.971,1.084,1.244s1.354,0.41,2.623,0.41v1.055h-13.038
	v-1.055c1.309,0,2.188-0.127,2.637-0.381s0.805-0.674,1.068-1.26s0.396-1.709,0.396-3.369v-10.342c0-2.91-0.088-4.795-0.264-5.654
	c-0.137-0.625-0.352-1.059-0.645-1.303s-0.693-0.367-1.201-0.367c-0.547,0-1.211,0.146-1.993,0.439l-0.41-1.055l8.086-3.281H543.391
	z M540.959,514.444c0.82,0,1.518,0.289,2.094,0.865s0.865,1.273,0.865,2.094s-0.289,1.523-0.865,2.109s-1.273,0.879-2.094,0.879
	s-1.523-0.293-2.109-0.879s-0.879-1.289-0.879-2.109s0.287-1.518,0.863-2.094S540.12,514.444,540.959,514.444z"/>
<path d="M563.928,528.477c4.063,0,7.324,1.543,9.785,4.629c2.09,2.637,3.135,5.664,3.135,9.082c0,2.402-0.576,4.834-1.729,7.295
	s-2.74,4.316-4.762,5.566s-4.271,1.875-6.752,1.875c-4.043,0-7.256-1.611-9.639-4.834c-2.012-2.715-3.018-5.762-3.018-9.141
	c0-2.461,0.609-4.906,1.83-7.338s2.828-4.229,4.82-5.391S561.702,528.477,563.928,528.477z M563.02,530.381
	c-1.035,0-2.076,0.309-3.121,0.924s-1.889,1.693-2.533,3.236s-0.967,3.525-0.967,5.947c0,3.906,0.775,7.275,2.328,10.107
	s3.6,4.248,6.139,4.248c1.895,0,3.457-0.781,4.688-2.344s1.846-4.248,1.846-8.057c0-4.766-1.025-8.516-3.076-11.25
	C566.936,531.319,565.168,530.381,563.02,530.381z"/>
<path d="M588.625,534.161c3.145-3.789,6.143-5.684,8.994-5.684c1.465,0,2.725,0.367,3.779,1.1s1.895,1.938,2.52,3.617
	c0.43,1.172,0.645,2.969,0.645,5.391v11.455c0,1.699,0.137,2.852,0.41,3.457c0.215,0.488,0.561,0.869,1.039,1.143
	s1.363,0.41,2.652,0.41v1.055h-13.271v-1.055h0.557c1.25,0,2.123-0.189,2.621-0.57s0.846-0.943,1.041-1.686
	c0.078-0.293,0.117-1.211,0.117-2.754v-10.986c0-2.441-0.318-4.213-0.953-5.316s-1.703-1.656-3.207-1.656
	c-2.324,0-4.639,1.27-6.943,3.809v14.15c0,1.816,0.107,2.939,0.322,3.369c0.273,0.566,0.648,0.982,1.127,1.246
	s1.451,0.395,2.916,0.395v1.055h-13.271v-1.055h0.586c1.367,0,2.289-0.346,2.768-1.039s0.719-2.018,0.719-3.971v-9.961
	c0-3.223-0.074-5.186-0.221-5.889s-0.371-1.182-0.674-1.436s-0.707-0.381-1.215-0.381c-0.547,0-1.201,0.146-1.963,0.439
	l-0.439-1.055l8.086-3.281h1.26V534.161z"/>
<path d="M620.061,528.477v21.563c0,1.68,0.121,2.799,0.365,3.355s0.605,0.971,1.084,1.244s1.354,0.41,2.623,0.41v1.055h-13.037
	v-1.055c1.309,0,2.188-0.127,2.637-0.381s0.805-0.674,1.068-1.26s0.396-1.709,0.396-3.369v-10.342c0-2.91-0.088-4.795-0.264-5.654
	c-0.137-0.625-0.352-1.059-0.645-1.303s-0.693-0.367-1.201-0.367c-0.547,0-1.211,0.146-1.992,0.439l-0.41-1.055l8.086-3.281H620.061
	z M617.629,514.444c0.82,0,1.518,0.289,2.094,0.865s0.865,1.273,0.865,2.094s-0.289,1.523-0.865,2.109s-1.273,0.879-2.094,0.879
	s-1.523-0.293-2.109-0.879s-0.879-1.289-0.879-2.109s0.287-1.518,0.863-2.094S616.79,514.444,617.629,514.444z"/>
<path d="M650.793,547.872l-0.322,8.232h-23.672v-1.055l17.813-23.73h-8.789c-1.895,0-3.135,0.123-3.721,0.367
	s-1.064,0.707-1.436,1.391c-0.527,0.977-0.83,2.188-0.908,3.633h-1.172l0.176-7.441h22.5v1.084l-17.988,23.789h9.785
	c2.051,0,3.441-0.17,4.174-0.512s1.324-0.943,1.773-1.803c0.313-0.625,0.576-1.943,0.791-3.955H650.793z"/>
<path d="M663.362,528.477v21.563c0,1.68,0.121,2.799,0.365,3.355s0.605,0.971,1.084,1.244s1.354,0.41,2.623,0.41v1.055h-13.037
	v-1.055c1.309,0,2.188-0.127,2.637-0.381s0.805-0.674,1.068-1.26s0.396-1.709,0.396-3.369v-10.342c0-2.91-0.088-4.795-0.264-5.654
	c-0.137-0.625-0.352-1.059-0.645-1.303s-0.693-0.367-1.201-0.367c-0.547,0-1.211,0.146-1.992,0.439l-0.41-1.055l8.086-3.281H663.362
	z M660.93,514.444c0.82,0,1.518,0.289,2.094,0.865s0.865,1.273,0.865,2.094s-0.289,1.523-0.865,2.109s-1.273,0.879-2.094,0.879
	s-1.523-0.293-2.109-0.879s-0.879-1.289-0.879-2.109s0.287-1.518,0.863-2.094S660.09,514.444,660.93,514.444z"/>
<path d="M678.596,534.161c3.145-3.789,6.143-5.684,8.994-5.684c1.465,0,2.725,0.367,3.779,1.1s1.895,1.938,2.52,3.617
	c0.43,1.172,0.645,2.969,0.645,5.391v11.455c0,1.699,0.137,2.852,0.41,3.457c0.215,0.488,0.561,0.869,1.039,1.143
	s1.363,0.41,2.652,0.41v1.055h-13.271v-1.055h0.557c1.25,0,2.123-0.189,2.621-0.57s0.846-0.943,1.041-1.686
	c0.078-0.293,0.117-1.211,0.117-2.754v-10.986c0-2.441-0.318-4.213-0.953-5.316s-1.703-1.656-3.207-1.656
	c-2.324,0-4.639,1.27-6.943,3.809v14.15c0,1.816,0.107,2.939,0.322,3.369c0.273,0.566,0.648,0.982,1.127,1.246
	s1.451,0.395,2.916,0.395v1.055H669.69v-1.055h0.586c1.367,0,2.289-0.346,2.768-1.039s0.719-2.018,0.719-3.971v-9.961
	c0-3.223-0.074-5.186-0.221-5.889s-0.371-1.182-0.674-1.436s-0.707-0.381-1.215-0.381c-0.547,0-1.201,0.146-1.963,0.439
	l-0.439-1.055l8.086-3.281h1.26V534.161z"/>
<path d="M707.952,546.319c-1.641-0.801-2.9-1.918-3.779-3.354s-1.318-3.023-1.318-4.762c0-2.656,1-4.941,3.002-6.855
	s4.566-2.871,7.691-2.871c2.559,0,4.775,0.625,6.65,1.875h5.684c0.84,0,1.328,0.025,1.465,0.074s0.234,0.131,0.293,0.248
	c0.117,0.176,0.176,0.488,0.176,0.938c0,0.508-0.049,0.859-0.146,1.055c-0.059,0.098-0.162,0.176-0.309,0.234
	s-0.639,0.088-1.479,0.088h-3.486c1.094,1.406,1.641,3.203,1.641,5.391c0,2.5-0.957,4.639-2.871,6.416s-4.482,2.666-7.705,2.666
	c-1.328,0-2.686-0.195-4.072-0.586c-0.859,0.742-1.441,1.393-1.744,1.949s-0.453,1.029-0.453,1.42c0,0.332,0.16,0.654,0.482,0.967
	s0.953,0.537,1.891,0.674c0.547,0.078,1.914,0.146,4.102,0.205c4.023,0.098,6.631,0.234,7.822,0.41
	c1.816,0.254,3.266,0.928,4.35,2.021s1.627,2.441,1.627,4.043c0,2.207-1.035,4.277-3.105,6.211
	c-3.047,2.852-7.021,4.277-11.924,4.277c-3.77,0-6.953-0.85-9.551-2.549c-1.465-0.977-2.197-1.992-2.197-3.047
	c0-0.469,0.107-0.938,0.322-1.406c0.332-0.723,1.016-1.729,2.051-3.018c0.137-0.176,1.133-1.23,2.988-3.164
	c-1.016-0.605-1.734-1.146-2.154-1.625s-0.629-1.021-0.629-1.627c0-0.684,0.277-1.484,0.834-2.402S705.94,547.999,707.952,546.319z
	 M707.659,556.104c-0.918,0.996-1.611,1.924-2.08,2.783s-0.703,1.65-0.703,2.373c0,0.938,0.566,1.758,1.699,2.461
	c1.953,1.211,4.775,1.816,8.467,1.816c3.516,0,6.107-0.619,7.777-1.859s2.506-2.564,2.506-3.971c0-1.016-0.498-1.738-1.494-2.168
	c-1.016-0.43-3.027-0.684-6.035-0.762C713.401,556.661,710.022,556.436,707.659,556.104z M713.049,529.883
	c-1.445,0-2.656,0.576-3.633,1.729s-1.465,2.92-1.465,5.303c0,3.086,0.664,5.479,1.992,7.178c1.016,1.289,2.305,1.934,3.867,1.934
	c1.484,0,2.705-0.557,3.662-1.67s1.436-2.861,1.436-5.244c0-3.105-0.674-5.537-2.021-7.295
	C715.891,530.528,714.612,529.883,713.049,529.883z"/>
<path d="M753.567,520.45v8.818h6.27v2.051h-6.27v17.402c0,1.738,0.248,2.91,0.746,3.516s1.139,0.908,1.92,0.908
	c0.645,0,1.27-0.199,1.875-0.6s1.074-0.992,1.406-1.773h1.143c-0.684,1.914-1.65,3.355-2.9,4.322s-2.539,1.449-3.867,1.449
	c-0.898,0-1.777-0.248-2.637-0.746s-1.494-1.211-1.904-2.139s-0.615-2.359-0.615-4.293v-18.047h-4.248v-0.967
	c1.074-0.43,2.172-1.156,3.295-2.182s2.125-2.242,3.004-3.648c0.449-0.742,1.074-2.1,1.875-4.072H753.567z"/>
<path d="M775.569,528.477c4.063,0,7.324,1.543,9.785,4.629c2.09,2.637,3.135,5.664,3.135,9.082c0,2.402-0.576,4.834-1.729,7.295
	s-2.74,4.316-4.762,5.566s-4.271,1.875-6.752,1.875c-4.043,0-7.256-1.611-9.639-4.834c-2.012-2.715-3.018-5.762-3.018-9.141
	c0-2.461,0.609-4.906,1.83-7.338s2.828-4.229,4.82-5.391S773.342,528.477,775.569,528.477z M774.661,530.381
	c-1.035,0-2.076,0.309-3.121,0.924s-1.889,1.693-2.533,3.236s-0.967,3.525-0.967,5.947c0,3.906,0.775,7.275,2.328,10.107
	s3.6,4.248,6.139,4.248c1.895,0,3.457-0.781,4.688-2.344s1.846-4.248,1.846-8.057c0-4.766-1.025-8.516-3.076-11.25
	C778.577,531.319,776.809,530.381,774.661,530.381z"/>
<path d="M800.413,534.19c1.953-1.953,3.105-3.076,3.457-3.369c0.879-0.742,1.826-1.318,2.842-1.729s2.021-0.615,3.018-0.615
	c1.68,0,3.125,0.488,4.336,1.465s2.021,2.393,2.432,4.248c2.012-2.344,3.711-3.881,5.098-4.613s2.813-1.1,4.277-1.1
	c1.426,0,2.689,0.367,3.793,1.1s1.979,1.928,2.623,3.588c0.43,1.133,0.645,2.91,0.645,5.332v11.543c0,1.68,0.127,2.832,0.381,3.457
	c0.195,0.43,0.557,0.797,1.084,1.1s1.387,0.453,2.578,0.453v1.055h-13.242v-1.055h0.557c1.152,0,2.051-0.225,2.695-0.674
	c0.449-0.313,0.771-0.811,0.967-1.494c0.078-0.332,0.117-1.279,0.117-2.842v-11.543c0-2.188-0.264-3.73-0.791-4.629
	c-0.762-1.25-1.982-1.875-3.662-1.875c-1.035,0-2.076,0.26-3.121,0.777s-2.309,1.479-3.793,2.885l-0.059,0.322l0.059,1.26v12.803
	c0,1.836,0.102,2.979,0.307,3.428s0.592,0.826,1.158,1.129s1.533,0.453,2.9,0.453v1.055h-13.564v-1.055
	c1.484,0,2.504-0.176,3.061-0.527s0.943-0.879,1.158-1.582c0.098-0.332,0.146-1.299,0.146-2.9v-11.543
	c0-2.188-0.322-3.76-0.967-4.717c-0.859-1.25-2.061-1.875-3.604-1.875c-1.055,0-2.1,0.283-3.135,0.85
	c-1.621,0.859-2.871,1.826-3.75,2.9v14.385c0,1.758,0.121,2.9,0.365,3.428s0.605,0.924,1.084,1.188s1.451,0.395,2.916,0.395v1.055
	h-13.271v-1.055c1.23,0,2.09-0.131,2.578-0.395s0.859-0.684,1.113-1.26s0.381-1.695,0.381-3.355v-10.254
	c0-2.949-0.088-4.854-0.264-5.713c-0.137-0.645-0.352-1.088-0.645-1.332s-0.693-0.367-1.201-0.367c-0.547,0-1.201,0.146-1.963,0.439
	l-0.439-1.055l8.086-3.281h1.26V534.19z"/>
<path d="M852.239,528.477c4.063,0,7.324,1.543,9.785,4.629c2.09,2.637,3.135,5.664,3.135,9.082c0,2.402-0.576,4.834-1.729,7.295
	s-2.74,4.316-4.762,5.566s-4.271,1.875-6.752,1.875c-4.043,0-7.256-1.611-9.639-4.834c-2.012-2.715-3.018-5.762-3.018-9.141
	c0-2.461,0.609-4.906,1.83-7.338s2.828-4.229,4.82-5.391S850.012,528.477,852.239,528.477z M851.331,530.381
	c-1.035,0-2.076,0.309-3.121,0.924s-1.889,1.693-2.533,3.236s-0.967,3.525-0.967,5.947c0,3.906,0.775,7.275,2.328,10.107
	s3.6,4.248,6.139,4.248c1.895,0,3.457-0.781,4.688-2.344s1.846-4.248,1.846-8.057c0-4.766-1.025-8.516-3.076-11.25
	C855.247,531.319,853.479,530.381,851.331,530.381z"/>
<path d="M876.965,528.477v6.035c2.246-4.023,4.551-6.035,6.914-6.035c1.074,0,1.963,0.328,2.666,0.982s1.055,1.41,1.055,2.27
	c0,0.762-0.254,1.406-0.762,1.934s-1.113,0.791-1.816,0.791c-0.684,0-1.451-0.336-2.301-1.01s-1.479-1.012-1.889-1.012
	c-0.352,0-0.732,0.195-1.143,0.586c-0.879,0.801-1.787,2.119-2.725,3.955v12.861c0,1.484,0.186,2.607,0.557,3.369
	c0.254,0.527,0.703,0.967,1.348,1.318s1.572,0.527,2.783,0.527v1.055h-13.74v-1.055c1.367,0,2.383-0.215,3.047-0.645
	c0.488-0.313,0.83-0.811,1.025-1.494c0.098-0.332,0.146-1.279,0.146-2.842v-10.4c0-3.125-0.064-4.984-0.191-5.58
	s-0.361-1.031-0.703-1.305s-0.766-0.41-1.273-0.41c-0.605,0-1.289,0.146-2.051,0.439l-0.293-1.055l8.115-3.281H876.965z"/>
<path d="M896.946,528.477v6.035c2.246-4.023,4.551-6.035,6.914-6.035c1.074,0,1.963,0.328,2.666,0.982s1.055,1.41,1.055,2.27
	c0,0.762-0.254,1.406-0.762,1.934s-1.113,0.791-1.816,0.791c-0.684,0-1.451-0.336-2.301-1.01s-1.479-1.012-1.889-1.012
	c-0.352,0-0.732,0.195-1.143,0.586c-0.879,0.801-1.787,2.119-2.725,3.955v12.861c0,1.484,0.186,2.607,0.557,3.369
	c0.254,0.527,0.703,0.967,1.348,1.318s1.572,0.527,2.783,0.527v1.055h-13.74v-1.055c1.367,0,2.383-0.215,3.047-0.645
	c0.488-0.313,0.83-0.811,1.025-1.494c0.098-0.332,0.146-1.279,0.146-2.842v-10.4c0-3.125-0.064-4.984-0.191-5.58
	s-0.361-1.031-0.703-1.305s-0.766-0.41-1.273-0.41c-0.605,0-1.289,0.146-2.051,0.439l-0.293-1.055l8.115-3.281H896.946z"/>
<path d="M922.2,528.477c4.063,0,7.324,1.543,9.785,4.629c2.09,2.637,3.135,5.664,3.135,9.082c0,2.402-0.576,4.834-1.729,7.295
	s-2.74,4.316-4.762,5.566s-4.271,1.875-6.752,1.875c-4.043,0-7.256-1.611-9.639-4.834c-2.012-2.715-3.018-5.762-3.018-9.141
	c0-2.461,0.609-4.906,1.83-7.338s2.828-4.229,4.82-5.391S919.973,528.477,922.2,528.477z M921.292,530.381
	c-1.035,0-2.076,0.309-3.121,0.924s-1.889,1.693-2.533,3.236s-0.967,3.525-0.967,5.947c0,3.906,0.775,7.275,2.328,10.107
	s3.6,4.248,6.139,4.248c1.895,0,3.457-0.781,4.688-2.344s1.846-4.248,1.846-8.057c0-4.766-1.025-8.516-3.076-11.25
	C925.208,531.319,923.44,530.381,921.292,530.381z"/>
<path d="M937.581,529.268h11.25v1.084c-1.035,0.078-1.715,0.264-2.037,0.557s-0.482,0.713-0.482,1.26
	c0,0.605,0.166,1.338,0.498,2.197l5.742,15.439l5.771-12.568l-1.523-3.955c-0.469-1.172-1.084-1.982-1.846-2.432
	c-0.43-0.273-1.23-0.439-2.402-0.498v-1.084h12.773v1.084c-1.406,0.059-2.402,0.313-2.988,0.762
	c-0.391,0.313-0.586,0.811-0.586,1.494c0,0.391,0.078,0.791,0.234,1.201l6.094,15.41l5.654-14.854
	c0.391-1.055,0.586-1.895,0.586-2.52c0-0.371-0.191-0.703-0.572-0.996s-1.127-0.459-2.24-0.498v-1.084h8.467v1.084
	c-1.699,0.254-2.949,1.406-3.75,3.457l-8.965,23.115h-1.201l-6.709-17.139l-7.822,17.139h-1.084l-8.613-22.559
	c-0.566-1.426-1.123-2.387-1.67-2.885s-1.406-0.875-2.578-1.129V529.268z"/>
</svg>
