<?xml version="1.0" encoding="utf-8"?>
<!-- Generator: Adobe Illustrator 15.1.0, SVG Export Plug-In  -->
<!DOCTYPE svg PUBLIC "-//W3C//DTD SVG 1.1//EN" "http://www.w3.org/Graphics/SVG/1.1/DTD/svg11.dtd" [
	<!ENTITY ns_flows "http://ns.adobe.com/Flows/1.0/">
]>
<svg version="1.1"
	 xmlns="http://www.w3.org/2000/svg" xmlns:xlink="http://www.w3.org/1999/xlink" xmlns:a="http://ns.adobe.com/AdobeSVGViewerExtensions/3.0/"
	 x="0px" y="0px" width="1000px" height="500px" viewBox="64.325 63.501 1000 500" enable-background="new 64.325 63.501 1000 500"
	 xml:space="preserve">
<defs>
</defs>
<text transform="matrix(1 0 0 1 172.9194 331.0562)" display="none"><tspan x="0" y="0" display="inline" font-family="'TimesNewRomanPS-BoldItalicMT'" font-size="150" letter-spacing="-7">inno</tspan><tspan x="253.521" y="0" display="inline" font-family="'Arial-Black'" font-size="150" letter-spacing="-7">SERVO</tspan></text>
<text transform="matrix(1 0 0 1 121.5396 549.4839)" display="none" font-family="'TimesNewRomanPSMT'" font-size="60">innovation revolutionizing tomorrow</text>
<text transform="matrix(1 0 0 1 0 391.0405)" display="none" font-family="'TimesNewRomanPSMT'" font-size="470.5356">{</text>
<text transform="matrix(1 0 0 1 894.7832 391.0405)" display="none" font-family="'TimesNewRomanPSMT'" font-size="470.5356">}</text>
<path fill="#FFFFFF" d="M211.152,263.16l-15.015,52.076c-0.831,2.979-1.245,4.932-1.245,5.859c0,0.537,0.22,1.037,0.659,1.502
	c0.439,0.463,0.903,0.695,1.392,0.695c0.83,0,1.659-0.367,2.49-1.1c2.197-1.805,4.834-5.078,7.91-9.814l2.49,1.465
	c-7.374,12.843-15.21,19.263-23.511,19.263c-3.175,0-5.702-0.893-7.581-2.674c-1.88-1.781-2.82-4.039-2.82-6.775
	c0-1.805,0.414-4.102,1.245-6.885l10.181-35.009c0.976-3.369,1.465-5.907,1.465-7.617c0-1.073-0.465-2.025-1.392-2.856
	c-0.928-0.83-2.197-1.245-3.809-1.245c-0.732,0-1.611,0.025-2.637,0.073l0.952-2.93l24.829-4.028H211.152z M206.611,229.469
	c3.027,0,5.578,1.051,7.654,3.149c2.075,2.1,3.113,4.64,3.113,7.617c0,2.979-1.051,5.519-3.149,7.617
	c-2.1,2.1-4.64,3.149-7.617,3.149c-2.93,0-5.445-1.05-7.544-3.149c-2.1-2.099-3.149-4.639-3.149-7.617
	c0-2.978,1.037-5.517,3.113-7.617C201.105,230.52,203.632,229.469,206.611,229.469z"/>
<path fill="#FFFFFF" d="M247.158,263.16l-9.082,31.421c6.103-9.18,10.668-15.454,13.696-18.823
	c4.442-4.882,8.276-8.203,11.499-9.961s6.25-2.637,9.082-2.637c2.538,0,4.711,0.94,6.519,2.819c1.806,1.881,2.71,4.334,2.71,7.361
	c0,2.735-0.586,6.055-1.758,9.961l-9.375,31.274c-0.782,2.736-1.172,4.518-1.172,5.348c0,0.488,0.183,0.928,0.549,1.318
	s0.744,0.586,1.135,0.586c0.487,0,1-0.195,1.538-0.586c1.708-1.416,3.442-3.418,5.2-6.006c0.439-0.684,1.146-1.709,2.124-3.077
	l2.783,1.685c-7.178,12.06-14.722,18.091-22.632,18.091c-3.028,0-5.396-0.781-7.104-2.344c-1.71-1.563-2.563-3.516-2.563-5.859
	c0-2.051,0.586-5.102,1.758-9.156l9.155-31.274c0.634-2.051,0.952-3.563,0.952-4.541c0-0.537-0.22-1.013-0.659-1.428
	s-0.952-0.623-1.538-0.623c-1.856,0-4.102,1.271-6.738,3.809c-6.738,6.445-13.257,16.04-19.556,28.784l-6.006,21.753h-18.677
	l13.696-47.022c1.318-4.639,1.978-7.935,1.978-9.888c0-0.83-0.196-1.525-0.586-2.087c-0.392-0.562-1.025-1.001-1.904-1.318
	s-2.54-0.477-4.98-0.477l0.806-2.783l24.683-4.321H247.158z"/>
<path fill="#FFFFFF" d="M323.081,263.16l-9.082,31.421c6.103-9.18,10.668-15.454,13.696-18.823
	c4.442-4.882,8.276-8.203,11.499-9.961s6.25-2.637,9.082-2.637c2.538,0,4.711,0.94,6.519,2.819c1.806,1.881,2.71,4.334,2.71,7.361
	c0,2.735-0.586,6.055-1.758,9.961l-9.375,31.274c-0.782,2.736-1.172,4.518-1.172,5.348c0,0.488,0.183,0.928,0.549,1.318
	s0.744,0.586,1.135,0.586c0.487,0,1-0.195,1.538-0.586c1.708-1.416,3.442-3.418,5.2-6.006c0.439-0.684,1.146-1.709,2.124-3.077
	l2.783,1.685c-7.178,12.06-14.722,18.091-22.632,18.091c-3.028,0-5.396-0.781-7.104-2.344c-1.71-1.563-2.563-3.516-2.563-5.859
	c0-2.051,0.586-5.102,1.758-9.156l9.155-31.274c0.634-2.051,0.952-3.563,0.952-4.541c0-0.537-0.22-1.013-0.659-1.428
	s-0.952-0.623-1.538-0.623c-1.856,0-4.102,1.271-6.738,3.809c-6.738,6.445-13.257,16.04-19.556,28.784l-6.006,21.753h-18.677
	l13.696-47.022c1.318-4.639,1.978-7.935,1.978-9.888c0-0.83-0.196-1.525-0.586-2.087c-0.392-0.562-1.025-1.001-1.904-1.318
	s-2.54-0.477-4.98-0.477l0.806-2.783l24.683-4.321H323.081z"/>
<path fill="#FFFFFF" d="M408.232,263.16c3.856,0,7.482,0.892,10.876,2.673c3.393,1.783,5.957,4.261,7.69,7.435
	c1.732,3.175,2.6,6.69,2.6,10.547c0,7.91-2.21,15.82-6.628,23.73c-4.42,7.91-10.243,14.148-17.468,18.714
	c-7.227,4.564-14.502,6.848-21.826,6.848c-6.641,0-11.781-1.979-15.417-5.934c-3.638-3.955-5.457-8.789-5.457-14.501
	c0-6.786,1.355-13.147,4.065-19.079c2.71-5.934,6.152-11.108,10.327-15.527s8.972-8.008,14.392-10.768
	C396.806,264.54,402.42,263.16,408.232,263.16z M405.229,267.042c-2.589,0-4.737,0.758-6.445,2.271
	c-3.418,3.076-7.276,10.267-11.572,21.569c-4.297,11.305-6.445,21.497-6.445,30.579c0,2.246,0.683,4.102,2.051,5.566
	c1.366,1.465,2.978,2.197,4.834,2.197c1.904,0,3.589-0.586,5.054-1.758c2.148-1.758,4.785-5.699,7.91-11.828
	c3.124-6.127,5.688-12.891,7.69-20.288c2.001-7.398,3.003-14.173,3.003-20.325c0-2.538-0.611-4.505-1.831-5.896
	C408.256,267.737,406.84,267.042,405.229,267.042z"/>
<path fill="#FFFFFF" d="M431.64,295.533l31.567-1.978c0.683,5.127,2.075,9.034,4.175,11.719c3.417,4.347,8.3,6.519,14.648,6.519
	c4.735,0,8.386-1.11,10.95-3.333c2.563-2.221,3.845-4.797,3.845-7.727c0-2.783-1.221-5.273-3.662-7.471
	c-2.442-2.197-8.106-4.272-16.992-6.226c-14.551-3.271-24.928-7.617-31.128-13.037c-6.251-5.42-9.375-12.329-9.375-20.728
	c0-5.518,1.599-10.73,4.797-15.637c3.197-4.907,8.007-8.764,14.429-11.572c6.42-2.807,15.222-4.211,26.404-4.211
	c13.72,0,24.181,2.552,31.384,7.654c7.202,5.103,11.486,13.22,12.854,24.353l-31.274,1.831c-0.831-4.834-2.576-8.35-5.237-10.547
	c-2.662-2.197-6.335-3.296-11.023-3.296c-3.858,0-6.764,0.818-8.716,2.453c-1.954,1.637-2.93,3.626-2.93,5.97
	c0,1.71,0.806,3.248,2.417,4.614c1.562,1.417,5.273,2.735,11.133,3.955c14.502,3.125,24.89,6.287,31.165,9.484
	c6.273,3.199,10.84,7.167,13.696,11.902c2.856,4.736,4.285,10.034,4.285,15.894c0,6.885-1.904,13.232-5.713,19.042
	c-3.809,5.813-9.131,10.219-15.967,13.221c-6.837,3.004-15.454,4.504-25.854,4.504c-18.263,0-30.908-3.516-37.939-10.547
	S432.567,306.373,431.64,295.533z"/>
<path fill="#FFFFFF" d="M538.178,223.683h88.917v22.925h-55.664v17.065h51.635v21.899h-51.635v21.167h57.275v24.317h-90.528V223.683
	z"/>
<path fill="#FFFFFF" d="M639.517,331.056V223.683h55.297c10.254,0,18.092,0.879,23.512,2.637s9.789,5.017,13.109,9.778
	s4.98,10.559,4.98,17.395c0,5.958-1.27,11.097-3.811,15.417c-2.541,4.322-6.035,7.826-10.479,10.511
	c-2.834,1.71-6.719,3.125-11.652,4.248c3.951,1.32,6.83,2.641,8.637,3.959c1.219,0.88,2.988,2.761,5.307,5.645
	c2.316,2.884,3.867,5.107,4.646,6.671l16.068,31.114h-37.49l-17.734-32.813c-2.246-4.248-4.248-7.006-6.006-8.276
	c-2.393-1.659-5.104-2.49-8.131-2.49h-2.93v43.58H639.517z M672.841,267.188h13.99c1.512,0,4.441-0.487,8.789-1.465
	c2.197-0.439,3.99-1.563,5.383-3.369c1.391-1.806,2.088-3.882,2.088-6.226c0-3.467-1.1-6.127-3.297-7.983
	c-2.197-1.855-6.324-2.783-12.377-2.783h-14.576V267.188z"/>
<path fill="#FFFFFF" d="M735.142,223.683h34.684l24.166,77.271l23.857-77.271h33.674l-39.869,107.374h-35.961L735.142,223.683z"/>
<path fill="#FFFFFF" d="M845.562,277.442c0-17.529,4.881-31.176,14.648-40.942c9.766-9.765,23.363-14.648,40.795-14.648
	c17.871,0,31.641,4.797,41.309,14.392c9.668,9.595,14.502,23.035,14.502,40.32c0,12.55-2.111,22.84-6.336,30.871
	c-4.223,8.034-10.326,14.284-18.311,18.75c-7.982,4.469-17.932,6.701-29.846,6.701c-12.109,0-22.131-1.928-30.066-5.785
	c-7.934-3.857-14.367-9.961-19.299-18.311C848.026,300.44,845.562,289.992,845.562,277.442z M878.739,277.589
	c0,10.84,2.014,18.629,6.043,23.364c4.027,4.736,9.51,7.104,16.443,7.104c7.129,0,12.645-2.318,16.553-6.958
	c3.906-4.639,5.859-12.964,5.859-24.976c0-10.107-2.039-17.492-6.117-22.156c-4.076-4.662-9.605-6.994-16.588-6.994
	c-6.691,0-12.061,2.369-16.113,7.104C880.765,258.814,878.739,266.651,878.739,277.589z"/>
<path fill="#FFFFFF" d="M132.672,521.857v21.563c0,1.68,0.122,2.799,0.366,3.355c0.244,0.557,0.605,0.971,1.084,1.244
	c0.479,0.273,1.352,0.41,2.622,0.41v1.055h-13.037v-1.055c1.308,0,2.187-0.127,2.637-0.381c0.449-0.254,0.806-0.674,1.069-1.26
	s0.396-1.709,0.396-3.369v-10.342c0-2.91-0.088-4.795-0.264-5.654c-0.137-0.625-0.352-1.059-0.645-1.303s-0.693-0.367-1.201-0.367
	c-0.547,0-1.211,0.146-1.992,0.439l-0.41-1.055l8.086-3.281H132.672z M130.241,507.824c0.82,0,1.519,0.289,2.095,0.865
	c0.576,0.576,0.864,1.273,0.864,2.094s-0.289,1.523-0.864,2.109c-0.576,0.586-1.274,0.879-2.095,0.879s-1.523-0.293-2.109-0.879
	s-0.879-1.289-0.879-2.109s0.288-1.518,0.864-2.094C128.692,508.113,129.401,507.824,130.241,507.824z"/>
<path fill="#FFFFFF" d="M147.907,527.541c3.145-3.789,6.142-5.684,8.994-5.684c1.465,0,2.725,0.367,3.779,1.1
	s1.894,1.938,2.52,3.617c0.429,1.172,0.645,2.969,0.645,5.391v11.455c0,1.699,0.136,2.852,0.41,3.457
	c0.215,0.488,0.561,0.869,1.04,1.143c0.479,0.273,1.362,0.41,2.651,0.41v1.055h-13.271v-1.055h0.557c1.25,0,2.124-0.189,2.622-0.57
	s0.845-0.943,1.04-1.686c0.078-0.293,0.117-1.211,0.117-2.754v-10.986c0-2.441-0.318-4.213-0.952-5.316
	c-0.635-1.104-1.704-1.656-3.208-1.656c-2.325,0-4.639,1.27-6.943,3.809v14.15c0,1.816,0.107,2.939,0.322,3.369
	c0.273,0.566,0.649,0.982,1.128,1.246c0.479,0.264,1.45,0.395,2.915,0.395v1.055H139v-1.055h0.586c1.367,0,2.29-0.346,2.769-1.039
	c0.479-0.693,0.718-2.018,0.718-3.971v-9.961c0-3.223-0.073-5.186-0.22-5.889s-0.371-1.182-0.674-1.436
	c-0.303-0.254-0.708-0.381-1.216-0.381c-0.547,0-1.201,0.146-1.963,0.439l-0.439-1.055l8.086-3.281h1.26V527.541z"/>
<path fill="#FFFFFF" d="M177.907,527.541c3.145-3.789,6.142-5.684,8.994-5.684c1.465,0,2.725,0.367,3.779,1.1
	s1.894,1.938,2.52,3.617c0.429,1.172,0.645,2.969,0.645,5.391v11.455c0,1.699,0.136,2.852,0.41,3.457
	c0.215,0.488,0.561,0.869,1.04,1.143c0.479,0.273,1.362,0.41,2.651,0.41v1.055h-13.271v-1.055h0.557c1.25,0,2.124-0.189,2.622-0.57
	s0.845-0.943,1.04-1.686c0.078-0.293,0.117-1.211,0.117-2.754v-10.986c0-2.441-0.318-4.213-0.952-5.316
	c-0.635-1.104-1.704-1.656-3.208-1.656c-2.325,0-4.639,1.27-6.943,3.809v14.15c0,1.816,0.107,2.939,0.322,3.369
	c0.273,0.566,0.649,0.982,1.128,1.246c0.479,0.264,1.45,0.395,2.915,0.395v1.055H169v-1.055h0.586c1.367,0,2.29-0.346,2.769-1.039
	c0.479-0.693,0.718-2.018,0.718-3.971v-9.961c0-3.223-0.073-5.186-0.22-5.889s-0.371-1.182-0.674-1.436
	c-0.303-0.254-0.708-0.381-1.216-0.381c-0.547,0-1.201,0.146-1.963,0.439l-0.439-1.055l8.086-3.281h1.26V527.541z"/>
<path fill="#FFFFFF" d="M213.209,521.857c4.062,0,7.324,1.543,9.785,4.629c2.09,2.637,3.135,5.664,3.135,9.082
	c0,2.402-0.576,4.834-1.729,7.295c-1.153,2.461-2.739,4.316-4.761,5.566s-4.273,1.875-6.753,1.875c-4.043,0-7.256-1.611-9.639-4.834
	c-2.012-2.715-3.018-5.762-3.018-9.141c0-2.461,0.61-4.906,1.831-7.338c1.22-2.432,2.827-4.229,4.819-5.391
	S210.983,521.857,213.209,521.857z M212.301,523.761c-1.036,0-2.076,0.309-3.12,0.924c-1.045,0.615-1.89,1.693-2.534,3.236
	s-0.967,3.525-0.967,5.947c0,3.906,0.776,7.275,2.329,10.107s3.599,4.248,6.138,4.248c1.894,0,3.457-0.781,4.688-2.344
	s1.846-4.248,1.846-8.057c0-4.766-1.025-8.516-3.076-11.25C216.217,524.699,214.45,523.761,212.301,523.761z"/>
<path fill="#FFFFFF" d="M228.708,522.648h12.627v1.084h-0.82c-0.762,0-1.343,0.186-1.743,0.557c-0.4,0.371-0.601,0.869-0.601,1.494
	c0,0.684,0.205,1.494,0.615,2.432l6.24,14.824l6.27-15.381c0.449-1.094,0.674-1.924,0.674-2.49c0-0.273-0.078-0.498-0.234-0.674
	c-0.215-0.293-0.488-0.492-0.82-0.6c-0.333-0.107-1.006-0.162-2.021-0.162v-1.084h8.76v1.084c-1.016,0.078-1.719,0.283-2.109,0.615
	c-0.684,0.586-1.299,1.563-1.846,2.93l-9.521,23.027h-1.201l-9.58-22.646c-0.43-1.055-0.84-1.811-1.23-2.27
	c-0.391-0.459-0.889-0.846-1.494-1.158c-0.333-0.176-0.986-0.342-1.963-0.498V522.648z"/>
<path fill="#FFFFFF" d="M275.29,545.617c-2.754,2.129-4.482,3.359-5.186,3.691c-1.055,0.488-2.178,0.732-3.369,0.732
	c-1.856,0-3.384-0.635-4.585-1.904s-1.802-2.939-1.802-5.01c0-1.309,0.293-2.441,0.879-3.398c0.801-1.328,2.192-2.578,4.175-3.75
	c1.982-1.172,5.278-2.598,9.888-4.277v-1.055c0-2.676-0.425-4.512-1.274-5.508s-2.085-1.494-3.706-1.494
	c-1.23,0-2.208,0.332-2.93,0.996c-0.743,0.664-1.113,1.426-1.113,2.285l0.059,1.699c0,0.898-0.23,1.592-0.688,2.08
	c-0.459,0.488-1.06,0.732-1.802,0.732c-0.723,0-1.314-0.254-1.772-0.762c-0.459-0.508-0.688-1.201-0.688-2.08
	c0-1.68,0.859-3.223,2.578-4.629c1.718-1.406,4.131-2.109,7.236-2.109c2.383,0,4.336,0.4,5.859,1.201
	c1.152,0.605,2.002,1.553,2.549,2.842c0.352,0.84,0.527,2.559,0.527,5.156v9.111c0,2.559,0.048,4.127,0.146,4.703
	c0.098,0.576,0.259,0.961,0.483,1.156c0.224,0.195,0.483,0.293,0.776,0.293c0.312,0,0.586-0.068,0.82-0.205
	c0.41-0.254,1.201-0.967,2.373-2.139v1.641c-2.188,2.93-4.277,4.395-6.27,4.395c-0.957,0-1.719-0.332-2.285-0.996
	C275.602,548.351,275.309,547.218,275.29,545.617z M275.29,543.712v-10.225c-2.949,1.172-4.854,2.002-5.713,2.49
	c-1.543,0.859-2.647,1.758-3.311,2.695c-0.664,0.938-0.996,1.963-0.996,3.076c0,1.406,0.42,2.574,1.26,3.502
	c0.839,0.928,1.806,1.391,2.9,1.391C270.914,546.642,272.868,545.666,275.29,543.712z"/>
<path fill="#FFFFFF" d="M294.508,513.83v8.818h6.27v2.051h-6.27v17.402c0,1.738,0.249,2.91,0.747,3.516s1.138,0.908,1.919,0.908
	c0.645,0,1.27-0.199,1.875-0.6c0.605-0.4,1.074-0.992,1.406-1.773h1.143c-0.684,1.914-1.651,3.355-2.9,4.322
	c-1.25,0.967-2.539,1.449-3.867,1.449c-0.898,0-1.777-0.248-2.637-0.746c-0.86-0.498-1.494-1.211-1.904-2.139
	s-0.615-2.359-0.615-4.293v-18.047h-4.248v-0.967c1.074-0.43,2.172-1.156,3.296-2.182c1.123-1.025,2.124-2.242,3.003-3.648
	c0.449-0.742,1.074-2.1,1.875-4.072H294.508z"/>
<path fill="#FFFFFF" d="M312.643,521.857v21.563c0,1.68,0.122,2.799,0.366,3.355c0.244,0.557,0.605,0.971,1.084,1.244
	c0.479,0.273,1.352,0.41,2.622,0.41v1.055h-13.037v-1.055c1.308,0,2.187-0.127,2.637-0.381c0.449-0.254,0.806-0.674,1.069-1.26
	s0.396-1.709,0.396-3.369v-10.342c0-2.91-0.088-4.795-0.264-5.654c-0.137-0.625-0.352-1.059-0.645-1.303s-0.693-0.367-1.201-0.367
	c-0.547,0-1.211,0.146-1.992,0.439l-0.41-1.055l8.086-3.281H312.643z M310.211,507.824c0.82,0,1.519,0.289,2.095,0.865
	c0.576,0.576,0.864,1.273,0.864,2.094s-0.289,1.523-0.864,2.109c-0.576,0.586-1.274,0.879-2.095,0.879s-1.523-0.293-2.109-0.879
	s-0.879-1.289-0.879-2.109s0.288-1.518,0.864-2.094C308.663,508.113,309.372,507.824,310.211,507.824z"/>
<path fill="#FFFFFF" d="M333.18,521.857c4.062,0,7.324,1.543,9.785,4.629c2.09,2.637,3.135,5.664,3.135,9.082
	c0,2.402-0.576,4.834-1.729,7.295c-1.153,2.461-2.739,4.316-4.761,5.566s-4.273,1.875-6.753,1.875c-4.043,0-7.256-1.611-9.639-4.834
	c-2.012-2.715-3.018-5.762-3.018-9.141c0-2.461,0.61-4.906,1.831-7.338c1.22-2.432,2.827-4.229,4.819-5.391
	S330.954,521.857,333.18,521.857z M332.272,523.761c-1.036,0-2.076,0.309-3.12,0.924c-1.045,0.615-1.89,1.693-2.534,3.236
	s-0.967,3.525-0.967,5.947c0,3.906,0.776,7.275,2.329,10.107s3.599,4.248,6.138,4.248c1.894,0,3.457-0.781,4.688-2.344
	s1.846-4.248,1.846-8.057c0-4.766-1.025-8.516-3.076-11.25C336.188,524.699,334.42,523.761,332.272,523.761z"/>
<path fill="#FFFFFF" d="M357.877,527.541c3.145-3.789,6.142-5.684,8.994-5.684c1.465,0,2.725,0.367,3.779,1.1
	s1.894,1.938,2.52,3.617c0.429,1.172,0.645,2.969,0.645,5.391v11.455c0,1.699,0.136,2.852,0.41,3.457
	c0.215,0.488,0.561,0.869,1.04,1.143c0.479,0.273,1.362,0.41,2.651,0.41v1.055h-13.271v-1.055h0.557c1.25,0,2.124-0.189,2.622-0.57
	s0.845-0.943,1.04-1.686c0.078-0.293,0.117-1.211,0.117-2.754v-10.986c0-2.441-0.318-4.213-0.952-5.316
	c-0.635-1.104-1.704-1.656-3.208-1.656c-2.325,0-4.639,1.27-6.943,3.809v14.15c0,1.816,0.107,2.939,0.322,3.369
	c0.273,0.566,0.649,0.982,1.128,1.246c0.479,0.264,1.45,0.395,2.915,0.395v1.055h-13.271v-1.055h0.586
	c1.367,0,2.29-0.346,2.769-1.039c0.479-0.693,0.718-2.018,0.718-3.971v-9.961c0-3.223-0.073-5.186-0.22-5.889
	s-0.371-1.182-0.674-1.436c-0.303-0.254-0.708-0.381-1.216-0.381c-0.547,0-1.201,0.146-1.963,0.439l-0.439-1.055l8.086-3.281h1.26
	V527.541z"/>
<path fill="#FFFFFF" d="M402.907,521.857v6.035c2.246-4.023,4.551-6.035,6.914-6.035c1.074,0,1.963,0.328,2.666,0.982
	s1.055,1.41,1.055,2.27c0,0.762-0.254,1.406-0.762,1.934c-0.508,0.527-1.113,0.791-1.816,0.791c-0.684,0-1.45-0.336-2.3-1.01
	s-1.479-1.012-1.89-1.012c-0.352,0-0.732,0.195-1.143,0.586c-0.879,0.801-1.787,2.119-2.725,3.955v12.861
	c0,1.484,0.186,2.607,0.557,3.369c0.253,0.527,0.703,0.967,1.348,1.318s1.572,0.527,2.783,0.527v1.055h-13.74v-1.055
	c1.367,0,2.383-0.215,3.047-0.645c0.488-0.313,0.83-0.811,1.025-1.494c0.098-0.332,0.146-1.279,0.146-2.842v-10.4
	c0-3.125-0.063-4.984-0.19-5.58c-0.127-0.596-0.362-1.031-0.703-1.305c-0.342-0.273-0.767-0.41-1.274-0.41
	c-0.605,0-1.289,0.146-2.051,0.439l-0.293-1.055l8.115-3.281H402.907z"/>
<path fill="#FFFFFF" d="M419.547,532.755c-0.02,3.984,0.947,7.109,2.9,9.375c1.953,2.266,4.248,3.398,6.885,3.398
	c1.758,0,3.286-0.482,4.585-1.449c1.299-0.967,2.388-2.623,3.267-4.967l0.908,0.586c-0.41,2.676-1.602,5.113-3.574,7.311
	c-1.973,2.197-4.443,3.295-7.412,3.295c-3.223,0-5.981-1.254-8.276-3.764c-2.295-2.51-3.442-5.885-3.442-10.123
	c0-4.59,1.176-8.168,3.53-10.736c2.354-2.568,5.307-3.854,8.862-3.854c3.007,0,5.479,0.992,7.412,2.975s2.9,4.633,2.9,7.953H419.547
	z M419.547,531.056h12.422c-0.098-1.719-0.303-2.93-0.615-3.633c-0.488-1.094-1.216-1.953-2.183-2.578s-1.978-0.938-3.032-0.938
	c-1.622,0-3.072,0.631-4.351,1.891C420.509,527.058,419.762,528.81,419.547,531.056z"/>
<path fill="#FFFFFF" d="M440.29,522.648h12.627v1.084h-0.82c-0.762,0-1.343,0.186-1.743,0.557c-0.4,0.371-0.601,0.869-0.601,1.494
	c0,0.684,0.205,1.494,0.615,2.432l6.24,14.824l6.27-15.381c0.449-1.094,0.674-1.924,0.674-2.49c0-0.273-0.078-0.498-0.234-0.674
	c-0.215-0.293-0.488-0.492-0.82-0.6c-0.333-0.107-1.006-0.162-2.021-0.162v-1.084h8.76v1.084c-1.016,0.078-1.719,0.283-2.109,0.615
	c-0.684,0.586-1.299,1.563-1.846,2.93l-9.521,23.027h-1.201l-9.58-22.646c-0.43-1.055-0.84-1.811-1.23-2.27
	c-0.391-0.459-0.889-0.846-1.494-1.158c-0.333-0.176-0.986-0.342-1.963-0.498V522.648z"/>
<path fill="#FFFFFF" d="M484.792,521.857c4.062,0,7.324,1.543,9.785,4.629c2.09,2.637,3.135,5.664,3.135,9.082
	c0,2.402-0.576,4.834-1.729,7.295c-1.153,2.461-2.739,4.316-4.761,5.566s-4.273,1.875-6.753,1.875c-4.043,0-7.256-1.611-9.639-4.834
	c-2.012-2.715-3.018-5.762-3.018-9.141c0-2.461,0.61-4.906,1.831-7.338c1.22-2.432,2.827-4.229,4.819-5.391
	S482.565,521.857,484.792,521.857z M483.883,523.761c-1.036,0-2.076,0.309-3.12,0.924c-1.045,0.615-1.89,1.693-2.534,3.236
	s-0.967,3.525-0.967,5.947c0,3.906,0.776,7.275,2.329,10.107s3.599,4.248,6.138,4.248c1.894,0,3.457-0.781,4.688-2.344
	s1.846-4.248,1.846-8.057c0-4.766-1.025-8.516-3.076-11.25C487.799,524.699,486.032,523.761,483.883,523.761z"/>
<path fill="#FFFFFF" d="M510.895,507.824v35.596c0,1.68,0.122,2.793,0.366,3.34c0.244,0.547,0.62,0.963,1.128,1.246
	c0.508,0.283,1.455,0.424,2.842,0.424v1.055h-13.154v-1.055c1.23,0,2.07-0.127,2.52-0.381c0.449-0.254,0.801-0.674,1.055-1.26
	c0.253-0.586,0.381-1.709,0.381-3.369v-24.375c0-3.027-0.069-4.887-0.205-5.58c-0.137-0.693-0.356-1.168-0.659-1.422
	c-0.303-0.254-0.688-0.381-1.157-0.381c-0.508,0-1.153,0.156-1.934,0.469l-0.498-1.025l7.998-3.281H510.895z"/>
<path fill="#FFFFFF" d="M541.862,522.648v16.26c0,3.105,0.073,5.006,0.22,5.699s0.381,1.176,0.703,1.449s0.698,0.41,1.128,0.41
	c0.605,0,1.289-0.166,2.051-0.498l0.41,1.025l-8.027,3.311h-1.318v-5.684c-2.305,2.5-4.063,4.072-5.273,4.717
	c-1.211,0.645-2.49,0.967-3.838,0.967c-1.504,0-2.808-0.434-3.911-1.303c-1.104-0.869-1.871-1.988-2.3-3.355
	c-0.43-1.367-0.645-3.301-0.645-5.801v-11.982c0-1.27-0.137-2.148-0.41-2.637c-0.274-0.488-0.679-0.863-1.216-1.127
	c-0.538-0.264-1.509-0.387-2.915-0.367v-1.084h9.404v17.959c0,2.5,0.435,4.141,1.304,4.922c0.869,0.781,1.919,1.172,3.149,1.172
	c0.839,0,1.792-0.264,2.856-0.791c1.064-0.527,2.329-1.533,3.794-3.018v-15.205c0-1.523-0.278-2.553-0.835-3.09
	s-1.714-0.826-3.472-0.865v-1.084H541.862z"/>
<path fill="#FFFFFF" d="M556.129,513.83v8.818h6.27v2.051h-6.27v17.402c0,1.738,0.249,2.91,0.747,3.516s1.138,0.908,1.919,0.908
	c0.645,0,1.27-0.199,1.875-0.6s1.074-0.992,1.406-1.773h1.143c-0.684,1.914-1.65,3.355-2.9,4.322s-2.539,1.449-3.867,1.449
	c-0.898,0-1.777-0.248-2.637-0.746s-1.494-1.211-1.904-2.139s-0.615-2.359-0.615-4.293v-18.047h-4.248v-0.967
	c1.074-0.43,2.173-1.156,3.296-2.182s2.124-2.242,3.003-3.648c0.449-0.742,1.074-2.1,1.875-4.072H556.129z"/>
<path fill="#FFFFFF" d="M574.265,521.857v21.563c0,1.68,0.121,2.799,0.365,3.355s0.605,0.971,1.084,1.244s1.354,0.41,2.623,0.41
	v1.055h-13.038v-1.055c1.309,0,2.188-0.127,2.637-0.381s0.805-0.674,1.068-1.26s0.396-1.709,0.396-3.369v-10.342
	c0-2.91-0.088-4.795-0.264-5.654c-0.137-0.625-0.352-1.059-0.645-1.303s-0.693-0.367-1.201-0.367c-0.547,0-1.211,0.146-1.993,0.439
	l-0.41-1.055l8.086-3.281H574.265z M571.833,507.824c0.82,0,1.518,0.289,2.094,0.865s0.865,1.273,0.865,2.094
	s-0.289,1.523-0.865,2.109s-1.273,0.879-2.094,0.879s-1.523-0.293-2.109-0.879s-0.879-1.289-0.879-2.109s0.287-1.518,0.863-2.094
	S570.993,507.824,571.833,507.824z"/>
<path fill="#FFFFFF" d="M594.802,521.857c4.063,0,7.324,1.543,9.785,4.629c2.09,2.637,3.135,5.664,3.135,9.082
	c0,2.402-0.576,4.834-1.729,7.295s-2.74,4.316-4.762,5.566s-4.271,1.875-6.752,1.875c-4.043,0-7.256-1.611-9.639-4.834
	c-2.012-2.715-3.018-5.762-3.018-9.141c0-2.461,0.609-4.906,1.83-7.338s2.828-4.229,4.82-5.391S592.575,521.857,594.802,521.857z
	 M593.894,523.761c-1.035,0-2.076,0.309-3.121,0.924s-1.889,1.693-2.533,3.236s-0.967,3.525-0.967,5.947
	c0,3.906,0.775,7.275,2.328,10.107s3.6,4.248,6.139,4.248c1.895,0,3.457-0.781,4.688-2.344s1.846-4.248,1.846-8.057
	c0-4.766-1.025-8.516-3.076-11.25C597.81,524.699,596.042,523.761,593.894,523.761z"/>
<path fill="#FFFFFF" d="M619.499,527.541c3.145-3.789,6.143-5.684,8.994-5.684c1.465,0,2.725,0.367,3.779,1.1
	s1.895,1.938,2.52,3.617c0.43,1.172,0.645,2.969,0.645,5.391v11.455c0,1.699,0.137,2.852,0.41,3.457
	c0.215,0.488,0.561,0.869,1.039,1.143s1.363,0.41,2.652,0.41v1.055h-13.271v-1.055h0.557c1.25,0,2.123-0.189,2.621-0.57
	s0.846-0.943,1.041-1.686c0.078-0.293,0.117-1.211,0.117-2.754v-10.986c0-2.441-0.318-4.213-0.953-5.316s-1.703-1.656-3.207-1.656
	c-2.324,0-4.639,1.27-6.943,3.809v14.15c0,1.816,0.107,2.939,0.322,3.369c0.273,0.566,0.648,0.982,1.127,1.246
	s1.451,0.395,2.916,0.395v1.055h-13.271v-1.055h0.586c1.367,0,2.289-0.346,2.768-1.039s0.719-2.018,0.719-3.971v-9.961
	c0-3.223-0.074-5.186-0.221-5.889s-0.371-1.182-0.674-1.436s-0.707-0.381-1.215-0.381c-0.547,0-1.201,0.146-1.963,0.439
	l-0.439-1.055l8.086-3.281h1.26V527.541z"/>
<path fill="#FFFFFF" d="M650.935,521.857v21.563c0,1.68,0.121,2.799,0.365,3.355s0.605,0.971,1.084,1.244s1.354,0.41,2.623,0.41
	v1.055H641.97v-1.055c1.309,0,2.188-0.127,2.637-0.381s0.805-0.674,1.068-1.26s0.396-1.709,0.396-3.369v-10.342
	c0-2.91-0.088-4.795-0.264-5.654c-0.137-0.625-0.352-1.059-0.645-1.303s-0.693-0.367-1.201-0.367c-0.547,0-1.211,0.146-1.992,0.439
	l-0.41-1.055l8.086-3.281H650.935z M648.503,507.824c0.82,0,1.518,0.289,2.094,0.865s0.865,1.273,0.865,2.094
	s-0.289,1.523-0.865,2.109s-1.273,0.879-2.094,0.879s-1.523-0.293-2.109-0.879s-0.879-1.289-0.879-2.109s0.287-1.518,0.863-2.094
	S647.663,507.824,648.503,507.824z"/>
<path fill="#FFFFFF" d="M681.667,541.251l-0.322,8.232h-23.672v-1.055l17.813-23.73h-8.789c-1.895,0-3.135,0.123-3.721,0.367
	s-1.064,0.707-1.436,1.391c-0.527,0.977-0.83,2.188-0.908,3.633h-1.172l0.176-7.441h22.5v1.084l-17.988,23.789h9.785
	c2.051,0,3.441-0.17,4.174-0.512s1.324-0.943,1.773-1.803c0.313-0.625,0.576-1.943,0.791-3.955H681.667z"/>
<path fill="#FFFFFF" d="M694.235,521.857v21.563c0,1.68,0.121,2.799,0.365,3.355s0.605,0.971,1.084,1.244s1.354,0.41,2.623,0.41
	v1.055h-13.037v-1.055c1.309,0,2.188-0.127,2.637-0.381s0.805-0.674,1.068-1.26s0.396-1.709,0.396-3.369v-10.342
	c0-2.91-0.088-4.795-0.264-5.654c-0.137-0.625-0.352-1.059-0.645-1.303s-0.693-0.367-1.201-0.367c-0.547,0-1.211,0.146-1.992,0.439
	l-0.41-1.055l8.086-3.281H694.235z M691.804,507.824c0.82,0,1.518,0.289,2.094,0.865s0.865,1.273,0.865,2.094
	s-0.289,1.523-0.865,2.109s-1.273,0.879-2.094,0.879s-1.523-0.293-2.109-0.879s-0.879-1.289-0.879-2.109s0.287-1.518,0.863-2.094
	S690.964,507.824,691.804,507.824z"/>
<path fill="#FFFFFF" d="M709.47,527.541c3.145-3.789,6.143-5.684,8.994-5.684c1.465,0,2.725,0.367,3.779,1.1s1.895,1.938,2.52,3.617
	c0.43,1.172,0.645,2.969,0.645,5.391v11.455c0,1.699,0.137,2.852,0.41,3.457c0.215,0.488,0.561,0.869,1.039,1.143
	s1.363,0.41,2.652,0.41v1.055h-13.271v-1.055h0.557c1.25,0,2.123-0.189,2.621-0.57s0.846-0.943,1.041-1.686
	c0.078-0.293,0.117-1.211,0.117-2.754v-10.986c0-2.441-0.318-4.213-0.953-5.316s-1.703-1.656-3.207-1.656
	c-2.324,0-4.639,1.27-6.943,3.809v14.15c0,1.816,0.107,2.939,0.322,3.369c0.273,0.566,0.648,0.982,1.127,1.246
	s1.451,0.395,2.916,0.395v1.055h-13.271v-1.055h0.586c1.367,0,2.289-0.346,2.768-1.039s0.719-2.018,0.719-3.971v-9.961
	c0-3.223-0.074-5.186-0.221-5.889s-0.371-1.182-0.674-1.436s-0.707-0.381-1.215-0.381c-0.547,0-1.201,0.146-1.963,0.439
	l-0.439-1.055l8.086-3.281h1.26V527.541z"/>
<path fill="#FFFFFF" d="M738.825,539.699c-1.641-0.801-2.9-1.918-3.779-3.354s-1.318-3.023-1.318-4.762c0-2.656,1-4.941,3.002-6.855
	s4.566-2.871,7.691-2.871c2.559,0,4.775,0.625,6.65,1.875h5.684c0.84,0,1.328,0.025,1.465,0.074s0.234,0.131,0.293,0.248
	c0.117,0.176,0.176,0.488,0.176,0.938c0,0.508-0.049,0.859-0.146,1.055c-0.059,0.098-0.162,0.176-0.309,0.234
	s-0.639,0.088-1.479,0.088h-3.486c1.094,1.406,1.641,3.203,1.641,5.391c0,2.5-0.957,4.639-2.871,6.416s-4.482,2.666-7.705,2.666
	c-1.328,0-2.686-0.195-4.072-0.586c-0.859,0.742-1.441,1.393-1.744,1.949s-0.453,1.029-0.453,1.42c0,0.332,0.16,0.654,0.482,0.967
	s0.953,0.537,1.891,0.674c0.547,0.078,1.914,0.146,4.102,0.205c4.023,0.098,6.631,0.234,7.822,0.41
	c1.816,0.254,3.266,0.928,4.35,2.021s1.627,2.441,1.627,4.043c0,2.207-1.035,4.277-3.105,6.211
	c-3.047,2.852-7.021,4.277-11.924,4.277c-3.77,0-6.953-0.85-9.551-2.549c-1.465-0.977-2.197-1.992-2.197-3.047
	c0-0.469,0.107-0.938,0.322-1.406c0.332-0.723,1.016-1.729,2.051-3.018c0.137-0.176,1.133-1.23,2.988-3.164
	c-1.016-0.605-1.734-1.146-2.154-1.625s-0.629-1.021-0.629-1.627c0-0.684,0.277-1.484,0.834-2.402S736.813,541.378,738.825,539.699z
	 M738.532,549.484c-0.918,0.996-1.611,1.924-2.08,2.783s-0.703,1.65-0.703,2.373c0,0.938,0.566,1.758,1.699,2.461
	c1.953,1.211,4.775,1.816,8.467,1.816c3.516,0,6.107-0.619,7.777-1.859s2.506-2.564,2.506-3.971c0-1.016-0.498-1.738-1.494-2.168
	c-1.016-0.43-3.027-0.684-6.035-0.762C744.274,550.041,740.896,549.816,738.532,549.484z M743.923,523.263
	c-1.445,0-2.656,0.576-3.633,1.729s-1.465,2.92-1.465,5.303c0,3.086,0.664,5.479,1.992,7.178c1.016,1.289,2.305,1.934,3.867,1.934
	c1.484,0,2.705-0.557,3.662-1.67s1.436-2.861,1.436-5.244c0-3.105-0.674-5.537-2.021-7.295
	C746.765,523.908,745.485,523.263,743.923,523.263z"/>
<path fill="#FFFFFF" d="M784.44,513.83v8.818h6.27v2.051h-6.27v17.402c0,1.738,0.248,2.91,0.746,3.516s1.139,0.908,1.92,0.908
	c0.645,0,1.27-0.199,1.875-0.6s1.074-0.992,1.406-1.773h1.143c-0.684,1.914-1.65,3.355-2.9,4.322s-2.539,1.449-3.867,1.449
	c-0.898,0-1.777-0.248-2.637-0.746s-1.494-1.211-1.904-2.139s-0.615-2.359-0.615-4.293v-18.047h-4.248v-0.967
	c1.074-0.43,2.172-1.156,3.295-2.182s2.125-2.242,3.004-3.648c0.449-0.742,1.074-2.1,1.875-4.072H784.44z"/>
<path fill="#FFFFFF" d="M806.442,521.857c4.063,0,7.324,1.543,9.785,4.629c2.09,2.637,3.135,5.664,3.135,9.082
	c0,2.402-0.576,4.834-1.729,7.295s-2.74,4.316-4.762,5.566s-4.271,1.875-6.752,1.875c-4.043,0-7.256-1.611-9.639-4.834
	c-2.012-2.715-3.018-5.762-3.018-9.141c0-2.461,0.609-4.906,1.83-7.338s2.828-4.229,4.82-5.391S804.216,521.857,806.442,521.857z
	 M805.534,523.761c-1.035,0-2.076,0.309-3.121,0.924s-1.889,1.693-2.533,3.236s-0.967,3.525-0.967,5.947
	c0,3.906,0.775,7.275,2.328,10.107s3.6,4.248,6.139,4.248c1.895,0,3.457-0.781,4.688-2.344s1.846-4.248,1.846-8.057
	c0-4.766-1.025-8.516-3.076-11.25C809.45,524.699,807.683,523.761,805.534,523.761z"/>
<path fill="#FFFFFF" d="M831.286,527.57c1.953-1.953,3.105-3.076,3.457-3.369c0.879-0.742,1.826-1.318,2.842-1.729
	s2.021-0.615,3.018-0.615c1.68,0,3.125,0.488,4.336,1.465s2.021,2.393,2.432,4.248c2.012-2.344,3.711-3.881,5.098-4.613
	s2.813-1.1,4.277-1.1c1.426,0,2.689,0.367,3.793,1.1s1.979,1.928,2.623,3.588c0.43,1.133,0.645,2.91,0.645,5.332v11.543
	c0,1.68,0.127,2.832,0.381,3.457c0.195,0.43,0.557,0.797,1.084,1.1s1.387,0.453,2.578,0.453v1.055h-13.242v-1.055h0.557
	c1.152,0,2.051-0.225,2.695-0.674c0.449-0.313,0.771-0.811,0.967-1.494c0.078-0.332,0.117-1.279,0.117-2.842v-11.543
	c0-2.188-0.264-3.73-0.791-4.629c-0.762-1.25-1.982-1.875-3.662-1.875c-1.035,0-2.076,0.26-3.121,0.777s-2.309,1.479-3.793,2.885
	l-0.059,0.322l0.059,1.26v12.803c0,1.836,0.102,2.979,0.307,3.428s0.592,0.826,1.158,1.129s1.533,0.453,2.9,0.453v1.055h-13.564
	v-1.055c1.484,0,2.504-0.176,3.061-0.527s0.943-0.879,1.158-1.582c0.098-0.332,0.146-1.299,0.146-2.9v-11.543
	c0-2.188-0.322-3.76-0.967-4.717c-0.859-1.25-2.061-1.875-3.604-1.875c-1.055,0-2.1,0.283-3.135,0.85
	c-1.621,0.859-2.871,1.826-3.75,2.9v14.385c0,1.758,0.121,2.9,0.365,3.428s0.605,0.924,1.084,1.188s1.451,0.395,2.916,0.395v1.055
	H822.38v-1.055c1.23,0,2.09-0.131,2.578-0.395s0.859-0.684,1.113-1.26s0.381-1.695,0.381-3.355v-10.254
	c0-2.949-0.088-4.854-0.264-5.713c-0.137-0.645-0.352-1.088-0.645-1.332s-0.693-0.367-1.201-0.367c-0.547,0-1.201,0.146-1.963,0.439
	l-0.439-1.055l8.086-3.281h1.26V527.57z"/>
<path fill="#FFFFFF" d="M883.112,521.857c4.063,0,7.324,1.543,9.785,4.629c2.09,2.637,3.135,5.664,3.135,9.082
	c0,2.402-0.576,4.834-1.729,7.295s-2.74,4.316-4.762,5.566s-4.271,1.875-6.752,1.875c-4.043,0-7.256-1.611-9.639-4.834
	c-2.012-2.715-3.018-5.762-3.018-9.141c0-2.461,0.609-4.906,1.83-7.338s2.828-4.229,4.82-5.391S880.886,521.857,883.112,521.857z
	 M882.204,523.761c-1.035,0-2.076,0.309-3.121,0.924s-1.889,1.693-2.533,3.236s-0.967,3.525-0.967,5.947
	c0,3.906,0.775,7.275,2.328,10.107s3.6,4.248,6.139,4.248c1.895,0,3.457-0.781,4.688-2.344s1.846-4.248,1.846-8.057
	c0-4.766-1.025-8.516-3.076-11.25C886.12,524.699,884.353,523.761,882.204,523.761z"/>
<path fill="#FFFFFF" d="M907.839,521.857v6.035c2.246-4.023,4.551-6.035,6.914-6.035c1.074,0,1.963,0.328,2.666,0.982
	s1.055,1.41,1.055,2.27c0,0.762-0.254,1.406-0.762,1.934s-1.113,0.791-1.816,0.791c-0.684,0-1.451-0.336-2.301-1.01
	s-1.479-1.012-1.889-1.012c-0.352,0-0.732,0.195-1.143,0.586c-0.879,0.801-1.787,2.119-2.725,3.955v12.861
	c0,1.484,0.186,2.607,0.557,3.369c0.254,0.527,0.703,0.967,1.348,1.318s1.572,0.527,2.783,0.527v1.055h-13.74v-1.055
	c1.367,0,2.383-0.215,3.047-0.645c0.488-0.313,0.83-0.811,1.025-1.494c0.098-0.332,0.146-1.279,0.146-2.842v-10.4
	c0-3.125-0.064-4.984-0.191-5.58s-0.361-1.031-0.703-1.305s-0.766-0.41-1.273-0.41c-0.605,0-1.289,0.146-2.051,0.439l-0.293-1.055
	l8.115-3.281H907.839z"/>
<path fill="#FFFFFF" d="M927.819,521.857v6.035c2.246-4.023,4.551-6.035,6.914-6.035c1.074,0,1.963,0.328,2.666,0.982
	s1.055,1.41,1.055,2.27c0,0.762-0.254,1.406-0.762,1.934s-1.113,0.791-1.816,0.791c-0.684,0-1.451-0.336-2.301-1.01
	s-1.479-1.012-1.889-1.012c-0.352,0-0.732,0.195-1.143,0.586c-0.879,0.801-1.787,2.119-2.725,3.955v12.861
	c0,1.484,0.186,2.607,0.557,3.369c0.254,0.527,0.703,0.967,1.348,1.318s1.572,0.527,2.783,0.527v1.055h-13.74v-1.055
	c1.367,0,2.383-0.215,3.047-0.645c0.488-0.313,0.83-0.811,1.025-1.494c0.098-0.332,0.146-1.279,0.146-2.842v-10.4
	c0-3.125-0.064-4.984-0.191-5.58s-0.361-1.031-0.703-1.305s-0.766-0.41-1.273-0.41c-0.605,0-1.289,0.146-2.051,0.439l-0.293-1.055
	l8.115-3.281H927.819z"/>
<path fill="#FFFFFF" d="M953.073,521.857c4.063,0,7.324,1.543,9.785,4.629c2.09,2.637,3.135,5.664,3.135,9.082
	c0,2.402-0.576,4.834-1.729,7.295s-2.74,4.316-4.762,5.566s-4.271,1.875-6.752,1.875c-4.043,0-7.256-1.611-9.639-4.834
	c-2.012-2.715-3.018-5.762-3.018-9.141c0-2.461,0.609-4.906,1.83-7.338s2.828-4.229,4.82-5.391S950.847,521.857,953.073,521.857z
	 M952.165,523.761c-1.035,0-2.076,0.309-3.121,0.924s-1.889,1.693-2.533,3.236s-0.967,3.525-0.967,5.947
	c0,3.906,0.775,7.275,2.328,10.107s3.6,4.248,6.139,4.248c1.895,0,3.457-0.781,4.688-2.344s1.846-4.248,1.846-8.057
	c0-4.766-1.025-8.516-3.076-11.25C956.081,524.699,954.313,523.761,952.165,523.761z"/>
<path fill="#FFFFFF" d="M968.454,522.648h11.25v1.084c-1.035,0.078-1.715,0.264-2.037,0.557s-0.482,0.713-0.482,1.26
	c0,0.605,0.166,1.338,0.498,2.197l5.742,15.439l5.771-12.568l-1.523-3.955c-0.469-1.172-1.084-1.982-1.846-2.432
	c-0.43-0.273-1.23-0.439-2.402-0.498v-1.084h12.773v1.084c-1.406,0.059-2.402,0.313-2.988,0.762
	c-0.391,0.313-0.586,0.811-0.586,1.494c0,0.391,0.078,0.791,0.234,1.201l6.094,15.41l5.654-14.854
	c0.391-1.055,0.586-1.895,0.586-2.52c0-0.371-0.191-0.703-0.572-0.996s-1.127-0.459-2.24-0.498v-1.084h8.467v1.084
	c-1.699,0.254-2.949,1.406-3.75,3.457l-8.965,23.115h-1.201l-6.709-17.139l-7.822,17.139h-1.084l-8.613-22.559
	c-0.566-1.426-1.123-2.387-1.67-2.885s-1.406-0.875-2.578-1.129V522.648z"/>
<path fill="#FFFFFF" d="M193.223,484.55v8.041c-25.582-3.525-46.374-13.898-62.378-31.131
	c-16.007-17.232-24.009-36.34-24.009-57.324c0-11.027,1.759-23.854,5.284-38.482c3.522-14.625,5.285-25.998,5.285-34.119
	c0-11.027-4.635-21.328-13.9-30.902c-9.269-9.571-22.096-15.429-38.483-17.576v-9.42c16.388-2.143,29.214-7.962,38.483-17.461
	c9.266-9.496,13.9-19.834,13.9-31.017c0-8.117-1.763-19.45-5.285-34.003c-3.525-14.55-5.284-27.416-5.284-38.599
	c0-20.829,8.002-39.898,24.009-57.208c16.004-17.307,36.796-27.646,62.378-31.017v8.042c-17.92,4.29-31.056,11.297-39.402,21.022
	c-8.35,9.729-12.522,20.412-12.522,32.051c0,9.039,1.723,20.947,5.169,35.727c3.446,14.783,5.17,27.38,5.17,37.794
	c0,15.473-5.669,30.482-17.002,45.032c-11.337,14.554-28.26,25.812-50.775,33.774c22.056,8.12,38.864,19.608,50.431,34.463
	c11.563,14.858,17.347,30.022,17.347,45.491c0,10.418-1.724,23.016-5.17,37.795s-5.169,26.688-5.169,35.727
	c0,11.639,4.172,22.322,12.522,32.051C162.167,473.023,175.302,480.107,193.223,484.55z"/>
<path fill="#FFFFFF" d="M935.45,72.373v-8.042c25.578,3.371,46.37,13.67,62.377,30.902c16.004,17.232,24.01,36.416,24.01,57.554
	c0,11.028-1.763,23.819-5.284,38.369c-3.525,14.554-5.284,25.887-5.284,34.003c0,11.028,4.631,21.332,13.9,30.902
	c9.266,9.574,22.092,15.433,38.483,17.576v9.42c-16.392,2.147-29.218,8.005-38.483,17.576c-9.27,9.574-13.9,19.875-13.9,30.902
	c0,8.121,1.759,19.494,5.284,34.119c3.521,14.629,5.284,27.455,5.284,38.482c0,20.83-8.006,39.898-24.01,57.209
	c-16.007,17.307-36.799,27.721-62.377,31.246v-8.041c17.92-4.443,31.053-11.486,39.402-21.137
	c8.346-9.65,12.521-20.373,12.521-32.166c0-9.039-1.763-20.947-5.284-35.727c-3.525-14.779-5.284-27.301-5.284-37.564
	c0-15.623,5.704-30.709,17.116-45.262c11.409-14.55,28.374-25.808,50.891-33.773c-22.057-8.117-38.907-19.604-50.546-34.463
	c-11.643-14.855-17.461-30.019-17.461-45.491c0-10.414,1.759-23.011,5.284-37.794c3.521-14.78,5.284-26.688,5.284-35.727
	c0-11.639-4.176-22.322-12.521-32.051C966.503,83.67,953.37,76.663,935.45,72.373z"/>
<path display="none" d="M211.152,263.16l-15.015,52.076c-0.831,2.979-1.245,4.932-1.245,5.859c0,0.537,0.22,1.037,0.659,1.502
	c0.439,0.463,0.903,0.695,1.392,0.695c0.83,0,1.659-0.367,2.49-1.1c2.197-1.805,4.834-5.078,7.91-9.814l2.49,1.465
	c-7.374,12.843-15.21,19.263-23.511,19.263c-3.175,0-5.702-0.893-7.581-2.674c-1.88-1.781-2.82-4.039-2.82-6.775
	c0-1.805,0.414-4.102,1.245-6.885l10.181-35.009c0.976-3.369,1.465-5.907,1.465-7.617c0-1.073-0.465-2.025-1.392-2.856
	c-0.928-0.83-2.197-1.245-3.809-1.245c-0.732,0-1.611,0.025-2.637,0.073l0.952-2.93l24.829-4.028H211.152z M206.611,229.469
	c3.027,0,5.578,1.051,7.654,3.149c2.075,2.1,3.113,4.64,3.113,7.617c0,2.979-1.051,5.519-3.149,7.617
	c-2.1,2.1-4.64,3.149-7.617,3.149c-2.93,0-5.445-1.05-7.544-3.149c-2.1-2.099-3.149-4.639-3.149-7.617
	c0-2.978,1.037-5.517,3.113-7.617C201.105,230.52,203.632,229.469,206.611,229.469z"/>
<path display="none" d="M247.158,263.16l-9.082,31.421c6.103-9.18,10.668-15.454,13.696-18.823
	c4.442-4.882,8.276-8.203,11.499-9.961s6.25-2.637,9.082-2.637c2.538,0,4.711,0.94,6.519,2.819c1.806,1.881,2.71,4.334,2.71,7.361
	c0,2.735-0.586,6.055-1.758,9.961l-9.375,31.274c-0.782,2.736-1.172,4.518-1.172,5.348c0,0.488,0.183,0.928,0.549,1.318
	s0.744,0.586,1.135,0.586c0.487,0,1-0.195,1.538-0.586c1.708-1.416,3.442-3.418,5.2-6.006c0.439-0.684,1.146-1.709,2.124-3.077
	l2.783,1.685c-7.178,12.06-14.722,18.091-22.632,18.091c-3.028,0-5.396-0.781-7.104-2.344c-1.71-1.563-2.563-3.516-2.563-5.859
	c0-2.051,0.586-5.102,1.758-9.156l9.155-31.274c0.634-2.051,0.952-3.563,0.952-4.541c0-0.537-0.22-1.013-0.659-1.428
	s-0.952-0.623-1.538-0.623c-1.856,0-4.102,1.271-6.738,3.809c-6.738,6.445-13.257,16.04-19.556,28.784l-6.006,21.753h-18.677
	l13.696-47.022c1.318-4.639,1.978-7.935,1.978-9.888c0-0.83-0.196-1.525-0.586-2.087c-0.392-0.562-1.025-1.001-1.904-1.318
	s-2.54-0.477-4.98-0.477l0.806-2.783l24.683-4.321H247.158z"/>
<path display="none" d="M323.081,263.16l-9.082,31.421c6.103-9.18,10.668-15.454,13.696-18.823
	c4.442-4.882,8.276-8.203,11.499-9.961s6.25-2.637,9.082-2.637c2.538,0,4.711,0.94,6.519,2.819c1.806,1.881,2.71,4.334,2.71,7.361
	c0,2.735-0.586,6.055-1.758,9.961l-9.375,31.274c-0.782,2.736-1.172,4.518-1.172,5.348c0,0.488,0.183,0.928,0.549,1.318
	s0.744,0.586,1.135,0.586c0.487,0,1-0.195,1.538-0.586c1.708-1.416,3.442-3.418,5.2-6.006c0.439-0.684,1.146-1.709,2.124-3.077
	l2.783,1.685c-7.178,12.06-14.722,18.091-22.632,18.091c-3.028,0-5.396-0.781-7.104-2.344c-1.71-1.563-2.563-3.516-2.563-5.859
	c0-2.051,0.586-5.102,1.758-9.156l9.155-31.274c0.634-2.051,0.952-3.563,0.952-4.541c0-0.537-0.22-1.013-0.659-1.428
	s-0.952-0.623-1.538-0.623c-1.856,0-4.102,1.271-6.738,3.809c-6.738,6.445-13.257,16.04-19.556,28.784l-6.006,21.753h-18.677
	l13.696-47.022c1.318-4.639,1.978-7.935,1.978-9.888c0-0.83-0.196-1.525-0.586-2.087c-0.392-0.562-1.025-1.001-1.904-1.318
	s-2.54-0.477-4.98-0.477l0.806-2.783l24.683-4.321H323.081z"/>
<path display="none" d="M408.232,263.16c3.856,0,7.482,0.892,10.876,2.673c3.393,1.783,5.957,4.261,7.69,7.435
	c1.732,3.175,2.6,6.69,2.6,10.547c0,7.91-2.21,15.82-6.628,23.73c-4.42,7.91-10.243,14.148-17.468,18.714
	c-7.227,4.564-14.502,6.848-21.826,6.848c-6.641,0-11.781-1.979-15.417-5.934c-3.638-3.955-5.457-8.789-5.457-14.501
	c0-6.786,1.355-13.147,4.065-19.079c2.71-5.934,6.152-11.108,10.327-15.527s8.972-8.008,14.392-10.768
	C396.806,264.54,402.42,263.16,408.232,263.16z M405.229,267.042c-2.589,0-4.737,0.758-6.445,2.271
	c-3.418,3.076-7.276,10.267-11.572,21.569c-4.297,11.305-6.445,21.497-6.445,30.579c0,2.246,0.683,4.102,2.051,5.566
	c1.366,1.465,2.978,2.197,4.834,2.197c1.904,0,3.589-0.586,5.054-1.758c2.148-1.758,4.785-5.699,7.91-11.828
	c3.124-6.127,5.688-12.891,7.69-20.288c2.001-7.398,3.003-14.173,3.003-20.325c0-2.538-0.611-4.505-1.831-5.896
	C408.256,267.737,406.84,267.042,405.229,267.042z"/>
<path display="none" d="M431.64,295.533l31.567-1.978c0.683,5.127,2.075,9.034,4.175,11.719c3.417,4.347,8.3,6.519,14.648,6.519
	c4.735,0,8.386-1.11,10.95-3.333c2.563-2.221,3.845-4.797,3.845-7.727c0-2.783-1.221-5.273-3.662-7.471
	c-2.442-2.197-8.106-4.272-16.992-6.226c-14.551-3.271-24.928-7.617-31.128-13.037c-6.251-5.42-9.375-12.329-9.375-20.728
	c0-5.518,1.599-10.73,4.797-15.637c3.197-4.907,8.007-8.764,14.429-11.572c6.42-2.807,15.222-4.211,26.404-4.211
	c13.72,0,24.181,2.552,31.384,7.654c7.202,5.103,11.486,13.22,12.854,24.353l-31.274,1.831c-0.831-4.834-2.576-8.35-5.237-10.547
	c-2.662-2.197-6.335-3.296-11.023-3.296c-3.858,0-6.764,0.818-8.716,2.453c-1.954,1.637-2.93,3.626-2.93,5.97
	c0,1.71,0.806,3.248,2.417,4.614c1.562,1.417,5.273,2.735,11.133,3.955c14.502,3.125,24.89,6.287,31.165,9.484
	c6.273,3.199,10.84,7.167,13.696,11.902c2.856,4.736,4.285,10.034,4.285,15.894c0,6.885-1.904,13.232-5.713,19.042
	c-3.809,5.813-9.131,10.219-15.967,13.221c-6.837,3.004-15.454,4.504-25.854,4.504c-18.263,0-30.908-3.516-37.939-10.547
	S432.567,306.373,431.64,295.533z"/>
<path display="none" d="M538.178,223.683h88.917v22.925h-55.664v17.065h51.635v21.899h-51.635v21.167h57.275v24.317h-90.528V223.683
	z"/>
<path display="none" d="M639.517,331.056V223.683h55.297c10.254,0,18.092,0.879,23.512,2.637s9.789,5.017,13.109,9.778
	s4.98,10.559,4.98,17.395c0,5.958-1.27,11.097-3.811,15.417c-2.541,4.322-6.035,7.826-10.479,10.511
	c-2.834,1.71-6.719,3.125-11.652,4.248c3.951,1.32,6.83,2.641,8.637,3.959c1.219,0.88,2.988,2.761,5.307,5.645
	c2.316,2.884,3.867,5.107,4.646,6.671l16.068,31.114h-37.49l-17.734-32.813c-2.246-4.248-4.248-7.006-6.006-8.276
	c-2.393-1.659-5.104-2.49-8.131-2.49h-2.93v43.58H639.517z M672.841,267.188h13.99c1.512,0,4.441-0.487,8.789-1.465
	c2.197-0.439,3.99-1.563,5.383-3.369c1.391-1.806,2.088-3.882,2.088-6.226c0-3.467-1.1-6.127-3.297-7.983
	c-2.197-1.855-6.324-2.783-12.377-2.783h-14.576V267.188z"/>
<path display="none" d="M735.142,223.683h34.684l24.166,77.271l23.857-77.271h33.674l-39.869,107.374h-35.961L735.142,223.683z"/>
<path display="none" d="M845.562,277.442c0-17.529,4.881-31.176,14.648-40.942c9.766-9.765,23.363-14.648,40.795-14.648
	c17.871,0,31.641,4.797,41.309,14.392c9.668,9.595,14.502,23.035,14.502,40.32c0,12.55-2.111,22.84-6.336,30.871
	c-4.223,8.034-10.326,14.284-18.311,18.75c-7.982,4.469-17.932,6.701-29.846,6.701c-12.109,0-22.131-1.928-30.066-5.785
	c-7.934-3.857-14.367-9.961-19.299-18.311C848.026,300.44,845.562,289.992,845.562,277.442z M878.739,277.589
	c0,10.84,2.014,18.629,6.043,23.364c4.027,4.736,9.51,7.104,16.443,7.104c7.129,0,12.645-2.318,16.553-6.958
	c3.906-4.639,5.859-12.964,5.859-24.976c0-10.107-2.039-17.492-6.117-22.156c-4.076-4.662-9.605-6.994-16.588-6.994
	c-6.691,0-12.061,2.369-16.113,7.104C880.765,258.814,878.739,266.651,878.739,277.589z"/>
<path display="none" d="M132.672,521.857v21.563c0,1.68,0.122,2.799,0.366,3.355c0.244,0.557,0.605,0.971,1.084,1.244
	c0.479,0.273,1.352,0.41,2.622,0.41v1.055h-13.037v-1.055c1.308,0,2.187-0.127,2.637-0.381c0.449-0.254,0.806-0.674,1.069-1.26
	s0.396-1.709,0.396-3.369v-10.342c0-2.91-0.088-4.795-0.264-5.654c-0.137-0.625-0.352-1.059-0.645-1.303s-0.693-0.367-1.201-0.367
	c-0.547,0-1.211,0.146-1.992,0.439l-0.41-1.055l8.086-3.281H132.672z M130.241,507.824c0.82,0,1.519,0.289,2.095,0.865
	c0.576,0.576,0.864,1.273,0.864,2.094s-0.289,1.523-0.864,2.109c-0.576,0.586-1.274,0.879-2.095,0.879s-1.523-0.293-2.109-0.879
	s-0.879-1.289-0.879-2.109s0.288-1.518,0.864-2.094C128.692,508.113,129.401,507.824,130.241,507.824z"/>
<path display="none" d="M147.907,527.541c3.145-3.789,6.142-5.684,8.994-5.684c1.465,0,2.725,0.367,3.779,1.1
	s1.894,1.938,2.52,3.617c0.429,1.172,0.645,2.969,0.645,5.391v11.455c0,1.699,0.136,2.852,0.41,3.457
	c0.215,0.488,0.561,0.869,1.04,1.143c0.479,0.273,1.362,0.41,2.651,0.41v1.055h-13.271v-1.055h0.557c1.25,0,2.124-0.189,2.622-0.57
	s0.845-0.943,1.04-1.686c0.078-0.293,0.117-1.211,0.117-2.754v-10.986c0-2.441-0.318-4.213-0.952-5.316
	c-0.635-1.104-1.704-1.656-3.208-1.656c-2.325,0-4.639,1.27-6.943,3.809v14.15c0,1.816,0.107,2.939,0.322,3.369
	c0.273,0.566,0.649,0.982,1.128,1.246c0.479,0.264,1.45,0.395,2.915,0.395v1.055H139v-1.055h0.586c1.367,0,2.29-0.346,2.769-1.039
	c0.479-0.693,0.718-2.018,0.718-3.971v-9.961c0-3.223-0.073-5.186-0.22-5.889s-0.371-1.182-0.674-1.436
	c-0.303-0.254-0.708-0.381-1.216-0.381c-0.547,0-1.201,0.146-1.963,0.439l-0.439-1.055l8.086-3.281h1.26V527.541z"/>
<path display="none" d="M177.907,527.541c3.145-3.789,6.142-5.684,8.994-5.684c1.465,0,2.725,0.367,3.779,1.1
	s1.894,1.938,2.52,3.617c0.429,1.172,0.645,2.969,0.645,5.391v11.455c0,1.699,0.136,2.852,0.41,3.457
	c0.215,0.488,0.561,0.869,1.04,1.143c0.479,0.273,1.362,0.41,2.651,0.41v1.055h-13.271v-1.055h0.557c1.25,0,2.124-0.189,2.622-0.57
	s0.845-0.943,1.04-1.686c0.078-0.293,0.117-1.211,0.117-2.754v-10.986c0-2.441-0.318-4.213-0.952-5.316
	c-0.635-1.104-1.704-1.656-3.208-1.656c-2.325,0-4.639,1.27-6.943,3.809v14.15c0,1.816,0.107,2.939,0.322,3.369
	c0.273,0.566,0.649,0.982,1.128,1.246c0.479,0.264,1.45,0.395,2.915,0.395v1.055H169v-1.055h0.586c1.367,0,2.29-0.346,2.769-1.039
	c0.479-0.693,0.718-2.018,0.718-3.971v-9.961c0-3.223-0.073-5.186-0.22-5.889s-0.371-1.182-0.674-1.436
	c-0.303-0.254-0.708-0.381-1.216-0.381c-0.547,0-1.201,0.146-1.963,0.439l-0.439-1.055l8.086-3.281h1.26V527.541z"/>
<path display="none" d="M213.209,521.857c4.062,0,7.324,1.543,9.785,4.629c2.09,2.637,3.135,5.664,3.135,9.082
	c0,2.402-0.576,4.834-1.729,7.295c-1.153,2.461-2.739,4.316-4.761,5.566s-4.273,1.875-6.753,1.875c-4.043,0-7.256-1.611-9.639-4.834
	c-2.012-2.715-3.018-5.762-3.018-9.141c0-2.461,0.61-4.906,1.831-7.338c1.22-2.432,2.827-4.229,4.819-5.391
	S210.983,521.857,213.209,521.857z M212.301,523.761c-1.036,0-2.076,0.309-3.12,0.924c-1.045,0.615-1.89,1.693-2.534,3.236
	s-0.967,3.525-0.967,5.947c0,3.906,0.776,7.275,2.329,10.107s3.599,4.248,6.138,4.248c1.894,0,3.457-0.781,4.688-2.344
	s1.846-4.248,1.846-8.057c0-4.766-1.025-8.516-3.076-11.25C216.217,524.699,214.45,523.761,212.301,523.761z"/>
<path display="none" d="M228.708,522.648h12.627v1.084h-0.82c-0.762,0-1.343,0.186-1.743,0.557c-0.4,0.371-0.601,0.869-0.601,1.494
	c0,0.684,0.205,1.494,0.615,2.432l6.24,14.824l6.27-15.381c0.449-1.094,0.674-1.924,0.674-2.49c0-0.273-0.078-0.498-0.234-0.674
	c-0.215-0.293-0.488-0.492-0.82-0.6c-0.333-0.107-1.006-0.162-2.021-0.162v-1.084h8.76v1.084c-1.016,0.078-1.719,0.283-2.109,0.615
	c-0.684,0.586-1.299,1.563-1.846,2.93l-9.521,23.027h-1.201l-9.58-22.646c-0.43-1.055-0.84-1.811-1.23-2.27
	c-0.391-0.459-0.889-0.846-1.494-1.158c-0.333-0.176-0.986-0.342-1.963-0.498V522.648z"/>
<path display="none" d="M275.29,545.617c-2.754,2.129-4.482,3.359-5.186,3.691c-1.055,0.488-2.178,0.732-3.369,0.732
	c-1.856,0-3.384-0.635-4.585-1.904s-1.802-2.939-1.802-5.01c0-1.309,0.293-2.441,0.879-3.398c0.801-1.328,2.192-2.578,4.175-3.75
	c1.982-1.172,5.278-2.598,9.888-4.277v-1.055c0-2.676-0.425-4.512-1.274-5.508s-2.085-1.494-3.706-1.494
	c-1.23,0-2.208,0.332-2.93,0.996c-0.743,0.664-1.113,1.426-1.113,2.285l0.059,1.699c0,0.898-0.23,1.592-0.688,2.08
	c-0.459,0.488-1.06,0.732-1.802,0.732c-0.723,0-1.314-0.254-1.772-0.762c-0.459-0.508-0.688-1.201-0.688-2.08
	c0-1.68,0.859-3.223,2.578-4.629c1.718-1.406,4.131-2.109,7.236-2.109c2.383,0,4.336,0.4,5.859,1.201
	c1.152,0.605,2.002,1.553,2.549,2.842c0.352,0.84,0.527,2.559,0.527,5.156v9.111c0,2.559,0.048,4.127,0.146,4.703
	c0.098,0.576,0.259,0.961,0.483,1.156c0.224,0.195,0.483,0.293,0.776,0.293c0.312,0,0.586-0.068,0.82-0.205
	c0.41-0.254,1.201-0.967,2.373-2.139v1.641c-2.188,2.93-4.277,4.395-6.27,4.395c-0.957,0-1.719-0.332-2.285-0.996
	C275.602,548.351,275.309,547.218,275.29,545.617z M275.29,543.712v-10.225c-2.949,1.172-4.854,2.002-5.713,2.49
	c-1.543,0.859-2.647,1.758-3.311,2.695c-0.664,0.938-0.996,1.963-0.996,3.076c0,1.406,0.42,2.574,1.26,3.502
	c0.839,0.928,1.806,1.391,2.9,1.391C270.914,546.642,272.868,545.666,275.29,543.712z"/>
<path display="none" d="M294.508,513.83v8.818h6.27v2.051h-6.27v17.402c0,1.738,0.249,2.91,0.747,3.516s1.138,0.908,1.919,0.908
	c0.645,0,1.27-0.199,1.875-0.6c0.605-0.4,1.074-0.992,1.406-1.773h1.143c-0.684,1.914-1.651,3.355-2.9,4.322
	c-1.25,0.967-2.539,1.449-3.867,1.449c-0.898,0-1.777-0.248-2.637-0.746c-0.86-0.498-1.494-1.211-1.904-2.139
	s-0.615-2.359-0.615-4.293v-18.047h-4.248v-0.967c1.074-0.43,2.172-1.156,3.296-2.182c1.123-1.025,2.124-2.242,3.003-3.648
	c0.449-0.742,1.074-2.1,1.875-4.072H294.508z"/>
<path display="none" d="M312.643,521.857v21.563c0,1.68,0.122,2.799,0.366,3.355c0.244,0.557,0.605,0.971,1.084,1.244
	c0.479,0.273,1.352,0.41,2.622,0.41v1.055h-13.037v-1.055c1.308,0,2.187-0.127,2.637-0.381c0.449-0.254,0.806-0.674,1.069-1.26
	s0.396-1.709,0.396-3.369v-10.342c0-2.91-0.088-4.795-0.264-5.654c-0.137-0.625-0.352-1.059-0.645-1.303s-0.693-0.367-1.201-0.367
	c-0.547,0-1.211,0.146-1.992,0.439l-0.41-1.055l8.086-3.281H312.643z M310.211,507.824c0.82,0,1.519,0.289,2.095,0.865
	c0.576,0.576,0.864,1.273,0.864,2.094s-0.289,1.523-0.864,2.109c-0.576,0.586-1.274,0.879-2.095,0.879s-1.523-0.293-2.109-0.879
	s-0.879-1.289-0.879-2.109s0.288-1.518,0.864-2.094C308.663,508.113,309.372,507.824,310.211,507.824z"/>
<path display="none" d="M333.18,521.857c4.062,0,7.324,1.543,9.785,4.629c2.09,2.637,3.135,5.664,3.135,9.082
	c0,2.402-0.576,4.834-1.729,7.295c-1.153,2.461-2.739,4.316-4.761,5.566s-4.273,1.875-6.753,1.875c-4.043,0-7.256-1.611-9.639-4.834
	c-2.012-2.715-3.018-5.762-3.018-9.141c0-2.461,0.61-4.906,1.831-7.338c1.22-2.432,2.827-4.229,4.819-5.391
	S330.954,521.857,333.18,521.857z M332.272,523.761c-1.036,0-2.076,0.309-3.12,0.924c-1.045,0.615-1.89,1.693-2.534,3.236
	s-0.967,3.525-0.967,5.947c0,3.906,0.776,7.275,2.329,10.107s3.599,4.248,6.138,4.248c1.894,0,3.457-0.781,4.688-2.344
	s1.846-4.248,1.846-8.057c0-4.766-1.025-8.516-3.076-11.25C336.188,524.699,334.42,523.761,332.272,523.761z"/>
<path display="none" d="M357.877,527.541c3.145-3.789,6.142-5.684,8.994-5.684c1.465,0,2.725,0.367,3.779,1.1
	s1.894,1.938,2.52,3.617c0.429,1.172,0.645,2.969,0.645,5.391v11.455c0,1.699,0.136,2.852,0.41,3.457
	c0.215,0.488,0.561,0.869,1.04,1.143c0.479,0.273,1.362,0.41,2.651,0.41v1.055h-13.271v-1.055h0.557c1.25,0,2.124-0.189,2.622-0.57
	s0.845-0.943,1.04-1.686c0.078-0.293,0.117-1.211,0.117-2.754v-10.986c0-2.441-0.318-4.213-0.952-5.316
	c-0.635-1.104-1.704-1.656-3.208-1.656c-2.325,0-4.639,1.27-6.943,3.809v14.15c0,1.816,0.107,2.939,0.322,3.369
	c0.273,0.566,0.649,0.982,1.128,1.246c0.479,0.264,1.45,0.395,2.915,0.395v1.055h-13.271v-1.055h0.586
	c1.367,0,2.29-0.346,2.769-1.039c0.479-0.693,0.718-2.018,0.718-3.971v-9.961c0-3.223-0.073-5.186-0.22-5.889
	s-0.371-1.182-0.674-1.436c-0.303-0.254-0.708-0.381-1.216-0.381c-0.547,0-1.201,0.146-1.963,0.439l-0.439-1.055l8.086-3.281h1.26
	V527.541z"/>
<path display="none" d="M402.907,521.857v6.035c2.246-4.023,4.551-6.035,6.914-6.035c1.074,0,1.963,0.328,2.666,0.982
	s1.055,1.41,1.055,2.27c0,0.762-0.254,1.406-0.762,1.934c-0.508,0.527-1.113,0.791-1.816,0.791c-0.684,0-1.45-0.336-2.3-1.01
	s-1.479-1.012-1.89-1.012c-0.352,0-0.732,0.195-1.143,0.586c-0.879,0.801-1.787,2.119-2.725,3.955v12.861
	c0,1.484,0.186,2.607,0.557,3.369c0.253,0.527,0.703,0.967,1.348,1.318s1.572,0.527,2.783,0.527v1.055h-13.74v-1.055
	c1.367,0,2.383-0.215,3.047-0.645c0.488-0.313,0.83-0.811,1.025-1.494c0.098-0.332,0.146-1.279,0.146-2.842v-10.4
	c0-3.125-0.063-4.984-0.19-5.58c-0.127-0.596-0.362-1.031-0.703-1.305c-0.342-0.273-0.767-0.41-1.274-0.41
	c-0.605,0-1.289,0.146-2.051,0.439l-0.293-1.055l8.115-3.281H402.907z"/>
<path display="none" d="M419.547,532.755c-0.02,3.984,0.947,7.109,2.9,9.375c1.953,2.266,4.248,3.398,6.885,3.398
	c1.758,0,3.286-0.482,4.585-1.449c1.299-0.967,2.388-2.623,3.267-4.967l0.908,0.586c-0.41,2.676-1.602,5.113-3.574,7.311
	c-1.973,2.197-4.443,3.295-7.412,3.295c-3.223,0-5.981-1.254-8.276-3.764c-2.295-2.51-3.442-5.885-3.442-10.123
	c0-4.59,1.176-8.168,3.53-10.736c2.354-2.568,5.307-3.854,8.862-3.854c3.007,0,5.479,0.992,7.412,2.975s2.9,4.633,2.9,7.953H419.547
	z M419.547,531.056h12.422c-0.098-1.719-0.303-2.93-0.615-3.633c-0.488-1.094-1.216-1.953-2.183-2.578s-1.978-0.938-3.032-0.938
	c-1.622,0-3.072,0.631-4.351,1.891C420.509,527.058,419.762,528.81,419.547,531.056z"/>
<path display="none" d="M440.29,522.648h12.627v1.084h-0.82c-0.762,0-1.343,0.186-1.743,0.557c-0.4,0.371-0.601,0.869-0.601,1.494
	c0,0.684,0.205,1.494,0.615,2.432l6.24,14.824l6.27-15.381c0.449-1.094,0.674-1.924,0.674-2.49c0-0.273-0.078-0.498-0.234-0.674
	c-0.215-0.293-0.488-0.492-0.82-0.6c-0.333-0.107-1.006-0.162-2.021-0.162v-1.084h8.76v1.084c-1.016,0.078-1.719,0.283-2.109,0.615
	c-0.684,0.586-1.299,1.563-1.846,2.93l-9.521,23.027h-1.201l-9.58-22.646c-0.43-1.055-0.84-1.811-1.23-2.27
	c-0.391-0.459-0.889-0.846-1.494-1.158c-0.333-0.176-0.986-0.342-1.963-0.498V522.648z"/>
<path display="none" d="M484.792,521.857c4.062,0,7.324,1.543,9.785,4.629c2.09,2.637,3.135,5.664,3.135,9.082
	c0,2.402-0.576,4.834-1.729,7.295c-1.153,2.461-2.739,4.316-4.761,5.566s-4.273,1.875-6.753,1.875c-4.043,0-7.256-1.611-9.639-4.834
	c-2.012-2.715-3.018-5.762-3.018-9.141c0-2.461,0.61-4.906,1.831-7.338c1.22-2.432,2.827-4.229,4.819-5.391
	S482.565,521.857,484.792,521.857z M483.883,523.761c-1.036,0-2.076,0.309-3.12,0.924c-1.045,0.615-1.89,1.693-2.534,3.236
	s-0.967,3.525-0.967,5.947c0,3.906,0.776,7.275,2.329,10.107s3.599,4.248,6.138,4.248c1.894,0,3.457-0.781,4.688-2.344
	s1.846-4.248,1.846-8.057c0-4.766-1.025-8.516-3.076-11.25C487.799,524.699,486.032,523.761,483.883,523.761z"/>
<path display="none" d="M510.895,507.824v35.596c0,1.68,0.122,2.793,0.366,3.34c0.244,0.547,0.62,0.963,1.128,1.246
	c0.508,0.283,1.455,0.424,2.842,0.424v1.055h-13.154v-1.055c1.23,0,2.07-0.127,2.52-0.381c0.449-0.254,0.801-0.674,1.055-1.26
	c0.253-0.586,0.381-1.709,0.381-3.369v-24.375c0-3.027-0.069-4.887-0.205-5.58c-0.137-0.693-0.356-1.168-0.659-1.422
	c-0.303-0.254-0.688-0.381-1.157-0.381c-0.508,0-1.153,0.156-1.934,0.469l-0.498-1.025l7.998-3.281H510.895z"/>
<path display="none" d="M541.862,522.648v16.26c0,3.105,0.073,5.006,0.22,5.699s0.381,1.176,0.703,1.449s0.698,0.41,1.128,0.41
	c0.605,0,1.289-0.166,2.051-0.498l0.41,1.025l-8.027,3.311h-1.318v-5.684c-2.305,2.5-4.063,4.072-5.273,4.717
	c-1.211,0.645-2.49,0.967-3.838,0.967c-1.504,0-2.808-0.434-3.911-1.303c-1.104-0.869-1.871-1.988-2.3-3.355
	c-0.43-1.367-0.645-3.301-0.645-5.801v-11.982c0-1.27-0.137-2.148-0.41-2.637c-0.274-0.488-0.679-0.863-1.216-1.127
	c-0.538-0.264-1.509-0.387-2.915-0.367v-1.084h9.404v17.959c0,2.5,0.435,4.141,1.304,4.922c0.869,0.781,1.919,1.172,3.149,1.172
	c0.839,0,1.792-0.264,2.856-0.791c1.064-0.527,2.329-1.533,3.794-3.018v-15.205c0-1.523-0.278-2.553-0.835-3.09
	s-1.714-0.826-3.472-0.865v-1.084H541.862z"/>
<path display="none" d="M556.129,513.83v8.818h6.27v2.051h-6.27v17.402c0,1.738,0.249,2.91,0.747,3.516s1.138,0.908,1.919,0.908
	c0.645,0,1.27-0.199,1.875-0.6s1.074-0.992,1.406-1.773h1.143c-0.684,1.914-1.65,3.355-2.9,4.322s-2.539,1.449-3.867,1.449
	c-0.898,0-1.777-0.248-2.637-0.746s-1.494-1.211-1.904-2.139s-0.615-2.359-0.615-4.293v-18.047h-4.248v-0.967
	c1.074-0.43,2.173-1.156,3.296-2.182s2.124-2.242,3.003-3.648c0.449-0.742,1.074-2.1,1.875-4.072H556.129z"/>
<path display="none" d="M574.265,521.857v21.563c0,1.68,0.121,2.799,0.365,3.355s0.605,0.971,1.084,1.244s1.354,0.41,2.623,0.41
	v1.055h-13.038v-1.055c1.309,0,2.188-0.127,2.637-0.381s0.805-0.674,1.068-1.26s0.396-1.709,0.396-3.369v-10.342
	c0-2.91-0.088-4.795-0.264-5.654c-0.137-0.625-0.352-1.059-0.645-1.303s-0.693-0.367-1.201-0.367c-0.547,0-1.211,0.146-1.993,0.439
	l-0.41-1.055l8.086-3.281H574.265z M571.833,507.824c0.82,0,1.518,0.289,2.094,0.865s0.865,1.273,0.865,2.094
	s-0.289,1.523-0.865,2.109s-1.273,0.879-2.094,0.879s-1.523-0.293-2.109-0.879s-0.879-1.289-0.879-2.109s0.287-1.518,0.863-2.094
	S570.993,507.824,571.833,507.824z"/>
<path display="none" d="M594.802,521.857c4.063,0,7.324,1.543,9.785,4.629c2.09,2.637,3.135,5.664,3.135,9.082
	c0,2.402-0.576,4.834-1.729,7.295s-2.74,4.316-4.762,5.566s-4.271,1.875-6.752,1.875c-4.043,0-7.256-1.611-9.639-4.834
	c-2.012-2.715-3.018-5.762-3.018-9.141c0-2.461,0.609-4.906,1.83-7.338s2.828-4.229,4.82-5.391S592.575,521.857,594.802,521.857z
	 M593.894,523.761c-1.035,0-2.076,0.309-3.121,0.924s-1.889,1.693-2.533,3.236s-0.967,3.525-0.967,5.947
	c0,3.906,0.775,7.275,2.328,10.107s3.6,4.248,6.139,4.248c1.895,0,3.457-0.781,4.688-2.344s1.846-4.248,1.846-8.057
	c0-4.766-1.025-8.516-3.076-11.25C597.81,524.699,596.042,523.761,593.894,523.761z"/>
<path display="none" d="M619.499,527.541c3.145-3.789,6.143-5.684,8.994-5.684c1.465,0,2.725,0.367,3.779,1.1
	s1.895,1.938,2.52,3.617c0.43,1.172,0.645,2.969,0.645,5.391v11.455c0,1.699,0.137,2.852,0.41,3.457
	c0.215,0.488,0.561,0.869,1.039,1.143s1.363,0.41,2.652,0.41v1.055h-13.271v-1.055h0.557c1.25,0,2.123-0.189,2.621-0.57
	s0.846-0.943,1.041-1.686c0.078-0.293,0.117-1.211,0.117-2.754v-10.986c0-2.441-0.318-4.213-0.953-5.316s-1.703-1.656-3.207-1.656
	c-2.324,0-4.639,1.27-6.943,3.809v14.15c0,1.816,0.107,2.939,0.322,3.369c0.273,0.566,0.648,0.982,1.127,1.246
	s1.451,0.395,2.916,0.395v1.055h-13.271v-1.055h0.586c1.367,0,2.289-0.346,2.768-1.039s0.719-2.018,0.719-3.971v-9.961
	c0-3.223-0.074-5.186-0.221-5.889s-0.371-1.182-0.674-1.436s-0.707-0.381-1.215-0.381c-0.547,0-1.201,0.146-1.963,0.439
	l-0.439-1.055l8.086-3.281h1.26V527.541z"/>
<path display="none" d="M650.935,521.857v21.563c0,1.68,0.121,2.799,0.365,3.355s0.605,0.971,1.084,1.244s1.354,0.41,2.623,0.41
	v1.055H641.97v-1.055c1.309,0,2.188-0.127,2.637-0.381s0.805-0.674,1.068-1.26s0.396-1.709,0.396-3.369v-10.342
	c0-2.91-0.088-4.795-0.264-5.654c-0.137-0.625-0.352-1.059-0.645-1.303s-0.693-0.367-1.201-0.367c-0.547,0-1.211,0.146-1.992,0.439
	l-0.41-1.055l8.086-3.281H650.935z M648.503,507.824c0.82,0,1.518,0.289,2.094,0.865s0.865,1.273,0.865,2.094
	s-0.289,1.523-0.865,2.109s-1.273,0.879-2.094,0.879s-1.523-0.293-2.109-0.879s-0.879-1.289-0.879-2.109s0.287-1.518,0.863-2.094
	S647.663,507.824,648.503,507.824z"/>
<path display="none" d="M681.667,541.251l-0.322,8.232h-23.672v-1.055l17.813-23.73h-8.789c-1.895,0-3.135,0.123-3.721,0.367
	s-1.064,0.707-1.436,1.391c-0.527,0.977-0.83,2.188-0.908,3.633h-1.172l0.176-7.441h22.5v1.084l-17.988,23.789h9.785
	c2.051,0,3.441-0.17,4.174-0.512s1.324-0.943,1.773-1.803c0.313-0.625,0.576-1.943,0.791-3.955H681.667z"/>
<path display="none" d="M694.235,521.857v21.563c0,1.68,0.121,2.799,0.365,3.355s0.605,0.971,1.084,1.244s1.354,0.41,2.623,0.41
	v1.055h-13.037v-1.055c1.309,0,2.188-0.127,2.637-0.381s0.805-0.674,1.068-1.26s0.396-1.709,0.396-3.369v-10.342
	c0-2.91-0.088-4.795-0.264-5.654c-0.137-0.625-0.352-1.059-0.645-1.303s-0.693-0.367-1.201-0.367c-0.547,0-1.211,0.146-1.992,0.439
	l-0.41-1.055l8.086-3.281H694.235z M691.804,507.824c0.82,0,1.518,0.289,2.094,0.865s0.865,1.273,0.865,2.094
	s-0.289,1.523-0.865,2.109s-1.273,0.879-2.094,0.879s-1.523-0.293-2.109-0.879s-0.879-1.289-0.879-2.109s0.287-1.518,0.863-2.094
	S690.964,507.824,691.804,507.824z"/>
<path display="none" d="M709.47,527.541c3.145-3.789,6.143-5.684,8.994-5.684c1.465,0,2.725,0.367,3.779,1.1s1.895,1.938,2.52,3.617
	c0.43,1.172,0.645,2.969,0.645,5.391v11.455c0,1.699,0.137,2.852,0.41,3.457c0.215,0.488,0.561,0.869,1.039,1.143
	s1.363,0.41,2.652,0.41v1.055h-13.271v-1.055h0.557c1.25,0,2.123-0.189,2.621-0.57s0.846-0.943,1.041-1.686
	c0.078-0.293,0.117-1.211,0.117-2.754v-10.986c0-2.441-0.318-4.213-0.953-5.316s-1.703-1.656-3.207-1.656
	c-2.324,0-4.639,1.27-6.943,3.809v14.15c0,1.816,0.107,2.939,0.322,3.369c0.273,0.566,0.648,0.982,1.127,1.246
	s1.451,0.395,2.916,0.395v1.055h-13.271v-1.055h0.586c1.367,0,2.289-0.346,2.768-1.039s0.719-2.018,0.719-3.971v-9.961
	c0-3.223-0.074-5.186-0.221-5.889s-0.371-1.182-0.674-1.436s-0.707-0.381-1.215-0.381c-0.547,0-1.201,0.146-1.963,0.439
	l-0.439-1.055l8.086-3.281h1.26V527.541z"/>
<path display="none" d="M738.825,539.699c-1.641-0.801-2.9-1.918-3.779-3.354s-1.318-3.023-1.318-4.762c0-2.656,1-4.941,3.002-6.855
	s4.566-2.871,7.691-2.871c2.559,0,4.775,0.625,6.65,1.875h5.684c0.84,0,1.328,0.025,1.465,0.074s0.234,0.131,0.293,0.248
	c0.117,0.176,0.176,0.488,0.176,0.938c0,0.508-0.049,0.859-0.146,1.055c-0.059,0.098-0.162,0.176-0.309,0.234
	s-0.639,0.088-1.479,0.088h-3.486c1.094,1.406,1.641,3.203,1.641,5.391c0,2.5-0.957,4.639-2.871,6.416s-4.482,2.666-7.705,2.666
	c-1.328,0-2.686-0.195-4.072-0.586c-0.859,0.742-1.441,1.393-1.744,1.949s-0.453,1.029-0.453,1.42c0,0.332,0.16,0.654,0.482,0.967
	s0.953,0.537,1.891,0.674c0.547,0.078,1.914,0.146,4.102,0.205c4.023,0.098,6.631,0.234,7.822,0.41
	c1.816,0.254,3.266,0.928,4.35,2.021s1.627,2.441,1.627,4.043c0,2.207-1.035,4.277-3.105,6.211
	c-3.047,2.852-7.021,4.277-11.924,4.277c-3.77,0-6.953-0.85-9.551-2.549c-1.465-0.977-2.197-1.992-2.197-3.047
	c0-0.469,0.107-0.938,0.322-1.406c0.332-0.723,1.016-1.729,2.051-3.018c0.137-0.176,1.133-1.23,2.988-3.164
	c-1.016-0.605-1.734-1.146-2.154-1.625s-0.629-1.021-0.629-1.627c0-0.684,0.277-1.484,0.834-2.402S736.813,541.378,738.825,539.699z
	 M738.532,549.484c-0.918,0.996-1.611,1.924-2.08,2.783s-0.703,1.65-0.703,2.373c0,0.938,0.566,1.758,1.699,2.461
	c1.953,1.211,4.775,1.816,8.467,1.816c3.516,0,6.107-0.619,7.777-1.859s2.506-2.564,2.506-3.971c0-1.016-0.498-1.738-1.494-2.168
	c-1.016-0.43-3.027-0.684-6.035-0.762C744.274,550.041,740.896,549.816,738.532,549.484z M743.923,523.263
	c-1.445,0-2.656,0.576-3.633,1.729s-1.465,2.92-1.465,5.303c0,3.086,0.664,5.479,1.992,7.178c1.016,1.289,2.305,1.934,3.867,1.934
	c1.484,0,2.705-0.557,3.662-1.67s1.436-2.861,1.436-5.244c0-3.105-0.674-5.537-2.021-7.295
	C746.765,523.908,745.485,523.263,743.923,523.263z"/>
<path display="none" d="M784.44,513.83v8.818h6.27v2.051h-6.27v17.402c0,1.738,0.248,2.91,0.746,3.516s1.139,0.908,1.92,0.908
	c0.645,0,1.27-0.199,1.875-0.6s1.074-0.992,1.406-1.773h1.143c-0.684,1.914-1.65,3.355-2.9,4.322s-2.539,1.449-3.867,1.449
	c-0.898,0-1.777-0.248-2.637-0.746s-1.494-1.211-1.904-2.139s-0.615-2.359-0.615-4.293v-18.047h-4.248v-0.967
	c1.074-0.43,2.172-1.156,3.295-2.182s2.125-2.242,3.004-3.648c0.449-0.742,1.074-2.1,1.875-4.072H784.44z"/>
<path display="none" d="M806.442,521.857c4.063,0,7.324,1.543,9.785,4.629c2.09,2.637,3.135,5.664,3.135,9.082
	c0,2.402-0.576,4.834-1.729,7.295s-2.74,4.316-4.762,5.566s-4.271,1.875-6.752,1.875c-4.043,0-7.256-1.611-9.639-4.834
	c-2.012-2.715-3.018-5.762-3.018-9.141c0-2.461,0.609-4.906,1.83-7.338s2.828-4.229,4.82-5.391S804.216,521.857,806.442,521.857z
	 M805.534,523.761c-1.035,0-2.076,0.309-3.121,0.924s-1.889,1.693-2.533,3.236s-0.967,3.525-0.967,5.947
	c0,3.906,0.775,7.275,2.328,10.107s3.6,4.248,6.139,4.248c1.895,0,3.457-0.781,4.688-2.344s1.846-4.248,1.846-8.057
	c0-4.766-1.025-8.516-3.076-11.25C809.45,524.699,807.683,523.761,805.534,523.761z"/>
<path display="none" d="M831.286,527.57c1.953-1.953,3.105-3.076,3.457-3.369c0.879-0.742,1.826-1.318,2.842-1.729
	s2.021-0.615,3.018-0.615c1.68,0,3.125,0.488,4.336,1.465s2.021,2.393,2.432,4.248c2.012-2.344,3.711-3.881,5.098-4.613
	s2.813-1.1,4.277-1.1c1.426,0,2.689,0.367,3.793,1.1s1.979,1.928,2.623,3.588c0.43,1.133,0.645,2.91,0.645,5.332v11.543
	c0,1.68,0.127,2.832,0.381,3.457c0.195,0.43,0.557,0.797,1.084,1.1s1.387,0.453,2.578,0.453v1.055h-13.242v-1.055h0.557
	c1.152,0,2.051-0.225,2.695-0.674c0.449-0.313,0.771-0.811,0.967-1.494c0.078-0.332,0.117-1.279,0.117-2.842v-11.543
	c0-2.188-0.264-3.73-0.791-4.629c-0.762-1.25-1.982-1.875-3.662-1.875c-1.035,0-2.076,0.26-3.121,0.777s-2.309,1.479-3.793,2.885
	l-0.059,0.322l0.059,1.26v12.803c0,1.836,0.102,2.979,0.307,3.428s0.592,0.826,1.158,1.129s1.533,0.453,2.9,0.453v1.055h-13.564
	v-1.055c1.484,0,2.504-0.176,3.061-0.527s0.943-0.879,1.158-1.582c0.098-0.332,0.146-1.299,0.146-2.9v-11.543
	c0-2.188-0.322-3.76-0.967-4.717c-0.859-1.25-2.061-1.875-3.604-1.875c-1.055,0-2.1,0.283-3.135,0.85
	c-1.621,0.859-2.871,1.826-3.75,2.9v14.385c0,1.758,0.121,2.9,0.365,3.428s0.605,0.924,1.084,1.188s1.451,0.395,2.916,0.395v1.055
	H822.38v-1.055c1.23,0,2.09-0.131,2.578-0.395s0.859-0.684,1.113-1.26s0.381-1.695,0.381-3.355v-10.254
	c0-2.949-0.088-4.854-0.264-5.713c-0.137-0.645-0.352-1.088-0.645-1.332s-0.693-0.367-1.201-0.367c-0.547,0-1.201,0.146-1.963,0.439
	l-0.439-1.055l8.086-3.281h1.26V527.57z"/>
<path display="none" d="M883.112,521.857c4.063,0,7.324,1.543,9.785,4.629c2.09,2.637,3.135,5.664,3.135,9.082
	c0,2.402-0.576,4.834-1.729,7.295s-2.74,4.316-4.762,5.566s-4.271,1.875-6.752,1.875c-4.043,0-7.256-1.611-9.639-4.834
	c-2.012-2.715-3.018-5.762-3.018-9.141c0-2.461,0.609-4.906,1.83-7.338s2.828-4.229,4.82-5.391S880.886,521.857,883.112,521.857z
	 M882.204,523.761c-1.035,0-2.076,0.309-3.121,0.924s-1.889,1.693-2.533,3.236s-0.967,3.525-0.967,5.947
	c0,3.906,0.775,7.275,2.328,10.107s3.6,4.248,6.139,4.248c1.895,0,3.457-0.781,4.688-2.344s1.846-4.248,1.846-8.057
	c0-4.766-1.025-8.516-3.076-11.25C886.12,524.699,884.353,523.761,882.204,523.761z"/>
<path display="none" d="M907.839,521.857v6.035c2.246-4.023,4.551-6.035,6.914-6.035c1.074,0,1.963,0.328,2.666,0.982
	s1.055,1.41,1.055,2.27c0,0.762-0.254,1.406-0.762,1.934s-1.113,0.791-1.816,0.791c-0.684,0-1.451-0.336-2.301-1.01
	s-1.479-1.012-1.889-1.012c-0.352,0-0.732,0.195-1.143,0.586c-0.879,0.801-1.787,2.119-2.725,3.955v12.861
	c0,1.484,0.186,2.607,0.557,3.369c0.254,0.527,0.703,0.967,1.348,1.318s1.572,0.527,2.783,0.527v1.055h-13.74v-1.055
	c1.367,0,2.383-0.215,3.047-0.645c0.488-0.313,0.83-0.811,1.025-1.494c0.098-0.332,0.146-1.279,0.146-2.842v-10.4
	c0-3.125-0.064-4.984-0.191-5.58s-0.361-1.031-0.703-1.305s-0.766-0.41-1.273-0.41c-0.605,0-1.289,0.146-2.051,0.439l-0.293-1.055
	l8.115-3.281H907.839z"/>
<path display="none" d="M927.819,521.857v6.035c2.246-4.023,4.551-6.035,6.914-6.035c1.074,0,1.963,0.328,2.666,0.982
	s1.055,1.41,1.055,2.27c0,0.762-0.254,1.406-0.762,1.934s-1.113,0.791-1.816,0.791c-0.684,0-1.451-0.336-2.301-1.01
	s-1.479-1.012-1.889-1.012c-0.352,0-0.732,0.195-1.143,0.586c-0.879,0.801-1.787,2.119-2.725,3.955v12.861
	c0,1.484,0.186,2.607,0.557,3.369c0.254,0.527,0.703,0.967,1.348,1.318s1.572,0.527,2.783,0.527v1.055h-13.74v-1.055
	c1.367,0,2.383-0.215,3.047-0.645c0.488-0.313,0.83-0.811,1.025-1.494c0.098-0.332,0.146-1.279,0.146-2.842v-10.4
	c0-3.125-0.064-4.984-0.191-5.58s-0.361-1.031-0.703-1.305s-0.766-0.41-1.273-0.41c-0.605,0-1.289,0.146-2.051,0.439l-0.293-1.055
	l8.115-3.281H927.819z"/>
<path display="none" d="M953.073,521.857c4.063,0,7.324,1.543,9.785,4.629c2.09,2.637,3.135,5.664,3.135,9.082
	c0,2.402-0.576,4.834-1.729,7.295s-2.74,4.316-4.762,5.566s-4.271,1.875-6.752,1.875c-4.043,0-7.256-1.611-9.639-4.834
	c-2.012-2.715-3.018-5.762-3.018-9.141c0-2.461,0.609-4.906,1.83-7.338s2.828-4.229,4.82-5.391S950.847,521.857,953.073,521.857z
	 M952.165,523.761c-1.035,0-2.076,0.309-3.121,0.924s-1.889,1.693-2.533,3.236s-0.967,3.525-0.967,5.947
	c0,3.906,0.775,7.275,2.328,10.107s3.6,4.248,6.139,4.248c1.895,0,3.457-0.781,4.688-2.344s1.846-4.248,1.846-8.057
	c0-4.766-1.025-8.516-3.076-11.25C956.081,524.699,954.313,523.761,952.165,523.761z"/>
<path display="none" d="M968.454,522.648h11.25v1.084c-1.035,0.078-1.715,0.264-2.037,0.557s-0.482,0.713-0.482,1.26
	c0,0.605,0.166,1.338,0.498,2.197l5.742,15.439l5.771-12.568l-1.523-3.955c-0.469-1.172-1.084-1.982-1.846-2.432
	c-0.43-0.273-1.23-0.439-2.402-0.498v-1.084h12.773v1.084c-1.406,0.059-2.402,0.313-2.988,0.762
	c-0.391,0.313-0.586,0.811-0.586,1.494c0,0.391,0.078,0.791,0.234,1.201l6.094,15.41l5.654-14.854
	c0.391-1.055,0.586-1.895,0.586-2.52c0-0.371-0.191-0.703-0.572-0.996s-1.127-0.459-2.24-0.498v-1.084h8.467v1.084
	c-1.699,0.254-2.949,1.406-3.75,3.457l-8.965,23.115h-1.201l-6.709-17.139l-7.822,17.139h-1.084l-8.613-22.559
	c-0.566-1.426-1.123-2.387-1.67-2.885s-1.406-0.875-2.578-1.129V522.648z"/>
<path display="none" d="M193.223,484.55v8.041c-25.582-3.525-46.374-13.898-62.378-31.131
	c-16.007-17.232-24.009-36.34-24.009-57.324c0-11.027,1.759-23.854,5.284-38.482c3.522-14.625,5.285-25.998,5.285-34.119
	c0-11.027-4.635-21.328-13.9-30.902c-9.269-9.571-22.096-15.429-38.483-17.576v-9.42c16.388-2.143,29.214-7.962,38.483-17.461
	c9.266-9.496,13.9-19.834,13.9-31.017c0-8.117-1.763-19.45-5.285-34.003c-3.525-14.55-5.284-27.416-5.284-38.599
	c0-20.829,8.002-39.898,24.009-57.208c16.004-17.307,36.796-27.646,62.378-31.017v8.042c-17.92,4.29-31.056,11.297-39.402,21.022
	c-8.35,9.729-12.522,20.412-12.522,32.051c0,9.039,1.723,20.947,5.169,35.727c3.446,14.783,5.17,27.38,5.17,37.794
	c0,15.473-5.669,30.482-17.002,45.032c-11.337,14.554-28.26,25.812-50.775,33.774c22.056,8.12,38.864,19.608,50.431,34.463
	c11.563,14.858,17.347,30.022,17.347,45.491c0,10.418-1.724,23.016-5.17,37.795s-5.169,26.688-5.169,35.727
	c0,11.639,4.172,22.322,12.522,32.051C162.167,473.023,175.302,480.107,193.223,484.55z"/>
<path display="none" d="M935.45,72.373v-8.042c25.578,3.371,46.37,13.67,62.377,30.902c16.004,17.232,24.01,36.416,24.01,57.554
	c0,11.028-1.763,23.819-5.284,38.369c-3.525,14.554-5.284,25.887-5.284,34.003c0,11.028,4.631,21.332,13.9,30.902
	c9.266,9.574,22.092,15.433,38.483,17.576v9.42c-16.392,2.147-29.218,8.005-38.483,17.576c-9.27,9.574-13.9,19.875-13.9,30.902
	c0,8.121,1.759,19.494,5.284,34.119c3.521,14.629,5.284,27.455,5.284,38.482c0,20.83-8.006,39.898-24.01,57.209
	c-16.007,17.307-36.799,27.721-62.377,31.246v-8.041c17.92-4.443,31.053-11.486,39.402-21.137
	c8.346-9.65,12.521-20.373,12.521-32.166c0-9.039-1.763-20.947-5.284-35.727c-3.525-14.779-5.284-27.301-5.284-37.564
	c0-15.623,5.704-30.709,17.116-45.262c11.409-14.55,28.374-25.808,50.891-33.773c-22.057-8.117-38.907-19.604-50.546-34.463
	c-11.643-14.855-17.461-30.019-17.461-45.491c0-10.414,1.759-23.011,5.284-37.794c3.521-14.78,5.284-26.688,5.284-35.727
	c0-11.639-4.176-22.322-12.521-32.051C966.503,83.67,953.37,76.663,935.45,72.373z"/>
</svg>
