<?xml version="1.0" encoding="utf-8"?>
<!-- Generator: Adobe Illustrator 15.1.0, SVG Export Plug-In  -->
<!DOCTYPE svg PUBLIC "-//W3C//DTD SVG 1.1//EN" "http://www.w3.org/Graphics/SVG/1.1/DTD/svg11.dtd" [
	<!ENTITY ns_flows "http://ns.adobe.com/Flows/1.0/">
]>
<svg version="1.1"
	 xmlns="http://www.w3.org/2000/svg" xmlns:xlink="http://www.w3.org/1999/xlink" xmlns:a="http://ns.adobe.com/AdobeSVGViewerExtensions/3.0/"
	 x="0px" y="0px" width="1000px" height="420px" viewBox="34.452 68.893 1000 420" enable-background="new 34.452 68.893 1000 420"
	 xml:space="preserve">
<defs>
</defs>
<text transform="matrix(1 0 0 1 145.5508 332.6128)" display="none"><tspan x="0" y="0" display="inline" font-family="'TimesNewRomanPS-BoldItalicMT'" font-size="150" letter-spacing="-7">inno</tspan><tspan x="253.521" y="0" display="inline" font-family="'Arial-Black'" font-size="150" letter-spacing="-7">SERVO</tspan></text>
<text transform="matrix(1 0 0 1 0 391.0405)" display="none" font-family="'TimesNewRomanPS-BoldMT'" font-size="470.5356">{</text>
<text transform="matrix(1 0 0 1 881.1509 391.0405)" display="none" font-family="'TimesNewRomanPS-BoldMT'" font-size="470.5356">}</text>
<path display="none" d="M183.783,264.717l-15.015,52.075c-0.831,2.979-1.245,4.933-1.245,5.859c0,0.538,0.22,1.038,0.659,1.502
	s0.903,0.695,1.392,0.695c0.83,0,1.659-0.366,2.49-1.099c2.197-1.806,4.834-5.078,7.91-9.814l2.49,1.465
	c-7.374,12.843-15.21,19.263-23.511,19.263c-3.175,0-5.702-0.892-7.581-2.674c-1.88-1.781-2.82-4.039-2.82-6.774
	c0-1.806,0.414-4.102,1.245-6.885l10.181-35.01c0.976-3.369,1.465-5.907,1.465-7.617c0-1.073-0.465-2.025-1.392-2.856
	c-0.928-0.83-2.197-1.245-3.809-1.245c-0.732,0-1.611,0.025-2.637,0.073l0.952-2.93l24.829-4.028H183.783z M179.242,231.026
	c3.027,0,5.578,1.051,7.654,3.149c2.075,2.1,3.113,4.64,3.113,7.617c0,2.979-1.051,5.519-3.149,7.617
	c-2.1,2.1-4.64,3.149-7.617,3.149c-2.93,0-5.445-1.05-7.544-3.149c-2.1-2.099-3.149-4.639-3.149-7.617
	c0-2.978,1.037-5.517,3.113-7.617C173.736,232.077,176.263,231.026,179.242,231.026z"/>
<path display="none" d="M219.789,264.717l-9.082,31.421c6.103-9.18,10.668-15.454,13.696-18.823
	c4.442-4.882,8.276-8.203,11.499-9.961s6.25-2.637,9.082-2.637c2.538,0,4.711,0.94,6.519,2.819c1.806,1.881,2.71,4.334,2.71,7.361
	c0,2.735-0.586,6.055-1.758,9.961l-9.375,31.274c-0.782,2.735-1.172,4.517-1.172,5.347c0,0.488,0.183,0.928,0.549,1.318
	c0.366,0.392,0.744,0.586,1.135,0.586c0.487,0,1-0.194,1.538-0.586c1.708-1.416,3.442-3.417,5.2-6.006
	c0.439-0.684,1.146-1.709,2.124-3.076l2.783,1.685c-7.178,12.061-14.722,18.091-22.632,18.091c-3.028,0-5.396-0.781-7.104-2.344
	c-1.71-1.563-2.563-3.516-2.563-5.859c0-2.051,0.586-5.102,1.758-9.155l9.155-31.274c0.634-2.051,0.952-3.563,0.952-4.541
	c0-0.537-0.22-1.013-0.659-1.428s-0.952-0.623-1.538-0.623c-1.856,0-4.102,1.271-6.738,3.809
	c-6.738,6.445-13.257,16.04-19.556,28.784l-6.006,21.753H181.63l13.696-47.021c1.318-4.639,1.978-7.935,1.978-9.888
	c0-0.83-0.196-1.525-0.586-2.087c-0.392-0.562-1.025-1.001-1.904-1.318s-2.54-0.477-4.98-0.477l0.806-2.783l24.683-4.321H219.789z"
	/>
<path display="none" d="M295.712,264.717l-9.082,31.421c6.103-9.18,10.668-15.454,13.696-18.823
	c4.442-4.882,8.276-8.203,11.499-9.961s6.25-2.637,9.082-2.637c2.538,0,4.711,0.94,6.519,2.819c1.806,1.881,2.71,4.334,2.71,7.361
	c0,2.735-0.586,6.055-1.758,9.961l-9.375,31.274c-0.782,2.735-1.172,4.517-1.172,5.347c0,0.488,0.183,0.928,0.549,1.318
	c0.366,0.392,0.744,0.586,1.135,0.586c0.487,0,1-0.194,1.538-0.586c1.708-1.416,3.442-3.417,5.2-6.006
	c0.439-0.684,1.146-1.709,2.124-3.076l2.783,1.685c-7.178,12.061-14.722,18.091-22.632,18.091c-3.028,0-5.396-0.781-7.104-2.344
	c-1.71-1.563-2.563-3.516-2.563-5.859c0-2.051,0.586-5.102,1.758-9.155l9.155-31.274c0.634-2.051,0.952-3.563,0.952-4.541
	c0-0.537-0.22-1.013-0.659-1.428s-0.952-0.623-1.538-0.623c-1.856,0-4.102,1.271-6.738,3.809
	c-6.738,6.445-13.257,16.04-19.556,28.784l-6.006,21.753h-18.677l13.696-47.021c1.318-4.639,1.978-7.935,1.978-9.888
	c0-0.83-0.196-1.525-0.586-2.087c-0.392-0.562-1.025-1.001-1.904-1.318s-2.54-0.477-4.98-0.477l0.806-2.783l24.683-4.321H295.712z"
	/>
<path display="none" d="M380.863,264.717c3.856,0,7.482,0.892,10.876,2.673c3.393,1.783,5.957,4.261,7.69,7.435
	c1.732,3.175,2.6,6.69,2.6,10.547c0,7.91-2.21,15.82-6.628,23.73c-4.42,7.91-10.243,14.148-17.468,18.714
	c-7.227,4.565-14.502,6.848-21.826,6.848c-6.641,0-11.781-1.978-15.417-5.933c-3.638-3.955-5.457-8.789-5.457-14.502
	c0-6.786,1.355-13.147,4.065-19.079c2.71-5.934,6.152-11.108,10.327-15.527s8.972-8.008,14.392-10.768
	C369.438,266.097,375.052,264.717,380.863,264.717z M377.86,268.599c-2.589,0-4.737,0.758-6.445,2.271
	c-3.418,3.076-7.276,10.267-11.572,21.569c-4.297,11.305-6.445,21.497-6.445,30.579c0,2.246,0.683,4.102,2.051,5.566
	c1.366,1.465,2.978,2.197,4.834,2.197c1.904,0,3.589-0.586,5.054-1.758c2.148-1.758,4.785-5.7,7.91-11.829
	c3.124-6.127,5.688-12.891,7.69-20.287c2.001-7.398,3.003-14.173,3.003-20.325c0-2.538-0.611-4.505-1.831-5.896
	C380.887,269.294,379.472,268.599,377.86,268.599z"/>
<path display="none" d="M404.271,297.09l31.567-1.978c0.683,5.127,2.075,9.034,4.175,11.719c3.417,4.347,8.3,6.519,14.648,6.519
	c4.735,0,8.386-1.11,10.95-3.333c2.563-2.221,3.845-4.797,3.845-7.727c0-2.783-1.221-5.273-3.662-7.471
	c-2.442-2.197-8.106-4.272-16.992-6.226c-14.551-3.271-24.928-7.617-31.128-13.037c-6.251-5.42-9.375-12.329-9.375-20.728
	c0-5.518,1.599-10.73,4.797-15.637c3.197-4.907,8.007-8.764,14.429-11.572c6.42-2.807,15.222-4.211,26.404-4.211
	c13.72,0,24.181,2.552,31.384,7.654c7.202,5.103,11.486,13.22,12.854,24.353l-31.274,1.831c-0.831-4.834-2.576-8.35-5.237-10.547
	c-2.662-2.197-6.335-3.296-11.023-3.296c-3.858,0-6.764,0.818-8.716,2.453c-1.954,1.637-2.93,3.626-2.93,5.97
	c0,1.71,0.806,3.248,2.417,4.614c1.562,1.417,5.273,2.735,11.133,3.955c14.502,3.125,24.89,6.287,31.165,9.484
	c6.273,3.199,10.84,7.167,13.696,11.902c2.856,4.736,4.285,10.034,4.285,15.894c0,6.885-1.904,13.232-5.713,19.043
	c-3.809,5.812-9.131,10.218-15.967,13.22c-6.837,3.004-15.454,4.505-25.854,4.505c-18.263,0-30.908-3.516-37.939-10.547
	S405.198,307.93,404.271,297.09z"/>
<path display="none" d="M510.81,225.24h88.917v22.925h-55.664v17.065h51.636v21.899h-51.636v21.167h57.275v24.316H510.81V225.24z"/>
<path display="none" d="M612.148,332.613V225.24h55.298c10.254,0,18.091,0.879,23.511,2.637s9.789,5.017,13.11,9.778
	c3.32,4.761,4.98,10.559,4.98,17.395c0,5.958-1.271,11.097-3.811,15.417c-2.541,4.322-6.035,7.826-10.479,10.511
	c-2.834,1.71-6.718,3.125-11.652,4.248c3.951,1.32,6.831,2.641,8.637,3.959c1.22,0.88,2.988,2.761,5.307,5.645
	c2.317,2.884,3.867,5.107,4.647,6.671l16.067,31.113h-37.489L662.539,299.8c-2.246-4.248-4.248-7.006-6.006-8.276
	c-2.393-1.659-5.103-2.49-8.13-2.49h-2.93v43.579H612.148z M645.473,268.746h13.989c1.513,0,4.442-0.487,8.789-1.465
	c2.197-0.439,3.991-1.563,5.384-3.369c1.391-1.806,2.087-3.882,2.087-6.226c0-3.467-1.099-6.127-3.296-7.983
	c-2.197-1.855-6.324-2.783-12.378-2.783h-14.575V268.746z"/>
<path display="none" d="M707.773,225.24h34.684l24.167,77.271l23.857-77.271h33.674l-39.869,107.373h-35.962L707.773,225.24z"/>
<path display="none" d="M818.193,279c0-17.529,4.882-31.176,14.648-40.942c9.766-9.765,23.364-14.648,40.796-14.648
	c17.871,0,31.641,4.797,41.309,14.392c9.668,9.595,14.502,23.035,14.502,40.32c0,12.55-2.112,22.84-6.336,30.871
	c-4.224,8.033-10.326,14.283-18.311,18.75c-7.982,4.469-17.933,6.702-29.846,6.702c-12.11,0-22.132-1.929-30.066-5.786
	c-7.935-3.856-14.367-9.961-19.299-18.311C820.658,301.998,818.193,291.549,818.193,279z M851.372,279.146
	c0,10.84,2.014,18.629,6.043,23.364c4.027,4.736,9.509,7.104,16.442,7.104c7.129,0,12.646-2.318,16.553-6.958
	c3.906-4.639,5.859-12.964,5.859-24.976c0-10.107-2.039-17.492-6.116-22.156c-4.077-4.662-9.606-6.994-16.589-6.994
	c-6.69,0-12.061,2.369-16.113,7.104C853.397,260.372,851.372,268.208,851.372,279.146z"/>
<path display="none" d="M165.423,72.373v10.339c-15.318,2.912-26.616,8.311-33.889,16.198c-7.277,7.891-10.914,16.887-10.914,26.996
	c0,10.264,1.838,23.015,5.514,38.254c3.676,15.243,5.514,28.529,5.514,39.862c0,10.418-3.102,21.022-9.305,31.821
	c-6.203,10.798-15.128,20.028-26.766,27.686c-8.121,5.363-21.062,10.418-38.829,15.164c18.991,5.973,32.776,11.872,41.356,17.691
	c11.333,7.812,19.834,17.002,25.502,27.57c5.665,10.568,8.501,20.603,8.501,30.098c0,9.19-1.877,21.446-5.629,36.761
	c-3.755,15.314-5.629,28.64-5.629,39.977c0,10.874,3.482,20.255,10.454,28.146c6.968,7.887,18.341,13.361,34.119,16.427v10.799
	h-8.042c-15.624,0.15-30.442-3.446-44.458-10.799c-14.015-7.352-24.583-16.812-31.706-28.374
	c-7.122-11.567-10.684-22.785-10.684-33.659c0-10.568,2.373-25.043,7.123-43.424c3.521-13.631,5.284-25.808,5.284-36.53
	c0-12.098-3.83-22.401-11.487-30.901c-7.661-8.501-18.84-13.976-33.544-16.428v-14.015c14.705-2.449,25.883-8.117,33.544-17.002
	c7.657-8.881,11.487-19.68,11.487-32.396c0-10.414-1.687-22.131-5.054-35.152c-4.75-18.226-7.123-32.086-7.123-41.585
	c0-9.955,2.987-20.063,8.96-30.327c5.974-10.26,13.477-18.61,22.516-25.043c9.036-6.433,18.916-11.104,29.638-14.015
	C140.15,74.21,151.329,72.832,165.423,72.373z"/>
<path display="none" d="M902.059,486.159V475.59c15.164-2.912,26.422-8.312,33.773-16.198c7.353-7.891,11.028-16.887,11.028-26.996
	s-1.838-22.785-5.515-38.024c-3.676-15.238-5.514-28.525-5.514-39.862c0-10.568,3.063-21.252,9.19-32.05
	c6.124-10.799,15.085-20.024,26.882-27.686c8.116-5.205,21.058-10.26,38.828-15.164c-18.994-5.974-32.779-11.868-41.355-17.691
	c-11.488-7.812-20.068-17.002-25.732-27.57c-5.669-10.569-8.502-20.599-8.502-30.098c0-9.19,1.875-21.443,5.629-36.761
	c3.752-15.314,5.629-28.565,5.629-39.748c0-11.028-3.445-20.448-10.338-28.26s-18.23-13.326-34.004-16.542V72.373l8.041-0.229
	c15.469-0.151,30.248,3.446,44.343,10.798c14.091,7.352,24.698,16.812,31.821,28.375c7.122,11.566,10.684,22.86,10.684,33.889
	c0,10.418-2.377,24.813-7.123,43.194c-3.525,13.634-5.284,25.811-5.284,36.531c0,12.102,3.791,22.44,11.373,31.017
	c7.581,8.58,18.8,14.015,33.659,16.313v14.015c-14.859,2.452-26.078,8.12-33.659,17.002c-7.582,8.885-11.373,19.684-11.373,32.395
	c0,10.418,1.684,22.136,5.055,35.152c4.595,18.229,6.893,32.087,6.893,41.586c0,10.109-2.951,20.254-8.846,30.442
	c-5.897,10.185-13.365,18.495-22.401,24.928c-9.039,6.434-18.918,11.104-29.638,14.016
	C927.333,484.09,916.149,485.544,902.059,486.159z"/>
<path fill="#FFFFFF" d="M183.783,264.717l-15.015,52.075c-0.831,2.979-1.245,4.933-1.245,5.859c0,0.538,0.22,1.038,0.659,1.502
	s0.903,0.695,1.392,0.695c0.83,0,1.659-0.366,2.49-1.099c2.197-1.806,4.834-5.078,7.91-9.814l2.49,1.465
	c-7.374,12.843-15.21,19.263-23.511,19.263c-3.175,0-5.702-0.892-7.581-2.674c-1.88-1.781-2.82-4.039-2.82-6.774
	c0-1.806,0.414-4.102,1.245-6.885l10.181-35.01c0.976-3.369,1.465-5.907,1.465-7.617c0-1.073-0.465-2.025-1.392-2.856
	c-0.928-0.83-2.197-1.245-3.809-1.245c-0.732,0-1.611,0.025-2.637,0.073l0.952-2.93l24.829-4.028H183.783z M179.242,231.026
	c3.027,0,5.578,1.051,7.654,3.149c2.075,2.1,3.113,4.64,3.113,7.617c0,2.979-1.051,5.519-3.149,7.617
	c-2.1,2.1-4.64,3.149-7.617,3.149c-2.93,0-5.445-1.05-7.544-3.149c-2.1-2.099-3.149-4.639-3.149-7.617
	c0-2.978,1.037-5.517,3.113-7.617C173.736,232.077,176.263,231.026,179.242,231.026z"/>
<path fill="#FFFFFF" d="M219.789,264.717l-9.082,31.421c6.103-9.18,10.668-15.454,13.696-18.823
	c4.442-4.882,8.276-8.203,11.499-9.961s6.25-2.637,9.082-2.637c2.538,0,4.711,0.94,6.519,2.819c1.806,1.881,2.71,4.334,2.71,7.361
	c0,2.735-0.586,6.055-1.758,9.961l-9.375,31.274c-0.782,2.735-1.172,4.517-1.172,5.347c0,0.488,0.183,0.928,0.549,1.318
	c0.366,0.392,0.744,0.586,1.135,0.586c0.487,0,1-0.194,1.538-0.586c1.708-1.416,3.442-3.417,5.2-6.006
	c0.439-0.684,1.146-1.709,2.124-3.076l2.783,1.685c-7.178,12.061-14.722,18.091-22.632,18.091c-3.028,0-5.396-0.781-7.104-2.344
	c-1.71-1.563-2.563-3.516-2.563-5.859c0-2.051,0.586-5.102,1.758-9.155l9.155-31.274c0.634-2.051,0.952-3.563,0.952-4.541
	c0-0.537-0.22-1.013-0.659-1.428s-0.952-0.623-1.538-0.623c-1.856,0-4.102,1.271-6.738,3.809
	c-6.738,6.445-13.257,16.04-19.556,28.784l-6.006,21.753H181.63l13.696-47.021c1.318-4.639,1.978-7.935,1.978-9.888
	c0-0.83-0.196-1.525-0.586-2.087c-0.392-0.562-1.025-1.001-1.904-1.318s-2.54-0.477-4.98-0.477l0.806-2.783l24.683-4.321H219.789z"
	/>
<path fill="#FFFFFF" d="M295.712,264.717l-9.082,31.421c6.103-9.18,10.668-15.454,13.696-18.823
	c4.442-4.882,8.276-8.203,11.499-9.961s6.25-2.637,9.082-2.637c2.538,0,4.711,0.94,6.519,2.819c1.806,1.881,2.71,4.334,2.71,7.361
	c0,2.735-0.586,6.055-1.758,9.961l-9.375,31.274c-0.782,2.735-1.172,4.517-1.172,5.347c0,0.488,0.183,0.928,0.549,1.318
	c0.366,0.392,0.744,0.586,1.135,0.586c0.487,0,1-0.194,1.538-0.586c1.708-1.416,3.442-3.417,5.2-6.006
	c0.439-0.684,1.146-1.709,2.124-3.076l2.783,1.685c-7.178,12.061-14.722,18.091-22.632,18.091c-3.028,0-5.396-0.781-7.104-2.344
	c-1.71-1.563-2.563-3.516-2.563-5.859c0-2.051,0.586-5.102,1.758-9.155l9.155-31.274c0.634-2.051,0.952-3.563,0.952-4.541
	c0-0.537-0.22-1.013-0.659-1.428s-0.952-0.623-1.538-0.623c-1.856,0-4.102,1.271-6.738,3.809
	c-6.738,6.445-13.257,16.04-19.556,28.784l-6.006,21.753h-18.677l13.696-47.021c1.318-4.639,1.978-7.935,1.978-9.888
	c0-0.83-0.196-1.525-0.586-2.087c-0.392-0.562-1.025-1.001-1.904-1.318s-2.54-0.477-4.98-0.477l0.806-2.783l24.683-4.321H295.712z"
	/>
<path fill="#FFFFFF" d="M380.863,264.717c3.856,0,7.482,0.892,10.876,2.673c3.393,1.783,5.957,4.261,7.69,7.435
	c1.732,3.175,2.6,6.69,2.6,10.547c0,7.91-2.21,15.82-6.628,23.73c-4.42,7.91-10.243,14.148-17.468,18.714
	c-7.227,4.565-14.502,6.848-21.826,6.848c-6.641,0-11.781-1.978-15.417-5.933c-3.638-3.955-5.457-8.789-5.457-14.502
	c0-6.786,1.355-13.147,4.065-19.079c2.71-5.934,6.152-11.108,10.327-15.527s8.972-8.008,14.392-10.768
	C369.438,266.097,375.052,264.717,380.863,264.717z M377.86,268.599c-2.589,0-4.737,0.758-6.445,2.271
	c-3.418,3.076-7.276,10.267-11.572,21.569c-4.297,11.305-6.445,21.497-6.445,30.579c0,2.246,0.683,4.102,2.051,5.566
	c1.366,1.465,2.978,2.197,4.834,2.197c1.904,0,3.589-0.586,5.054-1.758c2.148-1.758,4.785-5.7,7.91-11.829
	c3.124-6.127,5.688-12.891,7.69-20.287c2.001-7.398,3.003-14.173,3.003-20.325c0-2.538-0.611-4.505-1.831-5.896
	C380.887,269.294,379.472,268.599,377.86,268.599z"/>
<path fill="#FFFFFF" d="M404.271,297.09l31.567-1.978c0.683,5.127,2.075,9.034,4.175,11.719c3.417,4.347,8.3,6.519,14.648,6.519
	c4.735,0,8.386-1.11,10.95-3.333c2.563-2.221,3.845-4.797,3.845-7.727c0-2.783-1.221-5.273-3.662-7.471
	c-2.442-2.197-8.106-4.272-16.992-6.226c-14.551-3.271-24.928-7.617-31.128-13.037c-6.251-5.42-9.375-12.329-9.375-20.728
	c0-5.518,1.599-10.73,4.797-15.637c3.197-4.907,8.007-8.764,14.429-11.572c6.42-2.807,15.222-4.211,26.404-4.211
	c13.72,0,24.181,2.552,31.384,7.654c7.202,5.103,11.486,13.22,12.854,24.353l-31.274,1.831c-0.831-4.834-2.576-8.35-5.237-10.547
	c-2.662-2.197-6.335-3.296-11.023-3.296c-3.858,0-6.764,0.818-8.716,2.453c-1.954,1.637-2.93,3.626-2.93,5.97
	c0,1.71,0.806,3.248,2.417,4.614c1.562,1.417,5.273,2.735,11.133,3.955c14.502,3.125,24.89,6.287,31.165,9.484
	c6.273,3.199,10.84,7.167,13.696,11.902c2.856,4.736,4.285,10.034,4.285,15.894c0,6.885-1.904,13.232-5.713,19.043
	c-3.809,5.812-9.131,10.218-15.967,13.22c-6.837,3.004-15.454,4.505-25.854,4.505c-18.263,0-30.908-3.516-37.939-10.547
	S405.198,307.93,404.271,297.09z"/>
<path fill="#FFFFFF" d="M510.81,225.24h88.917v22.925h-55.664v17.065h51.636v21.899h-51.636v21.167h57.275v24.316H510.81V225.24z"/>
<path fill="#FFFFFF" d="M612.148,332.613V225.24h55.298c10.254,0,18.091,0.879,23.511,2.637s9.789,5.017,13.11,9.778
	c3.32,4.761,4.98,10.559,4.98,17.395c0,5.958-1.271,11.097-3.811,15.417c-2.541,4.322-6.035,7.826-10.479,10.511
	c-2.834,1.71-6.718,3.125-11.652,4.248c3.951,1.32,6.831,2.641,8.637,3.959c1.22,0.88,2.988,2.761,5.307,5.645
	c2.317,2.884,3.867,5.107,4.647,6.671l16.067,31.113h-37.489L662.539,299.8c-2.246-4.248-4.248-7.006-6.006-8.276
	c-2.393-1.659-5.103-2.49-8.13-2.49h-2.93v43.579H612.148z M645.473,268.746h13.989c1.513,0,4.442-0.487,8.789-1.465
	c2.197-0.439,3.991-1.563,5.384-3.369c1.391-1.806,2.087-3.882,2.087-6.226c0-3.467-1.099-6.127-3.296-7.983
	c-2.197-1.855-6.324-2.783-12.378-2.783h-14.575V268.746z"/>
<path fill="#FFFFFF" d="M707.773,225.24h34.684l24.167,77.271l23.857-77.271h33.674l-39.869,107.373h-35.962L707.773,225.24z"/>
<path fill="#FFFFFF" d="M818.193,279c0-17.529,4.882-31.176,14.648-40.942c9.766-9.765,23.364-14.648,40.796-14.648
	c17.871,0,31.641,4.797,41.309,14.392c9.668,9.595,14.502,23.035,14.502,40.32c0,12.55-2.112,22.84-6.336,30.871
	c-4.224,8.033-10.326,14.283-18.311,18.75c-7.982,4.469-17.933,6.702-29.846,6.702c-12.11,0-22.132-1.929-30.066-5.786
	c-7.935-3.856-14.367-9.961-19.299-18.311C820.658,301.998,818.193,291.549,818.193,279z M851.372,279.146
	c0,10.84,2.014,18.629,6.043,23.364c4.027,4.736,9.509,7.104,16.442,7.104c7.129,0,12.646-2.318,16.553-6.958
	c3.906-4.639,5.859-12.964,5.859-24.976c0-10.107-2.039-17.492-6.116-22.156c-4.077-4.662-9.606-6.994-16.589-6.994
	c-6.69,0-12.061,2.369-16.113,7.104C853.397,260.372,851.372,268.208,851.372,279.146z"/>
<path fill="#FFFFFF" d="M165.423,72.373v10.339c-15.318,2.912-26.616,8.311-33.889,16.198c-7.277,7.891-10.914,16.887-10.914,26.996
	c0,10.264,1.838,23.015,5.514,38.254c3.676,15.243,5.514,28.529,5.514,39.862c0,10.418-3.102,21.022-9.305,31.821
	c-6.203,10.798-15.128,20.028-26.766,27.686c-8.121,5.363-21.062,10.418-38.829,15.164c18.991,5.973,32.776,11.872,41.356,17.691
	c11.333,7.812,19.834,17.002,25.502,27.57c5.665,10.568,8.501,20.603,8.501,30.098c0,9.19-1.877,21.446-5.629,36.761
	c-3.755,15.314-5.629,28.64-5.629,39.977c0,10.874,3.482,20.255,10.454,28.146c6.968,7.887,18.341,13.361,34.119,16.427v10.799
	h-8.042c-15.624,0.15-30.442-3.446-44.458-10.799c-14.015-7.352-24.583-16.812-31.706-28.374
	c-7.122-11.567-10.684-22.785-10.684-33.659c0-10.568,2.373-25.043,7.123-43.424c3.521-13.631,5.284-25.808,5.284-36.53
	c0-12.098-3.83-22.401-11.487-30.901c-7.661-8.501-18.84-13.976-33.544-16.428v-14.015c14.705-2.449,25.883-8.117,33.544-17.002
	c7.657-8.881,11.487-19.68,11.487-32.396c0-10.414-1.687-22.131-5.054-35.152c-4.75-18.226-7.123-32.086-7.123-41.585
	c0-9.955,2.987-20.063,8.96-30.327c5.974-10.26,13.477-18.61,22.516-25.043c9.036-6.433,18.916-11.104,29.638-14.015
	C140.15,74.21,151.329,72.832,165.423,72.373z"/>
<path fill="#FFFFFF" d="M902.059,486.159V475.59c15.164-2.912,26.422-8.312,33.773-16.198c7.353-7.891,11.028-16.887,11.028-26.996
	s-1.838-22.785-5.515-38.024c-3.676-15.238-5.514-28.525-5.514-39.862c0-10.568,3.063-21.252,9.19-32.05
	c6.124-10.799,15.085-20.024,26.882-27.686c8.116-5.205,21.058-10.26,38.828-15.164c-18.994-5.974-32.779-11.868-41.355-17.691
	c-11.488-7.812-20.068-17.002-25.732-27.57c-5.669-10.569-8.502-20.599-8.502-30.098c0-9.19,1.875-21.443,5.629-36.761
	c3.752-15.314,5.629-28.565,5.629-39.748c0-11.028-3.445-20.448-10.338-28.26s-18.23-13.326-34.004-16.542V72.373l8.041-0.229
	c15.469-0.151,30.248,3.446,44.343,10.798c14.091,7.352,24.698,16.812,31.821,28.375c7.122,11.566,10.684,22.86,10.684,33.889
	c0,10.418-2.377,24.813-7.123,43.194c-3.525,13.634-5.284,25.811-5.284,36.531c0,12.102,3.791,22.44,11.373,31.017
	c7.581,8.58,18.8,14.015,33.659,16.313v14.015c-14.859,2.452-26.078,8.12-33.659,17.002c-7.582,8.885-11.373,19.684-11.373,32.395
	c0,10.418,1.684,22.136,5.055,35.152c4.595,18.229,6.893,32.087,6.893,41.586c0,10.109-2.951,20.254-8.846,30.442
	c-5.897,10.185-13.365,18.495-22.401,24.928c-9.039,6.434-18.918,11.104-29.638,14.016
	C927.333,484.09,916.149,485.544,902.059,486.159z"/>
</svg>
